%TF.GenerationSoftware,KiCad,Pcbnew,7.0.1*%
%TF.CreationDate,2023-03-13T23:28:55-04:00*%
%TF.ProjectId,ctm_battery,63746d5f-6261-4747-9465-72792e6b6963,1.0.0*%
%TF.SameCoordinates,Original*%
%TF.FileFunction,Legend,Top*%
%TF.FilePolarity,Positive*%
%FSLAX46Y46*%
G04 Gerber Fmt 4.6, Leading zero omitted, Abs format (unit mm)*
G04 Created by KiCad (PCBNEW 7.0.1) date 2023-03-13 23:28:55*
%MOMM*%
%LPD*%
G01*
G04 APERTURE LIST*
G04 Aperture macros list*
%AMRoundRect*
0 Rectangle with rounded corners*
0 $1 Rounding radius*
0 $2 $3 $4 $5 $6 $7 $8 $9 X,Y pos of 4 corners*
0 Add a 4 corners polygon primitive as box body*
4,1,4,$2,$3,$4,$5,$6,$7,$8,$9,$2,$3,0*
0 Add four circle primitives for the rounded corners*
1,1,$1+$1,$2,$3*
1,1,$1+$1,$4,$5*
1,1,$1+$1,$6,$7*
1,1,$1+$1,$8,$9*
0 Add four rect primitives between the rounded corners*
20,1,$1+$1,$2,$3,$4,$5,0*
20,1,$1+$1,$4,$5,$6,$7,0*
20,1,$1+$1,$6,$7,$8,$9,0*
20,1,$1+$1,$8,$9,$2,$3,0*%
G04 Aperture macros list end*
%ADD10C,0.150000*%
%ADD11C,0.120000*%
%ADD12C,0.135000*%
%ADD13C,0.130711*%
%ADD14RoundRect,0.225000X-0.250000X0.225000X-0.250000X-0.225000X0.250000X-0.225000X0.250000X0.225000X0*%
%ADD15C,3.200000*%
%ADD16RoundRect,0.184782X-0.240218X-0.715218X0.240218X-0.715218X0.240218X0.715218X-0.240218X0.715218X0*%
%ADD17RoundRect,0.135000X-0.185000X0.135000X-0.185000X-0.135000X0.185000X-0.135000X0.185000X0.135000X0*%
%ADD18RoundRect,0.225000X-0.225000X-0.250000X0.225000X-0.250000X0.225000X0.250000X-0.225000X0.250000X0*%
%ADD19RoundRect,0.135000X-0.135000X-0.185000X0.135000X-0.185000X0.135000X0.185000X-0.135000X0.185000X0*%
%ADD20R,1.700000X1.700000*%
%ADD21O,1.700000X1.700000*%
%ADD22RoundRect,0.225000X0.225000X0.250000X-0.225000X0.250000X-0.225000X-0.250000X0.225000X-0.250000X0*%
%ADD23RoundRect,0.125000X-0.125000X0.125000X-0.125000X-0.125000X0.125000X-0.125000X0.125000X0.125000X0*%
%ADD24R,1.300000X0.700000*%
%ADD25R,2.400000X3.400000*%
%ADD26C,1.700000*%
%ADD27C,2.200000*%
%ADD28RoundRect,0.225000X0.250000X-0.225000X0.250000X0.225000X-0.250000X0.225000X-0.250000X-0.225000X0*%
%ADD29RoundRect,0.184782X-0.715218X0.240218X-0.715218X-0.240218X0.715218X-0.240218X0.715218X0.240218X0*%
%ADD30R,0.400000X1.350000*%
%ADD31R,1.800000X1.900000*%
%ADD32R,2.100000X1.600000*%
%ADD33R,1.900000X1.900000*%
%ADD34RoundRect,0.050000X0.100000X-0.175000X0.100000X0.175000X-0.100000X0.175000X-0.100000X-0.175000X0*%
%ADD35RoundRect,0.050000X0.750000X-0.450000X0.750000X0.450000X-0.750000X0.450000X-0.750000X-0.450000X0*%
%ADD36RoundRect,0.135000X0.185000X-0.135000X0.185000X0.135000X-0.185000X0.135000X-0.185000X-0.135000X0*%
%ADD37RoundRect,0.200000X-0.200000X-0.275000X0.200000X-0.275000X0.200000X0.275000X-0.200000X0.275000X0*%
%ADD38RoundRect,0.087500X0.312500X0.087500X-0.312500X0.087500X-0.312500X-0.087500X0.312500X-0.087500X0*%
%ADD39R,0.800000X1.400000*%
G04 APERTURE END LIST*
D10*
X97544047Y-65470095D02*
X97544047Y-66041523D01*
X97544047Y-66041523D02*
X97505952Y-66155809D01*
X97505952Y-66155809D02*
X97429761Y-66232000D01*
X97429761Y-66232000D02*
X97315476Y-66270095D01*
X97315476Y-66270095D02*
X97239285Y-66270095D01*
X98305952Y-66270095D02*
X97925000Y-66270095D01*
X97925000Y-66270095D02*
X97925000Y-65470095D01*
X99029762Y-66193904D02*
X98991666Y-66232000D01*
X98991666Y-66232000D02*
X98877381Y-66270095D01*
X98877381Y-66270095D02*
X98801190Y-66270095D01*
X98801190Y-66270095D02*
X98686904Y-66232000D01*
X98686904Y-66232000D02*
X98610714Y-66155809D01*
X98610714Y-66155809D02*
X98572619Y-66079619D01*
X98572619Y-66079619D02*
X98534523Y-65927238D01*
X98534523Y-65927238D02*
X98534523Y-65812952D01*
X98534523Y-65812952D02*
X98572619Y-65660571D01*
X98572619Y-65660571D02*
X98610714Y-65584380D01*
X98610714Y-65584380D02*
X98686904Y-65508190D01*
X98686904Y-65508190D02*
X98801190Y-65470095D01*
X98801190Y-65470095D02*
X98877381Y-65470095D01*
X98877381Y-65470095D02*
X98991666Y-65508190D01*
X98991666Y-65508190D02*
X99029762Y-65546285D01*
X99601190Y-65470095D02*
X99601190Y-66041523D01*
X99601190Y-66041523D02*
X99563095Y-66155809D01*
X99563095Y-66155809D02*
X99486904Y-66232000D01*
X99486904Y-66232000D02*
X99372619Y-66270095D01*
X99372619Y-66270095D02*
X99296428Y-66270095D01*
X100363095Y-66270095D02*
X99982143Y-66270095D01*
X99982143Y-66270095D02*
X99982143Y-65470095D01*
X101086905Y-66193904D02*
X101048809Y-66232000D01*
X101048809Y-66232000D02*
X100934524Y-66270095D01*
X100934524Y-66270095D02*
X100858333Y-66270095D01*
X100858333Y-66270095D02*
X100744047Y-66232000D01*
X100744047Y-66232000D02*
X100667857Y-66155809D01*
X100667857Y-66155809D02*
X100629762Y-66079619D01*
X100629762Y-66079619D02*
X100591666Y-65927238D01*
X100591666Y-65927238D02*
X100591666Y-65812952D01*
X100591666Y-65812952D02*
X100629762Y-65660571D01*
X100629762Y-65660571D02*
X100667857Y-65584380D01*
X100667857Y-65584380D02*
X100744047Y-65508190D01*
X100744047Y-65508190D02*
X100858333Y-65470095D01*
X100858333Y-65470095D02*
X100934524Y-65470095D01*
X100934524Y-65470095D02*
X101048809Y-65508190D01*
X101048809Y-65508190D02*
X101086905Y-65546285D01*
X101658333Y-65470095D02*
X101658333Y-66041523D01*
X101658333Y-66041523D02*
X101620238Y-66155809D01*
X101620238Y-66155809D02*
X101544047Y-66232000D01*
X101544047Y-66232000D02*
X101429762Y-66270095D01*
X101429762Y-66270095D02*
X101353571Y-66270095D01*
X102420238Y-66270095D02*
X102039286Y-66270095D01*
X102039286Y-66270095D02*
X102039286Y-65470095D01*
X103144048Y-66193904D02*
X103105952Y-66232000D01*
X103105952Y-66232000D02*
X102991667Y-66270095D01*
X102991667Y-66270095D02*
X102915476Y-66270095D01*
X102915476Y-66270095D02*
X102801190Y-66232000D01*
X102801190Y-66232000D02*
X102725000Y-66155809D01*
X102725000Y-66155809D02*
X102686905Y-66079619D01*
X102686905Y-66079619D02*
X102648809Y-65927238D01*
X102648809Y-65927238D02*
X102648809Y-65812952D01*
X102648809Y-65812952D02*
X102686905Y-65660571D01*
X102686905Y-65660571D02*
X102725000Y-65584380D01*
X102725000Y-65584380D02*
X102801190Y-65508190D01*
X102801190Y-65508190D02*
X102915476Y-65470095D01*
X102915476Y-65470095D02*
X102991667Y-65470095D01*
X102991667Y-65470095D02*
X103105952Y-65508190D01*
X103105952Y-65508190D02*
X103144048Y-65546285D01*
X103715476Y-65470095D02*
X103715476Y-66041523D01*
X103715476Y-66041523D02*
X103677381Y-66155809D01*
X103677381Y-66155809D02*
X103601190Y-66232000D01*
X103601190Y-66232000D02*
X103486905Y-66270095D01*
X103486905Y-66270095D02*
X103410714Y-66270095D01*
X104477381Y-66270095D02*
X104096429Y-66270095D01*
X104096429Y-66270095D02*
X104096429Y-65470095D01*
X105201191Y-66193904D02*
X105163095Y-66232000D01*
X105163095Y-66232000D02*
X105048810Y-66270095D01*
X105048810Y-66270095D02*
X104972619Y-66270095D01*
X104972619Y-66270095D02*
X104858333Y-66232000D01*
X104858333Y-66232000D02*
X104782143Y-66155809D01*
X104782143Y-66155809D02*
X104744048Y-66079619D01*
X104744048Y-66079619D02*
X104705952Y-65927238D01*
X104705952Y-65927238D02*
X104705952Y-65812952D01*
X104705952Y-65812952D02*
X104744048Y-65660571D01*
X104744048Y-65660571D02*
X104782143Y-65584380D01*
X104782143Y-65584380D02*
X104858333Y-65508190D01*
X104858333Y-65508190D02*
X104972619Y-65470095D01*
X104972619Y-65470095D02*
X105048810Y-65470095D01*
X105048810Y-65470095D02*
X105163095Y-65508190D01*
X105163095Y-65508190D02*
X105201191Y-65546285D01*
D11*
X85330000Y-72000000D02*
X86330000Y-72000000D01*
X113620000Y-65360000D02*
X113620000Y-66360000D01*
X116200000Y-71350000D02*
X115750000Y-70900000D01*
X85830000Y-72500000D02*
X85830000Y-71500000D01*
X113120000Y-65860000D02*
X114120000Y-65860000D01*
X115750000Y-70900000D02*
X115750000Y-71100000D01*
X115750000Y-70900000D02*
X115950000Y-70900000D01*
D10*
%TO.C,C6*%
X95226667Y-66193904D02*
X95188571Y-66232000D01*
X95188571Y-66232000D02*
X95074286Y-66270095D01*
X95074286Y-66270095D02*
X94998095Y-66270095D01*
X94998095Y-66270095D02*
X94883809Y-66232000D01*
X94883809Y-66232000D02*
X94807619Y-66155809D01*
X94807619Y-66155809D02*
X94769524Y-66079619D01*
X94769524Y-66079619D02*
X94731428Y-65927238D01*
X94731428Y-65927238D02*
X94731428Y-65812952D01*
X94731428Y-65812952D02*
X94769524Y-65660571D01*
X94769524Y-65660571D02*
X94807619Y-65584380D01*
X94807619Y-65584380D02*
X94883809Y-65508190D01*
X94883809Y-65508190D02*
X94998095Y-65470095D01*
X94998095Y-65470095D02*
X95074286Y-65470095D01*
X95074286Y-65470095D02*
X95188571Y-65508190D01*
X95188571Y-65508190D02*
X95226667Y-65546285D01*
X95912381Y-65470095D02*
X95760000Y-65470095D01*
X95760000Y-65470095D02*
X95683809Y-65508190D01*
X95683809Y-65508190D02*
X95645714Y-65546285D01*
X95645714Y-65546285D02*
X95569524Y-65660571D01*
X95569524Y-65660571D02*
X95531428Y-65812952D01*
X95531428Y-65812952D02*
X95531428Y-66117714D01*
X95531428Y-66117714D02*
X95569524Y-66193904D01*
X95569524Y-66193904D02*
X95607619Y-66232000D01*
X95607619Y-66232000D02*
X95683809Y-66270095D01*
X95683809Y-66270095D02*
X95836190Y-66270095D01*
X95836190Y-66270095D02*
X95912381Y-66232000D01*
X95912381Y-66232000D02*
X95950476Y-66193904D01*
X95950476Y-66193904D02*
X95988571Y-66117714D01*
X95988571Y-66117714D02*
X95988571Y-65927238D01*
X95988571Y-65927238D02*
X95950476Y-65851047D01*
X95950476Y-65851047D02*
X95912381Y-65812952D01*
X95912381Y-65812952D02*
X95836190Y-65774857D01*
X95836190Y-65774857D02*
X95683809Y-65774857D01*
X95683809Y-65774857D02*
X95607619Y-65812952D01*
X95607619Y-65812952D02*
X95569524Y-65851047D01*
X95569524Y-65851047D02*
X95531428Y-65927238D01*
%TO.C,L1*%
X113586666Y-67190095D02*
X113205714Y-67190095D01*
X113205714Y-67190095D02*
X113205714Y-66390095D01*
X114272380Y-67190095D02*
X113815237Y-67190095D01*
X114043809Y-67190095D02*
X114043809Y-66390095D01*
X114043809Y-66390095D02*
X113967618Y-66504380D01*
X113967618Y-66504380D02*
X113891428Y-66580571D01*
X113891428Y-66580571D02*
X113815237Y-66618666D01*
%TO.C,R4*%
X123770095Y-67358332D02*
X123389142Y-67624999D01*
X123770095Y-67815475D02*
X122970095Y-67815475D01*
X122970095Y-67815475D02*
X122970095Y-67510713D01*
X122970095Y-67510713D02*
X123008190Y-67434523D01*
X123008190Y-67434523D02*
X123046285Y-67396428D01*
X123046285Y-67396428D02*
X123122476Y-67358332D01*
X123122476Y-67358332D02*
X123236761Y-67358332D01*
X123236761Y-67358332D02*
X123312952Y-67396428D01*
X123312952Y-67396428D02*
X123351047Y-67434523D01*
X123351047Y-67434523D02*
X123389142Y-67510713D01*
X123389142Y-67510713D02*
X123389142Y-67815475D01*
X123236761Y-66672618D02*
X123770095Y-66672618D01*
X122932000Y-66863094D02*
X123503428Y-67053571D01*
X123503428Y-67053571D02*
X123503428Y-66558332D01*
%TO.C,C1*%
X115566667Y-73263904D02*
X115528571Y-73302000D01*
X115528571Y-73302000D02*
X115414286Y-73340095D01*
X115414286Y-73340095D02*
X115338095Y-73340095D01*
X115338095Y-73340095D02*
X115223809Y-73302000D01*
X115223809Y-73302000D02*
X115147619Y-73225809D01*
X115147619Y-73225809D02*
X115109524Y-73149619D01*
X115109524Y-73149619D02*
X115071428Y-72997238D01*
X115071428Y-72997238D02*
X115071428Y-72882952D01*
X115071428Y-72882952D02*
X115109524Y-72730571D01*
X115109524Y-72730571D02*
X115147619Y-72654380D01*
X115147619Y-72654380D02*
X115223809Y-72578190D01*
X115223809Y-72578190D02*
X115338095Y-72540095D01*
X115338095Y-72540095D02*
X115414286Y-72540095D01*
X115414286Y-72540095D02*
X115528571Y-72578190D01*
X115528571Y-72578190D02*
X115566667Y-72616285D01*
X116328571Y-73340095D02*
X115871428Y-73340095D01*
X116100000Y-73340095D02*
X116100000Y-72540095D01*
X116100000Y-72540095D02*
X116023809Y-72654380D01*
X116023809Y-72654380D02*
X115947619Y-72730571D01*
X115947619Y-72730571D02*
X115871428Y-72768666D01*
%TO.C,R1*%
X113816667Y-74370095D02*
X113550000Y-73989142D01*
X113359524Y-74370095D02*
X113359524Y-73570095D01*
X113359524Y-73570095D02*
X113664286Y-73570095D01*
X113664286Y-73570095D02*
X113740476Y-73608190D01*
X113740476Y-73608190D02*
X113778571Y-73646285D01*
X113778571Y-73646285D02*
X113816667Y-73722476D01*
X113816667Y-73722476D02*
X113816667Y-73836761D01*
X113816667Y-73836761D02*
X113778571Y-73912952D01*
X113778571Y-73912952D02*
X113740476Y-73951047D01*
X113740476Y-73951047D02*
X113664286Y-73989142D01*
X113664286Y-73989142D02*
X113359524Y-73989142D01*
X114578571Y-74370095D02*
X114121428Y-74370095D01*
X114350000Y-74370095D02*
X114350000Y-73570095D01*
X114350000Y-73570095D02*
X114273809Y-73684380D01*
X114273809Y-73684380D02*
X114197619Y-73760571D01*
X114197619Y-73760571D02*
X114121428Y-73798666D01*
%TO.C,J3*%
X86633333Y-72460095D02*
X86633333Y-73031523D01*
X86633333Y-73031523D02*
X86595238Y-73145809D01*
X86595238Y-73145809D02*
X86519047Y-73222000D01*
X86519047Y-73222000D02*
X86404762Y-73260095D01*
X86404762Y-73260095D02*
X86328571Y-73260095D01*
X86938095Y-72460095D02*
X87433333Y-72460095D01*
X87433333Y-72460095D02*
X87166667Y-72764857D01*
X87166667Y-72764857D02*
X87280952Y-72764857D01*
X87280952Y-72764857D02*
X87357143Y-72802952D01*
X87357143Y-72802952D02*
X87395238Y-72841047D01*
X87395238Y-72841047D02*
X87433333Y-72917238D01*
X87433333Y-72917238D02*
X87433333Y-73107714D01*
X87433333Y-73107714D02*
X87395238Y-73183904D01*
X87395238Y-73183904D02*
X87357143Y-73222000D01*
X87357143Y-73222000D02*
X87280952Y-73260095D01*
X87280952Y-73260095D02*
X87052381Y-73260095D01*
X87052381Y-73260095D02*
X86976190Y-73222000D01*
X86976190Y-73222000D02*
X86938095Y-73183904D01*
%TO.C,C5*%
X111056667Y-66193904D02*
X111018571Y-66232000D01*
X111018571Y-66232000D02*
X110904286Y-66270095D01*
X110904286Y-66270095D02*
X110828095Y-66270095D01*
X110828095Y-66270095D02*
X110713809Y-66232000D01*
X110713809Y-66232000D02*
X110637619Y-66155809D01*
X110637619Y-66155809D02*
X110599524Y-66079619D01*
X110599524Y-66079619D02*
X110561428Y-65927238D01*
X110561428Y-65927238D02*
X110561428Y-65812952D01*
X110561428Y-65812952D02*
X110599524Y-65660571D01*
X110599524Y-65660571D02*
X110637619Y-65584380D01*
X110637619Y-65584380D02*
X110713809Y-65508190D01*
X110713809Y-65508190D02*
X110828095Y-65470095D01*
X110828095Y-65470095D02*
X110904286Y-65470095D01*
X110904286Y-65470095D02*
X111018571Y-65508190D01*
X111018571Y-65508190D02*
X111056667Y-65546285D01*
X111780476Y-65470095D02*
X111399524Y-65470095D01*
X111399524Y-65470095D02*
X111361428Y-65851047D01*
X111361428Y-65851047D02*
X111399524Y-65812952D01*
X111399524Y-65812952D02*
X111475714Y-65774857D01*
X111475714Y-65774857D02*
X111666190Y-65774857D01*
X111666190Y-65774857D02*
X111742381Y-65812952D01*
X111742381Y-65812952D02*
X111780476Y-65851047D01*
X111780476Y-65851047D02*
X111818571Y-65927238D01*
X111818571Y-65927238D02*
X111818571Y-66117714D01*
X111818571Y-66117714D02*
X111780476Y-66193904D01*
X111780476Y-66193904D02*
X111742381Y-66232000D01*
X111742381Y-66232000D02*
X111666190Y-66270095D01*
X111666190Y-66270095D02*
X111475714Y-66270095D01*
X111475714Y-66270095D02*
X111399524Y-66232000D01*
X111399524Y-66232000D02*
X111361428Y-66193904D01*
%TO.C,D1*%
X126970095Y-73370475D02*
X126170095Y-73370475D01*
X126170095Y-73370475D02*
X126170095Y-73179999D01*
X126170095Y-73179999D02*
X126208190Y-73065713D01*
X126208190Y-73065713D02*
X126284380Y-72989523D01*
X126284380Y-72989523D02*
X126360571Y-72951428D01*
X126360571Y-72951428D02*
X126512952Y-72913332D01*
X126512952Y-72913332D02*
X126627238Y-72913332D01*
X126627238Y-72913332D02*
X126779619Y-72951428D01*
X126779619Y-72951428D02*
X126855809Y-72989523D01*
X126855809Y-72989523D02*
X126932000Y-73065713D01*
X126932000Y-73065713D02*
X126970095Y-73179999D01*
X126970095Y-73179999D02*
X126970095Y-73370475D01*
X126970095Y-72151428D02*
X126970095Y-72608571D01*
X126970095Y-72379999D02*
X126170095Y-72379999D01*
X126170095Y-72379999D02*
X126284380Y-72456190D01*
X126284380Y-72456190D02*
X126360571Y-72532380D01*
X126360571Y-72532380D02*
X126398666Y-72608571D01*
%TO.C,D4*%
X126970095Y-67810475D02*
X126170095Y-67810475D01*
X126170095Y-67810475D02*
X126170095Y-67619999D01*
X126170095Y-67619999D02*
X126208190Y-67505713D01*
X126208190Y-67505713D02*
X126284380Y-67429523D01*
X126284380Y-67429523D02*
X126360571Y-67391428D01*
X126360571Y-67391428D02*
X126512952Y-67353332D01*
X126512952Y-67353332D02*
X126627238Y-67353332D01*
X126627238Y-67353332D02*
X126779619Y-67391428D01*
X126779619Y-67391428D02*
X126855809Y-67429523D01*
X126855809Y-67429523D02*
X126932000Y-67505713D01*
X126932000Y-67505713D02*
X126970095Y-67619999D01*
X126970095Y-67619999D02*
X126970095Y-67810475D01*
X126436761Y-66667618D02*
X126970095Y-66667618D01*
X126132000Y-66858094D02*
X126703428Y-67048571D01*
X126703428Y-67048571D02*
X126703428Y-66553332D01*
%TO.C,U1*%
X108590476Y-73310095D02*
X108590476Y-73957714D01*
X108590476Y-73957714D02*
X108628571Y-74033904D01*
X108628571Y-74033904D02*
X108666666Y-74072000D01*
X108666666Y-74072000D02*
X108742857Y-74110095D01*
X108742857Y-74110095D02*
X108895238Y-74110095D01*
X108895238Y-74110095D02*
X108971428Y-74072000D01*
X108971428Y-74072000D02*
X109009523Y-74033904D01*
X109009523Y-74033904D02*
X109047619Y-73957714D01*
X109047619Y-73957714D02*
X109047619Y-73310095D01*
X109847618Y-74110095D02*
X109390475Y-74110095D01*
X109619047Y-74110095D02*
X109619047Y-73310095D01*
X109619047Y-73310095D02*
X109542856Y-73424380D01*
X109542856Y-73424380D02*
X109466666Y-73500571D01*
X109466666Y-73500571D02*
X109390475Y-73538666D01*
%TO.C,SW1*%
X80568000Y-68933332D02*
X80529904Y-69047618D01*
X80529904Y-69047618D02*
X80529904Y-69238094D01*
X80529904Y-69238094D02*
X80568000Y-69314285D01*
X80568000Y-69314285D02*
X80606095Y-69352380D01*
X80606095Y-69352380D02*
X80682285Y-69390475D01*
X80682285Y-69390475D02*
X80758476Y-69390475D01*
X80758476Y-69390475D02*
X80834666Y-69352380D01*
X80834666Y-69352380D02*
X80872761Y-69314285D01*
X80872761Y-69314285D02*
X80910857Y-69238094D01*
X80910857Y-69238094D02*
X80948952Y-69085713D01*
X80948952Y-69085713D02*
X80987047Y-69009523D01*
X80987047Y-69009523D02*
X81025142Y-68971428D01*
X81025142Y-68971428D02*
X81101333Y-68933332D01*
X81101333Y-68933332D02*
X81177523Y-68933332D01*
X81177523Y-68933332D02*
X81253714Y-68971428D01*
X81253714Y-68971428D02*
X81291809Y-69009523D01*
X81291809Y-69009523D02*
X81329904Y-69085713D01*
X81329904Y-69085713D02*
X81329904Y-69276190D01*
X81329904Y-69276190D02*
X81291809Y-69390475D01*
X81329904Y-69657142D02*
X80529904Y-69847618D01*
X80529904Y-69847618D02*
X81101333Y-69999999D01*
X81101333Y-69999999D02*
X80529904Y-70152380D01*
X80529904Y-70152380D02*
X81329904Y-70342857D01*
X80529904Y-71066666D02*
X80529904Y-70609523D01*
X80529904Y-70838095D02*
X81329904Y-70838095D01*
X81329904Y-70838095D02*
X81215619Y-70761904D01*
X81215619Y-70761904D02*
X81139428Y-70685714D01*
X81139428Y-70685714D02*
X81101333Y-70609523D01*
%TO.C,C4*%
X118016667Y-69793904D02*
X117978571Y-69832000D01*
X117978571Y-69832000D02*
X117864286Y-69870095D01*
X117864286Y-69870095D02*
X117788095Y-69870095D01*
X117788095Y-69870095D02*
X117673809Y-69832000D01*
X117673809Y-69832000D02*
X117597619Y-69755809D01*
X117597619Y-69755809D02*
X117559524Y-69679619D01*
X117559524Y-69679619D02*
X117521428Y-69527238D01*
X117521428Y-69527238D02*
X117521428Y-69412952D01*
X117521428Y-69412952D02*
X117559524Y-69260571D01*
X117559524Y-69260571D02*
X117597619Y-69184380D01*
X117597619Y-69184380D02*
X117673809Y-69108190D01*
X117673809Y-69108190D02*
X117788095Y-69070095D01*
X117788095Y-69070095D02*
X117864286Y-69070095D01*
X117864286Y-69070095D02*
X117978571Y-69108190D01*
X117978571Y-69108190D02*
X118016667Y-69146285D01*
X118702381Y-69336761D02*
X118702381Y-69870095D01*
X118511905Y-69032000D02*
X118321428Y-69603428D01*
X118321428Y-69603428D02*
X118816667Y-69603428D01*
%TO.C,L2*%
X90416666Y-66280095D02*
X90035714Y-66280095D01*
X90035714Y-66280095D02*
X90035714Y-65480095D01*
X90645237Y-65556285D02*
X90683333Y-65518190D01*
X90683333Y-65518190D02*
X90759523Y-65480095D01*
X90759523Y-65480095D02*
X90949999Y-65480095D01*
X90949999Y-65480095D02*
X91026190Y-65518190D01*
X91026190Y-65518190D02*
X91064285Y-65556285D01*
X91064285Y-65556285D02*
X91102380Y-65632476D01*
X91102380Y-65632476D02*
X91102380Y-65708666D01*
X91102380Y-65708666D02*
X91064285Y-65822952D01*
X91064285Y-65822952D02*
X90607142Y-66280095D01*
X90607142Y-66280095D02*
X91102380Y-66280095D01*
%TO.C,C2*%
X107081667Y-66193904D02*
X107043571Y-66232000D01*
X107043571Y-66232000D02*
X106929286Y-66270095D01*
X106929286Y-66270095D02*
X106853095Y-66270095D01*
X106853095Y-66270095D02*
X106738809Y-66232000D01*
X106738809Y-66232000D02*
X106662619Y-66155809D01*
X106662619Y-66155809D02*
X106624524Y-66079619D01*
X106624524Y-66079619D02*
X106586428Y-65927238D01*
X106586428Y-65927238D02*
X106586428Y-65812952D01*
X106586428Y-65812952D02*
X106624524Y-65660571D01*
X106624524Y-65660571D02*
X106662619Y-65584380D01*
X106662619Y-65584380D02*
X106738809Y-65508190D01*
X106738809Y-65508190D02*
X106853095Y-65470095D01*
X106853095Y-65470095D02*
X106929286Y-65470095D01*
X106929286Y-65470095D02*
X107043571Y-65508190D01*
X107043571Y-65508190D02*
X107081667Y-65546285D01*
X107386428Y-65546285D02*
X107424524Y-65508190D01*
X107424524Y-65508190D02*
X107500714Y-65470095D01*
X107500714Y-65470095D02*
X107691190Y-65470095D01*
X107691190Y-65470095D02*
X107767381Y-65508190D01*
X107767381Y-65508190D02*
X107805476Y-65546285D01*
X107805476Y-65546285D02*
X107843571Y-65622476D01*
X107843571Y-65622476D02*
X107843571Y-65698666D01*
X107843571Y-65698666D02*
X107805476Y-65812952D01*
X107805476Y-65812952D02*
X107348333Y-66270095D01*
X107348333Y-66270095D02*
X107843571Y-66270095D01*
%TO.C,D3*%
X126970095Y-69670475D02*
X126170095Y-69670475D01*
X126170095Y-69670475D02*
X126170095Y-69479999D01*
X126170095Y-69479999D02*
X126208190Y-69365713D01*
X126208190Y-69365713D02*
X126284380Y-69289523D01*
X126284380Y-69289523D02*
X126360571Y-69251428D01*
X126360571Y-69251428D02*
X126512952Y-69213332D01*
X126512952Y-69213332D02*
X126627238Y-69213332D01*
X126627238Y-69213332D02*
X126779619Y-69251428D01*
X126779619Y-69251428D02*
X126855809Y-69289523D01*
X126855809Y-69289523D02*
X126932000Y-69365713D01*
X126932000Y-69365713D02*
X126970095Y-69479999D01*
X126970095Y-69479999D02*
X126970095Y-69670475D01*
X126170095Y-68946666D02*
X126170095Y-68451428D01*
X126170095Y-68451428D02*
X126474857Y-68718094D01*
X126474857Y-68718094D02*
X126474857Y-68603809D01*
X126474857Y-68603809D02*
X126512952Y-68527618D01*
X126512952Y-68527618D02*
X126551047Y-68489523D01*
X126551047Y-68489523D02*
X126627238Y-68451428D01*
X126627238Y-68451428D02*
X126817714Y-68451428D01*
X126817714Y-68451428D02*
X126893904Y-68489523D01*
X126893904Y-68489523D02*
X126932000Y-68527618D01*
X126932000Y-68527618D02*
X126970095Y-68603809D01*
X126970095Y-68603809D02*
X126970095Y-68832380D01*
X126970095Y-68832380D02*
X126932000Y-68908571D01*
X126932000Y-68908571D02*
X126893904Y-68946666D01*
%TO.C,J1*%
X102823333Y-68870095D02*
X102823333Y-69441523D01*
X102823333Y-69441523D02*
X102785238Y-69555809D01*
X102785238Y-69555809D02*
X102709047Y-69632000D01*
X102709047Y-69632000D02*
X102594762Y-69670095D01*
X102594762Y-69670095D02*
X102518571Y-69670095D01*
X103623333Y-69670095D02*
X103166190Y-69670095D01*
X103394762Y-69670095D02*
X103394762Y-68870095D01*
X103394762Y-68870095D02*
X103318571Y-68984380D01*
X103318571Y-68984380D02*
X103242381Y-69060571D01*
X103242381Y-69060571D02*
X103166190Y-69098666D01*
%TO.C,C7*%
X94086667Y-71053904D02*
X94048571Y-71092000D01*
X94048571Y-71092000D02*
X93934286Y-71130095D01*
X93934286Y-71130095D02*
X93858095Y-71130095D01*
X93858095Y-71130095D02*
X93743809Y-71092000D01*
X93743809Y-71092000D02*
X93667619Y-71015809D01*
X93667619Y-71015809D02*
X93629524Y-70939619D01*
X93629524Y-70939619D02*
X93591428Y-70787238D01*
X93591428Y-70787238D02*
X93591428Y-70672952D01*
X93591428Y-70672952D02*
X93629524Y-70520571D01*
X93629524Y-70520571D02*
X93667619Y-70444380D01*
X93667619Y-70444380D02*
X93743809Y-70368190D01*
X93743809Y-70368190D02*
X93858095Y-70330095D01*
X93858095Y-70330095D02*
X93934286Y-70330095D01*
X93934286Y-70330095D02*
X94048571Y-70368190D01*
X94048571Y-70368190D02*
X94086667Y-70406285D01*
X94353333Y-70330095D02*
X94886667Y-70330095D01*
X94886667Y-70330095D02*
X94543809Y-71130095D01*
%TO.C,D2*%
X126970095Y-71515475D02*
X126170095Y-71515475D01*
X126170095Y-71515475D02*
X126170095Y-71324999D01*
X126170095Y-71324999D02*
X126208190Y-71210713D01*
X126208190Y-71210713D02*
X126284380Y-71134523D01*
X126284380Y-71134523D02*
X126360571Y-71096428D01*
X126360571Y-71096428D02*
X126512952Y-71058332D01*
X126512952Y-71058332D02*
X126627238Y-71058332D01*
X126627238Y-71058332D02*
X126779619Y-71096428D01*
X126779619Y-71096428D02*
X126855809Y-71134523D01*
X126855809Y-71134523D02*
X126932000Y-71210713D01*
X126932000Y-71210713D02*
X126970095Y-71324999D01*
X126970095Y-71324999D02*
X126970095Y-71515475D01*
X126246285Y-70753571D02*
X126208190Y-70715475D01*
X126208190Y-70715475D02*
X126170095Y-70639285D01*
X126170095Y-70639285D02*
X126170095Y-70448809D01*
X126170095Y-70448809D02*
X126208190Y-70372618D01*
X126208190Y-70372618D02*
X126246285Y-70334523D01*
X126246285Y-70334523D02*
X126322476Y-70296428D01*
X126322476Y-70296428D02*
X126398666Y-70296428D01*
X126398666Y-70296428D02*
X126512952Y-70334523D01*
X126512952Y-70334523D02*
X126970095Y-70791666D01*
X126970095Y-70791666D02*
X126970095Y-70296428D01*
%TO.C,U3*%
X91870476Y-70840095D02*
X91870476Y-71487714D01*
X91870476Y-71487714D02*
X91908571Y-71563904D01*
X91908571Y-71563904D02*
X91946666Y-71602000D01*
X91946666Y-71602000D02*
X92022857Y-71640095D01*
X92022857Y-71640095D02*
X92175238Y-71640095D01*
X92175238Y-71640095D02*
X92251428Y-71602000D01*
X92251428Y-71602000D02*
X92289523Y-71563904D01*
X92289523Y-71563904D02*
X92327619Y-71487714D01*
X92327619Y-71487714D02*
X92327619Y-70840095D01*
X92632380Y-70840095D02*
X93127618Y-70840095D01*
X93127618Y-70840095D02*
X92860952Y-71144857D01*
X92860952Y-71144857D02*
X92975237Y-71144857D01*
X92975237Y-71144857D02*
X93051428Y-71182952D01*
X93051428Y-71182952D02*
X93089523Y-71221047D01*
X93089523Y-71221047D02*
X93127618Y-71297238D01*
X93127618Y-71297238D02*
X93127618Y-71487714D01*
X93127618Y-71487714D02*
X93089523Y-71563904D01*
X93089523Y-71563904D02*
X93051428Y-71602000D01*
X93051428Y-71602000D02*
X92975237Y-71640095D01*
X92975237Y-71640095D02*
X92746666Y-71640095D01*
X92746666Y-71640095D02*
X92670475Y-71602000D01*
X92670475Y-71602000D02*
X92632380Y-71563904D01*
%TO.C,R3*%
X123770095Y-72908332D02*
X123389142Y-73174999D01*
X123770095Y-73365475D02*
X122970095Y-73365475D01*
X122970095Y-73365475D02*
X122970095Y-73060713D01*
X122970095Y-73060713D02*
X123008190Y-72984523D01*
X123008190Y-72984523D02*
X123046285Y-72946428D01*
X123046285Y-72946428D02*
X123122476Y-72908332D01*
X123122476Y-72908332D02*
X123236761Y-72908332D01*
X123236761Y-72908332D02*
X123312952Y-72946428D01*
X123312952Y-72946428D02*
X123351047Y-72984523D01*
X123351047Y-72984523D02*
X123389142Y-73060713D01*
X123389142Y-73060713D02*
X123389142Y-73365475D01*
X122970095Y-72641666D02*
X122970095Y-72146428D01*
X122970095Y-72146428D02*
X123274857Y-72413094D01*
X123274857Y-72413094D02*
X123274857Y-72298809D01*
X123274857Y-72298809D02*
X123312952Y-72222618D01*
X123312952Y-72222618D02*
X123351047Y-72184523D01*
X123351047Y-72184523D02*
X123427238Y-72146428D01*
X123427238Y-72146428D02*
X123617714Y-72146428D01*
X123617714Y-72146428D02*
X123693904Y-72184523D01*
X123693904Y-72184523D02*
X123732000Y-72222618D01*
X123732000Y-72222618D02*
X123770095Y-72298809D01*
X123770095Y-72298809D02*
X123770095Y-72527380D01*
X123770095Y-72527380D02*
X123732000Y-72603571D01*
X123732000Y-72603571D02*
X123693904Y-72641666D01*
%TO.C,R2*%
X116815667Y-72325095D02*
X116549000Y-71944142D01*
X116358524Y-72325095D02*
X116358524Y-71525095D01*
X116358524Y-71525095D02*
X116663286Y-71525095D01*
X116663286Y-71525095D02*
X116739476Y-71563190D01*
X116739476Y-71563190D02*
X116777571Y-71601285D01*
X116777571Y-71601285D02*
X116815667Y-71677476D01*
X116815667Y-71677476D02*
X116815667Y-71791761D01*
X116815667Y-71791761D02*
X116777571Y-71867952D01*
X116777571Y-71867952D02*
X116739476Y-71906047D01*
X116739476Y-71906047D02*
X116663286Y-71944142D01*
X116663286Y-71944142D02*
X116358524Y-71944142D01*
X117120428Y-71601285D02*
X117158524Y-71563190D01*
X117158524Y-71563190D02*
X117234714Y-71525095D01*
X117234714Y-71525095D02*
X117425190Y-71525095D01*
X117425190Y-71525095D02*
X117501381Y-71563190D01*
X117501381Y-71563190D02*
X117539476Y-71601285D01*
X117539476Y-71601285D02*
X117577571Y-71677476D01*
X117577571Y-71677476D02*
X117577571Y-71753666D01*
X117577571Y-71753666D02*
X117539476Y-71867952D01*
X117539476Y-71867952D02*
X117082333Y-72325095D01*
X117082333Y-72325095D02*
X117577571Y-72325095D01*
%TO.C,C8*%
X90146667Y-73993904D02*
X90108571Y-74032000D01*
X90108571Y-74032000D02*
X89994286Y-74070095D01*
X89994286Y-74070095D02*
X89918095Y-74070095D01*
X89918095Y-74070095D02*
X89803809Y-74032000D01*
X89803809Y-74032000D02*
X89727619Y-73955809D01*
X89727619Y-73955809D02*
X89689524Y-73879619D01*
X89689524Y-73879619D02*
X89651428Y-73727238D01*
X89651428Y-73727238D02*
X89651428Y-73612952D01*
X89651428Y-73612952D02*
X89689524Y-73460571D01*
X89689524Y-73460571D02*
X89727619Y-73384380D01*
X89727619Y-73384380D02*
X89803809Y-73308190D01*
X89803809Y-73308190D02*
X89918095Y-73270095D01*
X89918095Y-73270095D02*
X89994286Y-73270095D01*
X89994286Y-73270095D02*
X90108571Y-73308190D01*
X90108571Y-73308190D02*
X90146667Y-73346285D01*
X90603809Y-73612952D02*
X90527619Y-73574857D01*
X90527619Y-73574857D02*
X90489524Y-73536761D01*
X90489524Y-73536761D02*
X90451428Y-73460571D01*
X90451428Y-73460571D02*
X90451428Y-73422476D01*
X90451428Y-73422476D02*
X90489524Y-73346285D01*
X90489524Y-73346285D02*
X90527619Y-73308190D01*
X90527619Y-73308190D02*
X90603809Y-73270095D01*
X90603809Y-73270095D02*
X90756190Y-73270095D01*
X90756190Y-73270095D02*
X90832381Y-73308190D01*
X90832381Y-73308190D02*
X90870476Y-73346285D01*
X90870476Y-73346285D02*
X90908571Y-73422476D01*
X90908571Y-73422476D02*
X90908571Y-73460571D01*
X90908571Y-73460571D02*
X90870476Y-73536761D01*
X90870476Y-73536761D02*
X90832381Y-73574857D01*
X90832381Y-73574857D02*
X90756190Y-73612952D01*
X90756190Y-73612952D02*
X90603809Y-73612952D01*
X90603809Y-73612952D02*
X90527619Y-73651047D01*
X90527619Y-73651047D02*
X90489524Y-73689142D01*
X90489524Y-73689142D02*
X90451428Y-73765333D01*
X90451428Y-73765333D02*
X90451428Y-73917714D01*
X90451428Y-73917714D02*
X90489524Y-73993904D01*
X90489524Y-73993904D02*
X90527619Y-74032000D01*
X90527619Y-74032000D02*
X90603809Y-74070095D01*
X90603809Y-74070095D02*
X90756190Y-74070095D01*
X90756190Y-74070095D02*
X90832381Y-74032000D01*
X90832381Y-74032000D02*
X90870476Y-73993904D01*
X90870476Y-73993904D02*
X90908571Y-73917714D01*
X90908571Y-73917714D02*
X90908571Y-73765333D01*
X90908571Y-73765333D02*
X90870476Y-73689142D01*
X90870476Y-73689142D02*
X90832381Y-73651047D01*
X90832381Y-73651047D02*
X90756190Y-73612952D01*
%TO.C,C3*%
X98356667Y-67713904D02*
X98318571Y-67752000D01*
X98318571Y-67752000D02*
X98204286Y-67790095D01*
X98204286Y-67790095D02*
X98128095Y-67790095D01*
X98128095Y-67790095D02*
X98013809Y-67752000D01*
X98013809Y-67752000D02*
X97937619Y-67675809D01*
X97937619Y-67675809D02*
X97899524Y-67599619D01*
X97899524Y-67599619D02*
X97861428Y-67447238D01*
X97861428Y-67447238D02*
X97861428Y-67332952D01*
X97861428Y-67332952D02*
X97899524Y-67180571D01*
X97899524Y-67180571D02*
X97937619Y-67104380D01*
X97937619Y-67104380D02*
X98013809Y-67028190D01*
X98013809Y-67028190D02*
X98128095Y-66990095D01*
X98128095Y-66990095D02*
X98204286Y-66990095D01*
X98204286Y-66990095D02*
X98318571Y-67028190D01*
X98318571Y-67028190D02*
X98356667Y-67066285D01*
X98623333Y-66990095D02*
X99118571Y-66990095D01*
X99118571Y-66990095D02*
X98851905Y-67294857D01*
X98851905Y-67294857D02*
X98966190Y-67294857D01*
X98966190Y-67294857D02*
X99042381Y-67332952D01*
X99042381Y-67332952D02*
X99080476Y-67371047D01*
X99080476Y-67371047D02*
X99118571Y-67447238D01*
X99118571Y-67447238D02*
X99118571Y-67637714D01*
X99118571Y-67637714D02*
X99080476Y-67713904D01*
X99080476Y-67713904D02*
X99042381Y-67752000D01*
X99042381Y-67752000D02*
X98966190Y-67790095D01*
X98966190Y-67790095D02*
X98737619Y-67790095D01*
X98737619Y-67790095D02*
X98661428Y-67752000D01*
X98661428Y-67752000D02*
X98623333Y-67713904D01*
%TO.C,J2*%
X119348333Y-65995095D02*
X119348333Y-66566523D01*
X119348333Y-66566523D02*
X119310238Y-66680809D01*
X119310238Y-66680809D02*
X119234047Y-66757000D01*
X119234047Y-66757000D02*
X119119762Y-66795095D01*
X119119762Y-66795095D02*
X119043571Y-66795095D01*
X119691190Y-66071285D02*
X119729286Y-66033190D01*
X119729286Y-66033190D02*
X119805476Y-65995095D01*
X119805476Y-65995095D02*
X119995952Y-65995095D01*
X119995952Y-65995095D02*
X120072143Y-66033190D01*
X120072143Y-66033190D02*
X120110238Y-66071285D01*
X120110238Y-66071285D02*
X120148333Y-66147476D01*
X120148333Y-66147476D02*
X120148333Y-66223666D01*
X120148333Y-66223666D02*
X120110238Y-66337952D01*
X120110238Y-66337952D02*
X119653095Y-66795095D01*
X119653095Y-66795095D02*
X120148333Y-66795095D01*
%TO.C,U2*%
X92530476Y-65340095D02*
X92530476Y-65987714D01*
X92530476Y-65987714D02*
X92568571Y-66063904D01*
X92568571Y-66063904D02*
X92606666Y-66102000D01*
X92606666Y-66102000D02*
X92682857Y-66140095D01*
X92682857Y-66140095D02*
X92835238Y-66140095D01*
X92835238Y-66140095D02*
X92911428Y-66102000D01*
X92911428Y-66102000D02*
X92949523Y-66063904D01*
X92949523Y-66063904D02*
X92987619Y-65987714D01*
X92987619Y-65987714D02*
X92987619Y-65340095D01*
X93330475Y-65416285D02*
X93368571Y-65378190D01*
X93368571Y-65378190D02*
X93444761Y-65340095D01*
X93444761Y-65340095D02*
X93635237Y-65340095D01*
X93635237Y-65340095D02*
X93711428Y-65378190D01*
X93711428Y-65378190D02*
X93749523Y-65416285D01*
X93749523Y-65416285D02*
X93787618Y-65492476D01*
X93787618Y-65492476D02*
X93787618Y-65568666D01*
X93787618Y-65568666D02*
X93749523Y-65682952D01*
X93749523Y-65682952D02*
X93292380Y-66140095D01*
X93292380Y-66140095D02*
X93787618Y-66140095D01*
D11*
%TO.C,C6*%
X95880000Y-67659420D02*
X95880000Y-67940580D01*
X94860000Y-67659420D02*
X94860000Y-67940580D01*
%TO.C,L1*%
X114380000Y-67490000D02*
X114780000Y-67490000D01*
X114380000Y-69290000D02*
X114780000Y-69290000D01*
%TO.C,R4*%
X124710000Y-67071359D02*
X124710000Y-67378641D01*
X123950000Y-67071359D02*
X123950000Y-67378641D01*
%TO.C,C1*%
X114359420Y-71240000D02*
X114640580Y-71240000D01*
X114359420Y-72260000D02*
X114640580Y-72260000D01*
%TO.C,R1*%
X113796359Y-72620000D02*
X114103641Y-72620000D01*
X113796359Y-73380000D02*
X114103641Y-73380000D01*
%TO.C,C5*%
X111320580Y-67600000D02*
X111039420Y-67600000D01*
X111320580Y-66580000D02*
X111039420Y-66580000D01*
%TO.C,D1*%
X125900000Y-71975000D02*
X125900000Y-72125000D01*
X125600000Y-71975000D02*
X125900000Y-71975000D01*
X125900000Y-72125000D02*
X125900000Y-73425000D01*
X125600000Y-72125000D02*
X125600000Y-71975000D01*
X125600000Y-72125000D02*
X125900000Y-72125000D01*
X125100000Y-72625000D02*
X125100000Y-72925000D01*
X125900000Y-73425000D02*
X125600000Y-73425000D01*
%TO.C,D4*%
X125900000Y-66425000D02*
X125900000Y-66575000D01*
X125600000Y-66425000D02*
X125900000Y-66425000D01*
X125900000Y-66575000D02*
X125900000Y-67875000D01*
X125600000Y-66575000D02*
X125600000Y-66425000D01*
X125600000Y-66575000D02*
X125900000Y-66575000D01*
X125100000Y-67075000D02*
X125100000Y-67375000D01*
X125900000Y-67875000D02*
X125600000Y-67875000D01*
D10*
%TO.C,U1*%
X107125000Y-67955000D02*
X107125000Y-68155000D01*
X107125000Y-67955000D02*
X111275000Y-67955000D01*
X107125000Y-73105000D02*
X107125000Y-72905000D01*
X107125000Y-73105000D02*
X111275000Y-73105000D01*
X111275000Y-67955000D02*
X111275000Y-68155000D01*
X111275000Y-73105000D02*
X111275000Y-72905000D01*
D12*
X106892500Y-68030000D02*
G75*
G03*
X106892500Y-68030000I-67500J0D01*
G01*
D11*
%TO.C,SW1*%
X76080000Y-73870000D02*
X79930000Y-73870000D01*
X82570000Y-73870000D02*
X82870000Y-73870000D01*
X82870000Y-72980000D02*
X82870000Y-73870000D01*
X82870000Y-72980000D02*
X82520000Y-72980000D01*
X80320000Y-72490000D02*
X80320000Y-67510000D01*
X82870000Y-67020000D02*
X82520000Y-67020000D01*
X76080000Y-66130000D02*
X76080000Y-73870000D01*
X79930000Y-66130000D02*
X76080000Y-66130000D01*
X82570000Y-66130000D02*
X82870000Y-66130000D01*
X82870000Y-66130000D02*
X82870000Y-67020000D01*
%TO.C,C4*%
X116240000Y-69640580D02*
X116240000Y-69359420D01*
X117260000Y-69640580D02*
X117260000Y-69359420D01*
%TO.C,L2*%
X91390000Y-67520000D02*
X91390000Y-67920000D01*
X89590000Y-67520000D02*
X89590000Y-67920000D01*
%TO.C,C2*%
X107084420Y-66580000D02*
X107365580Y-66580000D01*
X107084420Y-67600000D02*
X107365580Y-67600000D01*
%TO.C,D3*%
X125900000Y-68275000D02*
X125900000Y-68425000D01*
X125600000Y-68275000D02*
X125900000Y-68275000D01*
X125900000Y-68425000D02*
X125900000Y-69725000D01*
X125600000Y-68425000D02*
X125600000Y-68275000D01*
X125600000Y-68425000D02*
X125900000Y-68425000D01*
X125100000Y-68925000D02*
X125100000Y-69225000D01*
X125900000Y-69725000D02*
X125600000Y-69725000D01*
%TO.C,J1*%
X96140000Y-76360000D02*
X96140000Y-74750000D01*
X96140000Y-76360000D02*
X103860000Y-76360000D01*
X98200000Y-70540000D02*
X98200000Y-69950000D01*
X103860000Y-76360000D02*
X103860000Y-74750000D01*
%TO.C,C7*%
X92979420Y-69040000D02*
X93260580Y-69040000D01*
X92979420Y-70060000D02*
X93260580Y-70060000D01*
%TO.C,D2*%
X125900000Y-70125000D02*
X125900000Y-70275000D01*
X125600000Y-70125000D02*
X125900000Y-70125000D01*
X125900000Y-70275000D02*
X125900000Y-71575000D01*
X125600000Y-70275000D02*
X125600000Y-70125000D01*
X125600000Y-70275000D02*
X125900000Y-70275000D01*
X125100000Y-70775000D02*
X125100000Y-71075000D01*
X125900000Y-71575000D02*
X125600000Y-71575000D01*
%TO.C,U3*%
X89265000Y-71515000D02*
X89490000Y-71515000D01*
X89265000Y-71515000D02*
X89265000Y-69265000D01*
X91515000Y-71515000D02*
X91290000Y-71515000D01*
X91515000Y-71515000D02*
X91515000Y-69265000D01*
X89490000Y-69265000D02*
X89265000Y-69265000D01*
X91515000Y-69265000D02*
X91290000Y-69265000D01*
D13*
X89455355Y-71744289D02*
G75*
G03*
X89455355Y-71744289I-65355J0D01*
G01*
D11*
%TO.C,R3*%
X123950000Y-72928641D02*
X123950000Y-72621359D01*
X124710000Y-72928641D02*
X124710000Y-72621359D01*
%TO.C,R2*%
X114211742Y-69752500D02*
X114686258Y-69752500D01*
X114211742Y-70797500D02*
X114686258Y-70797500D01*
%TO.C,C8*%
X90249420Y-71930000D02*
X90530580Y-71930000D01*
X90249420Y-72950000D02*
X90530580Y-72950000D01*
%TO.C,C3*%
X98630580Y-69090000D02*
X98349420Y-69090000D01*
X98630580Y-68070000D02*
X98349420Y-68070000D01*
%TO.C,U2*%
X94265000Y-68695000D02*
X94265000Y-68470000D01*
X94265000Y-68695000D02*
X92015000Y-68695000D01*
X94265000Y-66445000D02*
X94265000Y-66670000D01*
X94265000Y-66445000D02*
X92015000Y-66445000D01*
X92015000Y-68695000D02*
X92015000Y-68470000D01*
X92015000Y-66445000D02*
X92015000Y-66670000D01*
D13*
X94601066Y-68595000D02*
G75*
G03*
X94601066Y-68595000I-65355J0D01*
G01*
%TD*%
%LPC*%
D14*
%TO.C,C6*%
X95370000Y-67025000D03*
X95370000Y-68575000D03*
%TD*%
D15*
%TO.C,H1*%
X84000000Y-70000000D03*
%TD*%
D16*
%TO.C,L1*%
X113905000Y-68390000D03*
X115255000Y-68390000D03*
%TD*%
D17*
%TO.C,R4*%
X124330000Y-66715000D03*
X124330000Y-67735000D03*
%TD*%
D18*
%TO.C,C1*%
X113725000Y-71750000D03*
X115275000Y-71750000D03*
%TD*%
D15*
%TO.C,H2*%
X121000000Y-70000000D03*
%TD*%
D19*
%TO.C,R1*%
X113440000Y-73000000D03*
X114460000Y-73000000D03*
%TD*%
D20*
%TO.C,J3*%
X87500000Y-71275000D03*
D21*
X87500000Y-68735000D03*
%TD*%
D22*
%TO.C,C5*%
X111955000Y-67090000D03*
X110405000Y-67090000D03*
%TD*%
D23*
%TO.C,D1*%
X125250000Y-72275000D03*
X125250000Y-73275000D03*
%TD*%
%TO.C,D4*%
X125250000Y-66725000D03*
X125250000Y-67725000D03*
%TD*%
D24*
%TO.C,U1*%
X106450000Y-68625000D03*
X106450000Y-69895000D03*
X106450000Y-71165000D03*
X106450000Y-72435000D03*
X111950000Y-72435000D03*
X111950000Y-71165000D03*
X111950000Y-69895000D03*
X111950000Y-68625000D03*
D25*
X109200000Y-70530000D03*
%TD*%
D26*
%TO.C,SW1*%
X78750000Y-72250000D03*
X78750000Y-67750000D03*
D27*
X81250000Y-73500000D03*
X81250000Y-66500000D03*
%TD*%
D28*
%TO.C,C4*%
X116750000Y-70275000D03*
X116750000Y-68725000D03*
%TD*%
D29*
%TO.C,L2*%
X90490000Y-67045000D03*
X90490000Y-68395000D03*
%TD*%
D18*
%TO.C,C2*%
X106450000Y-67090000D03*
X108000000Y-67090000D03*
%TD*%
D23*
%TO.C,D3*%
X125250000Y-68575000D03*
X125250000Y-69575000D03*
%TD*%
D30*
%TO.C,J1*%
X98700000Y-70825000D03*
X99350000Y-70825000D03*
X100000000Y-70825000D03*
X100650000Y-70825000D03*
X101300000Y-70825000D03*
D31*
X96200000Y-73500000D03*
D32*
X96900000Y-70950000D03*
D33*
X98800000Y-73500000D03*
X101200000Y-73500000D03*
D32*
X103100000Y-70950000D03*
D31*
X103800000Y-73500000D03*
%TD*%
D18*
%TO.C,C7*%
X92345000Y-69550000D03*
X93895000Y-69550000D03*
%TD*%
D23*
%TO.C,D2*%
X125250000Y-70425000D03*
X125250000Y-71425000D03*
%TD*%
D34*
%TO.C,U3*%
X89740000Y-71365000D03*
X90390000Y-71365000D03*
X91040000Y-71365000D03*
X91040000Y-69415000D03*
X90390000Y-69415000D03*
X89740000Y-69415000D03*
D35*
X90390000Y-70390000D03*
%TD*%
D36*
%TO.C,R3*%
X124330000Y-73285000D03*
X124330000Y-72265000D03*
%TD*%
D37*
%TO.C,R2*%
X113624000Y-70275000D03*
X115274000Y-70275000D03*
%TD*%
D18*
%TO.C,C8*%
X89615000Y-72440000D03*
X91165000Y-72440000D03*
%TD*%
D22*
%TO.C,C3*%
X99265000Y-68580000D03*
X97715000Y-68580000D03*
%TD*%
D20*
%TO.C,J2*%
X115285000Y-66160000D03*
D21*
X117825000Y-66160000D03*
%TD*%
D38*
%TO.C,U2*%
X94140000Y-68220000D03*
X94140000Y-67570000D03*
X94140000Y-66920000D03*
X92140000Y-66920000D03*
X92140000Y-67570000D03*
X92140000Y-68220000D03*
D39*
X93140000Y-67570000D03*
%TD*%
M02*
