%TF.GenerationSoftware,KiCad,Pcbnew,7.0.1*%
%TF.CreationDate,2023-03-15T21:10:10-04:00*%
%TF.ProjectId,ctm_battery c,63746d5f-6261-4747-9465-727920632e6b,1.0.0*%
%TF.SameCoordinates,PX49e8e60PY47868c0*%
%TF.FileFunction,Legend,Bot*%
%TF.FilePolarity,Positive*%
%FSLAX46Y46*%
G04 Gerber Fmt 4.6, Leading zero omitted, Abs format (unit mm)*
G04 Created by KiCad (PCBNEW 7.0.1) date 2023-03-15 21:10:10*
%MOMM*%
%LPD*%
G01*
G04 APERTURE LIST*
%ADD10C,0.120000*%
%ADD11C,0.150000*%
%ADD12C,0.000000*%
%ADD13C,3.200000*%
%ADD14R,1.700000X1.700000*%
%ADD15O,1.700000X1.700000*%
%ADD16C,1.700000*%
%ADD17C,2.200000*%
G04 APERTURE END LIST*
D10*
X19750000Y7750000D02*
X19750000Y9750000D01*
X36120000Y9340000D02*
X36120000Y8340000D01*
X19750000Y2250000D02*
X25250000Y7750000D01*
X20750000Y7750000D02*
X21250000Y7750000D01*
X11750000Y3500000D02*
X11750000Y2500000D01*
X11750000Y6500000D02*
X11750000Y7500000D01*
X10000000Y5300000D02*
X10000000Y4700000D01*
X36620000Y8840000D02*
X35620000Y8840000D01*
X21750000Y7750000D02*
X22250000Y7750000D01*
X24750000Y7750000D02*
X25250000Y7750000D01*
X10000000Y7750000D02*
X10000000Y7200000D01*
X10000000Y7750000D02*
X19750000Y7750000D01*
X22750000Y7750000D02*
X23250000Y7750000D01*
X22750000Y6250000D02*
X23060000Y6410000D01*
X22750000Y4250000D02*
G75*
G03*
X22750000Y6250000I0J1000000D01*
G01*
X10000000Y2800000D02*
X10000000Y2250000D01*
X23750000Y7750000D02*
X24250000Y7750000D01*
X11250000Y3000000D02*
X12250000Y3000000D01*
X42430000Y8840000D02*
X41430000Y8840000D01*
X19750000Y7750000D02*
X20250000Y7750000D01*
X25250000Y7750000D02*
X25250000Y9750000D01*
X22750000Y6250000D02*
X23000000Y6000000D01*
X10000000Y2250000D02*
X19750000Y2250000D01*
X19750000Y7750000D02*
X19750000Y2250000D01*
D11*
X44167144Y6902620D02*
X44214763Y6855000D01*
X44214763Y6855000D02*
X44357620Y6807381D01*
X44357620Y6807381D02*
X44452858Y6807381D01*
X44452858Y6807381D02*
X44595715Y6855000D01*
X44595715Y6855000D02*
X44690953Y6950239D01*
X44690953Y6950239D02*
X44738572Y7045477D01*
X44738572Y7045477D02*
X44786191Y7235953D01*
X44786191Y7235953D02*
X44786191Y7378810D01*
X44786191Y7378810D02*
X44738572Y7569286D01*
X44738572Y7569286D02*
X44690953Y7664524D01*
X44690953Y7664524D02*
X44595715Y7759762D01*
X44595715Y7759762D02*
X44452858Y7807381D01*
X44452858Y7807381D02*
X44357620Y7807381D01*
X44357620Y7807381D02*
X44214763Y7759762D01*
X44214763Y7759762D02*
X44167144Y7712143D01*
X43881429Y7807381D02*
X43310001Y7807381D01*
X43595715Y6807381D02*
X43595715Y7807381D01*
X42976667Y6807381D02*
X42976667Y7807381D01*
X42976667Y7807381D02*
X42643334Y7093096D01*
X42643334Y7093096D02*
X42310001Y7807381D01*
X42310001Y7807381D02*
X42310001Y6807381D01*
X40738572Y7331191D02*
X40595715Y7283572D01*
X40595715Y7283572D02*
X40548096Y7235953D01*
X40548096Y7235953D02*
X40500477Y7140715D01*
X40500477Y7140715D02*
X40500477Y6997858D01*
X40500477Y6997858D02*
X40548096Y6902620D01*
X40548096Y6902620D02*
X40595715Y6855000D01*
X40595715Y6855000D02*
X40690953Y6807381D01*
X40690953Y6807381D02*
X41071905Y6807381D01*
X41071905Y6807381D02*
X41071905Y7807381D01*
X41071905Y7807381D02*
X40738572Y7807381D01*
X40738572Y7807381D02*
X40643334Y7759762D01*
X40643334Y7759762D02*
X40595715Y7712143D01*
X40595715Y7712143D02*
X40548096Y7616905D01*
X40548096Y7616905D02*
X40548096Y7521667D01*
X40548096Y7521667D02*
X40595715Y7426429D01*
X40595715Y7426429D02*
X40643334Y7378810D01*
X40643334Y7378810D02*
X40738572Y7331191D01*
X40738572Y7331191D02*
X41071905Y7331191D01*
X39643334Y6807381D02*
X39643334Y7331191D01*
X39643334Y7331191D02*
X39690953Y7426429D01*
X39690953Y7426429D02*
X39786191Y7474048D01*
X39786191Y7474048D02*
X39976667Y7474048D01*
X39976667Y7474048D02*
X40071905Y7426429D01*
X39643334Y6855000D02*
X39738572Y6807381D01*
X39738572Y6807381D02*
X39976667Y6807381D01*
X39976667Y6807381D02*
X40071905Y6855000D01*
X40071905Y6855000D02*
X40119524Y6950239D01*
X40119524Y6950239D02*
X40119524Y7045477D01*
X40119524Y7045477D02*
X40071905Y7140715D01*
X40071905Y7140715D02*
X39976667Y7188334D01*
X39976667Y7188334D02*
X39738572Y7188334D01*
X39738572Y7188334D02*
X39643334Y7235953D01*
X39310000Y7474048D02*
X38929048Y7474048D01*
X39167143Y7807381D02*
X39167143Y6950239D01*
X39167143Y6950239D02*
X39119524Y6855000D01*
X39119524Y6855000D02*
X39024286Y6807381D01*
X39024286Y6807381D02*
X38929048Y6807381D01*
X38738571Y7474048D02*
X38357619Y7474048D01*
X38595714Y7807381D02*
X38595714Y6950239D01*
X38595714Y6950239D02*
X38548095Y6855000D01*
X38548095Y6855000D02*
X38452857Y6807381D01*
X38452857Y6807381D02*
X38357619Y6807381D01*
X37643333Y6855000D02*
X37738571Y6807381D01*
X37738571Y6807381D02*
X37929047Y6807381D01*
X37929047Y6807381D02*
X38024285Y6855000D01*
X38024285Y6855000D02*
X38071904Y6950239D01*
X38071904Y6950239D02*
X38071904Y7331191D01*
X38071904Y7331191D02*
X38024285Y7426429D01*
X38024285Y7426429D02*
X37929047Y7474048D01*
X37929047Y7474048D02*
X37738571Y7474048D01*
X37738571Y7474048D02*
X37643333Y7426429D01*
X37643333Y7426429D02*
X37595714Y7331191D01*
X37595714Y7331191D02*
X37595714Y7235953D01*
X37595714Y7235953D02*
X38071904Y7140715D01*
X37167142Y6807381D02*
X37167142Y7474048D01*
X37167142Y7283572D02*
X37119523Y7378810D01*
X37119523Y7378810D02*
X37071904Y7426429D01*
X37071904Y7426429D02*
X36976666Y7474048D01*
X36976666Y7474048D02*
X36881428Y7474048D01*
X36643332Y7474048D02*
X36405237Y6807381D01*
X36167142Y7474048D02*
X36405237Y6807381D01*
X36405237Y6807381D02*
X36500475Y6569286D01*
X36500475Y6569286D02*
X36548094Y6521667D01*
X36548094Y6521667D02*
X36643332Y6474048D01*
X35071903Y7093096D02*
X34595713Y7093096D01*
X35167141Y6807381D02*
X34833808Y7807381D01*
X34833808Y7807381D02*
X34500475Y6807381D01*
X33738570Y6807381D02*
X33738570Y7807381D01*
X33738570Y6855000D02*
X33833808Y6807381D01*
X33833808Y6807381D02*
X34024284Y6807381D01*
X34024284Y6807381D02*
X34119522Y6855000D01*
X34119522Y6855000D02*
X34167141Y6902620D01*
X34167141Y6902620D02*
X34214760Y6997858D01*
X34214760Y6997858D02*
X34214760Y7283572D01*
X34214760Y7283572D02*
X34167141Y7378810D01*
X34167141Y7378810D02*
X34119522Y7426429D01*
X34119522Y7426429D02*
X34024284Y7474048D01*
X34024284Y7474048D02*
X33833808Y7474048D01*
X33833808Y7474048D02*
X33738570Y7426429D01*
X32833808Y6807381D02*
X32833808Y7331191D01*
X32833808Y7331191D02*
X32881427Y7426429D01*
X32881427Y7426429D02*
X32976665Y7474048D01*
X32976665Y7474048D02*
X33167141Y7474048D01*
X33167141Y7474048D02*
X33262379Y7426429D01*
X32833808Y6855000D02*
X32929046Y6807381D01*
X32929046Y6807381D02*
X33167141Y6807381D01*
X33167141Y6807381D02*
X33262379Y6855000D01*
X33262379Y6855000D02*
X33309998Y6950239D01*
X33309998Y6950239D02*
X33309998Y7045477D01*
X33309998Y7045477D02*
X33262379Y7140715D01*
X33262379Y7140715D02*
X33167141Y7188334D01*
X33167141Y7188334D02*
X32929046Y7188334D01*
X32929046Y7188334D02*
X32833808Y7235953D01*
X32357617Y7474048D02*
X32357617Y6474048D01*
X32357617Y7426429D02*
X32262379Y7474048D01*
X32262379Y7474048D02*
X32071903Y7474048D01*
X32071903Y7474048D02*
X31976665Y7426429D01*
X31976665Y7426429D02*
X31929046Y7378810D01*
X31929046Y7378810D02*
X31881427Y7283572D01*
X31881427Y7283572D02*
X31881427Y6997858D01*
X31881427Y6997858D02*
X31929046Y6902620D01*
X31929046Y6902620D02*
X31976665Y6855000D01*
X31976665Y6855000D02*
X32071903Y6807381D01*
X32071903Y6807381D02*
X32262379Y6807381D01*
X32262379Y6807381D02*
X32357617Y6855000D01*
X31595712Y7474048D02*
X31214760Y7474048D01*
X31452855Y7807381D02*
X31452855Y6950239D01*
X31452855Y6950239D02*
X31405236Y6855000D01*
X31405236Y6855000D02*
X31309998Y6807381D01*
X31309998Y6807381D02*
X31214760Y6807381D01*
X30500474Y6855000D02*
X30595712Y6807381D01*
X30595712Y6807381D02*
X30786188Y6807381D01*
X30786188Y6807381D02*
X30881426Y6855000D01*
X30881426Y6855000D02*
X30929045Y6950239D01*
X30929045Y6950239D02*
X30929045Y7331191D01*
X30929045Y7331191D02*
X30881426Y7426429D01*
X30881426Y7426429D02*
X30786188Y7474048D01*
X30786188Y7474048D02*
X30595712Y7474048D01*
X30595712Y7474048D02*
X30500474Y7426429D01*
X30500474Y7426429D02*
X30452855Y7331191D01*
X30452855Y7331191D02*
X30452855Y7235953D01*
X30452855Y7235953D02*
X30929045Y7140715D01*
X30024283Y6807381D02*
X30024283Y7474048D01*
X30024283Y7283572D02*
X29976664Y7378810D01*
X29976664Y7378810D02*
X29929045Y7426429D01*
X29929045Y7426429D02*
X29833807Y7474048D01*
X29833807Y7474048D02*
X29738569Y7474048D01*
X39881427Y5854048D02*
X39643332Y5187381D01*
X39643332Y5187381D02*
X39405237Y5854048D01*
X38500475Y5187381D02*
X39071903Y5187381D01*
X38786189Y5187381D02*
X38786189Y6187381D01*
X38786189Y6187381D02*
X38881427Y6044524D01*
X38881427Y6044524D02*
X38976665Y5949286D01*
X38976665Y5949286D02*
X39071903Y5901667D01*
X38071903Y5282620D02*
X38024284Y5235000D01*
X38024284Y5235000D02*
X38071903Y5187381D01*
X38071903Y5187381D02*
X38119522Y5235000D01*
X38119522Y5235000D02*
X38071903Y5282620D01*
X38071903Y5282620D02*
X38071903Y5187381D01*
X37405237Y6187381D02*
X37309999Y6187381D01*
X37309999Y6187381D02*
X37214761Y6139762D01*
X37214761Y6139762D02*
X37167142Y6092143D01*
X37167142Y6092143D02*
X37119523Y5996905D01*
X37119523Y5996905D02*
X37071904Y5806429D01*
X37071904Y5806429D02*
X37071904Y5568334D01*
X37071904Y5568334D02*
X37119523Y5377858D01*
X37119523Y5377858D02*
X37167142Y5282620D01*
X37167142Y5282620D02*
X37214761Y5235000D01*
X37214761Y5235000D02*
X37309999Y5187381D01*
X37309999Y5187381D02*
X37405237Y5187381D01*
X37405237Y5187381D02*
X37500475Y5235000D01*
X37500475Y5235000D02*
X37548094Y5282620D01*
X37548094Y5282620D02*
X37595713Y5377858D01*
X37595713Y5377858D02*
X37643332Y5568334D01*
X37643332Y5568334D02*
X37643332Y5806429D01*
X37643332Y5806429D02*
X37595713Y5996905D01*
X37595713Y5996905D02*
X37548094Y6092143D01*
X37548094Y6092143D02*
X37500475Y6139762D01*
X37500475Y6139762D02*
X37405237Y6187381D01*
X36643332Y5282620D02*
X36595713Y5235000D01*
X36595713Y5235000D02*
X36643332Y5187381D01*
X36643332Y5187381D02*
X36690951Y5235000D01*
X36690951Y5235000D02*
X36643332Y5282620D01*
X36643332Y5282620D02*
X36643332Y5187381D01*
X35976666Y6187381D02*
X35881428Y6187381D01*
X35881428Y6187381D02*
X35786190Y6139762D01*
X35786190Y6139762D02*
X35738571Y6092143D01*
X35738571Y6092143D02*
X35690952Y5996905D01*
X35690952Y5996905D02*
X35643333Y5806429D01*
X35643333Y5806429D02*
X35643333Y5568334D01*
X35643333Y5568334D02*
X35690952Y5377858D01*
X35690952Y5377858D02*
X35738571Y5282620D01*
X35738571Y5282620D02*
X35786190Y5235000D01*
X35786190Y5235000D02*
X35881428Y5187381D01*
X35881428Y5187381D02*
X35976666Y5187381D01*
X35976666Y5187381D02*
X36071904Y5235000D01*
X36071904Y5235000D02*
X36119523Y5282620D01*
X36119523Y5282620D02*
X36167142Y5377858D01*
X36167142Y5377858D02*
X36214761Y5568334D01*
X36214761Y5568334D02*
X36214761Y5806429D01*
X36214761Y5806429D02*
X36167142Y5996905D01*
X36167142Y5996905D02*
X36119523Y6092143D01*
X36119523Y6092143D02*
X36071904Y6139762D01*
X36071904Y6139762D02*
X35976666Y6187381D01*
X34786190Y5235000D02*
X34881428Y5187381D01*
X34881428Y5187381D02*
X35071904Y5187381D01*
X35071904Y5187381D02*
X35167142Y5235000D01*
X35167142Y5235000D02*
X35214761Y5282620D01*
X35214761Y5282620D02*
X35262380Y5377858D01*
X35262380Y5377858D02*
X35262380Y5663572D01*
X35262380Y5663572D02*
X35214761Y5758810D01*
X35214761Y5758810D02*
X35167142Y5806429D01*
X35167142Y5806429D02*
X35071904Y5854048D01*
X35071904Y5854048D02*
X34881428Y5854048D01*
X34881428Y5854048D02*
X34786190Y5806429D01*
X40595713Y4567381D02*
X39976666Y4567381D01*
X39976666Y4567381D02*
X40309999Y4186429D01*
X40309999Y4186429D02*
X40167142Y4186429D01*
X40167142Y4186429D02*
X40071904Y4138810D01*
X40071904Y4138810D02*
X40024285Y4091191D01*
X40024285Y4091191D02*
X39976666Y3995953D01*
X39976666Y3995953D02*
X39976666Y3757858D01*
X39976666Y3757858D02*
X40024285Y3662620D01*
X40024285Y3662620D02*
X40071904Y3615000D01*
X40071904Y3615000D02*
X40167142Y3567381D01*
X40167142Y3567381D02*
X40452856Y3567381D01*
X40452856Y3567381D02*
X40548094Y3615000D01*
X40548094Y3615000D02*
X40595713Y3662620D01*
X38833809Y4615000D02*
X39690951Y3329286D01*
X37976666Y3567381D02*
X38548094Y3567381D01*
X38262380Y3567381D02*
X38262380Y4567381D01*
X38262380Y4567381D02*
X38357618Y4424524D01*
X38357618Y4424524D02*
X38452856Y4329286D01*
X38452856Y4329286D02*
X38548094Y4281667D01*
X37119523Y4234048D02*
X37119523Y3567381D01*
X37357618Y4615000D02*
X37595713Y3900715D01*
X37595713Y3900715D02*
X36976666Y3900715D01*
X35881428Y4615000D02*
X36738570Y3329286D01*
X35595713Y4472143D02*
X35548094Y4519762D01*
X35548094Y4519762D02*
X35452856Y4567381D01*
X35452856Y4567381D02*
X35214761Y4567381D01*
X35214761Y4567381D02*
X35119523Y4519762D01*
X35119523Y4519762D02*
X35071904Y4472143D01*
X35071904Y4472143D02*
X35024285Y4376905D01*
X35024285Y4376905D02*
X35024285Y4281667D01*
X35024285Y4281667D02*
X35071904Y4138810D01*
X35071904Y4138810D02*
X35643332Y3567381D01*
X35643332Y3567381D02*
X35024285Y3567381D01*
X34690951Y4567381D02*
X34071904Y4567381D01*
X34071904Y4567381D02*
X34405237Y4186429D01*
X34405237Y4186429D02*
X34262380Y4186429D01*
X34262380Y4186429D02*
X34167142Y4138810D01*
X34167142Y4138810D02*
X34119523Y4091191D01*
X34119523Y4091191D02*
X34071904Y3995953D01*
X34071904Y3995953D02*
X34071904Y3757858D01*
X34071904Y3757858D02*
X34119523Y3662620D01*
X34119523Y3662620D02*
X34167142Y3615000D01*
X34167142Y3615000D02*
X34262380Y3567381D01*
X34262380Y3567381D02*
X34548094Y3567381D01*
X34548094Y3567381D02*
X34643332Y3615000D01*
X34643332Y3615000D02*
X34690951Y3662620D01*
X15776904Y6095238D02*
X15776904Y5619048D01*
X16062619Y6190476D02*
X15062619Y5857143D01*
X15062619Y5857143D02*
X16062619Y5523810D01*
X15776904Y5238095D02*
X15776904Y4761905D01*
X16062619Y5333333D02*
X15062619Y5000000D01*
X15062619Y5000000D02*
X16062619Y4666667D01*
X15776904Y4380952D02*
X15776904Y3904762D01*
X16062619Y4476190D02*
X15062619Y4142857D01*
X15062619Y4142857D02*
X16062619Y3809524D01*
X34630952Y8337381D02*
X35107142Y8337381D01*
X35107142Y8337381D02*
X35107142Y9337381D01*
X34297618Y8337381D02*
X34297618Y9004048D01*
X34297618Y9337381D02*
X34345237Y9289762D01*
X34345237Y9289762D02*
X34297618Y9242143D01*
X34297618Y9242143D02*
X34249999Y9289762D01*
X34249999Y9289762D02*
X34297618Y9337381D01*
X34297618Y9337381D02*
X34297618Y9242143D01*
X33821428Y8337381D02*
X33821428Y9337381D01*
X33821428Y9337381D02*
X33440476Y9337381D01*
X33440476Y9337381D02*
X33345238Y9289762D01*
X33345238Y9289762D02*
X33297619Y9242143D01*
X33297619Y9242143D02*
X33250000Y9146905D01*
X33250000Y9146905D02*
X33250000Y9004048D01*
X33250000Y9004048D02*
X33297619Y8908810D01*
X33297619Y8908810D02*
X33345238Y8861191D01*
X33345238Y8861191D02*
X33440476Y8813572D01*
X33440476Y8813572D02*
X33821428Y8813572D01*
X32678571Y8337381D02*
X32773809Y8385000D01*
X32773809Y8385000D02*
X32821428Y8432620D01*
X32821428Y8432620D02*
X32869047Y8527858D01*
X32869047Y8527858D02*
X32869047Y8813572D01*
X32869047Y8813572D02*
X32821428Y8908810D01*
X32821428Y8908810D02*
X32773809Y8956429D01*
X32773809Y8956429D02*
X32678571Y9004048D01*
X32678571Y9004048D02*
X32535714Y9004048D01*
X32535714Y9004048D02*
X32440476Y8956429D01*
X32440476Y8956429D02*
X32392857Y8908810D01*
X32392857Y8908810D02*
X32345238Y8813572D01*
X32345238Y8813572D02*
X32345238Y8527858D01*
X32345238Y8527858D02*
X32392857Y8432620D01*
X32392857Y8432620D02*
X32440476Y8385000D01*
X32440476Y8385000D02*
X32535714Y8337381D01*
X32535714Y8337381D02*
X32678571Y8337381D01*
%LPC*%
D12*
G36*
X33130000Y2520000D02*
G01*
X30450000Y2520000D01*
X30390000Y2550000D01*
X30250000Y2585000D01*
X30250000Y6430000D01*
X33130000Y6430000D01*
X33130000Y2520000D01*
G37*
D13*
%TO.C,H1*%
X6500000Y5000000D03*
%TD*%
%TO.C,H2*%
X43500000Y5000000D03*
%TD*%
D14*
%TO.C,J3*%
X10000000Y3725000D03*
D15*
X10000000Y6265000D03*
%TD*%
D16*
%TO.C,SW1*%
X1250000Y2750000D03*
X1250000Y7250000D03*
D17*
X3750000Y1500000D03*
X3750000Y8500000D03*
%TD*%
D14*
%TO.C,J2*%
X37785000Y8840000D03*
D15*
X40325000Y8840000D03*
%TD*%
M02*
