%TF.GenerationSoftware,KiCad,Pcbnew,7.0.1*%
%TF.CreationDate,2023-03-15T21:10:10-04:00*%
%TF.ProjectId,ctm_battery c,63746d5f-6261-4747-9465-727920632e6b,1.0.0*%
%TF.SameCoordinates,PX49e8e60PY47868c0*%
%TF.FileFunction,Legend,Top*%
%TF.FilePolarity,Positive*%
%FSLAX46Y46*%
G04 Gerber Fmt 4.6, Leading zero omitted, Abs format (unit mm)*
G04 Created by KiCad (PCBNEW 7.0.1) date 2023-03-15 21:10:10*
%MOMM*%
%LPD*%
G01*
G04 APERTURE LIST*
G04 Aperture macros list*
%AMRoundRect*
0 Rectangle with rounded corners*
0 $1 Rounding radius*
0 $2 $3 $4 $5 $6 $7 $8 $9 X,Y pos of 4 corners*
0 Add a 4 corners polygon primitive as box body*
4,1,4,$2,$3,$4,$5,$6,$7,$8,$9,$2,$3,0*
0 Add four circle primitives for the rounded corners*
1,1,$1+$1,$2,$3*
1,1,$1+$1,$4,$5*
1,1,$1+$1,$6,$7*
1,1,$1+$1,$8,$9*
0 Add four rect primitives between the rounded corners*
20,1,$1+$1,$2,$3,$4,$5,0*
20,1,$1+$1,$4,$5,$6,$7,0*
20,1,$1+$1,$6,$7,$8,$9,0*
20,1,$1+$1,$8,$9,$2,$3,0*%
G04 Aperture macros list end*
%ADD10C,0.120000*%
%ADD11C,0.150000*%
%ADD12C,0.135000*%
%ADD13RoundRect,0.225000X-0.250000X0.225000X-0.250000X-0.225000X0.250000X-0.225000X0.250000X0.225000X0*%
%ADD14C,3.200000*%
%ADD15RoundRect,0.150000X0.512500X0.150000X-0.512500X0.150000X-0.512500X-0.150000X0.512500X-0.150000X0*%
%ADD16RoundRect,0.184782X-0.240218X-0.715218X0.240218X-0.715218X0.240218X0.715218X-0.240218X0.715218X0*%
%ADD17RoundRect,0.135000X0.185000X-0.135000X0.185000X0.135000X-0.185000X0.135000X-0.185000X-0.135000X0*%
%ADD18RoundRect,0.225000X-0.225000X-0.250000X0.225000X-0.250000X0.225000X0.250000X-0.225000X0.250000X0*%
%ADD19RoundRect,0.135000X-0.135000X-0.185000X0.135000X-0.185000X0.135000X0.185000X-0.135000X0.185000X0*%
%ADD20R,1.700000X1.700000*%
%ADD21O,1.700000X1.700000*%
%ADD22RoundRect,0.225000X0.225000X0.250000X-0.225000X0.250000X-0.225000X-0.250000X0.225000X-0.250000X0*%
%ADD23RoundRect,0.100000X-0.150000X0.100000X-0.150000X-0.100000X0.150000X-0.100000X0.150000X0.100000X0*%
%ADD24R,1.300000X0.700000*%
%ADD25R,2.400000X3.400000*%
%ADD26C,1.700000*%
%ADD27C,2.200000*%
%ADD28RoundRect,0.225000X0.250000X-0.225000X0.250000X0.225000X-0.250000X0.225000X-0.250000X-0.225000X0*%
%ADD29RoundRect,0.184782X-0.715218X0.240218X-0.715218X-0.240218X0.715218X-0.240218X0.715218X0.240218X0*%
%ADD30R,0.400000X1.350000*%
%ADD31R,1.800000X1.900000*%
%ADD32R,2.100000X1.600000*%
%ADD33R,1.900000X1.900000*%
%ADD34RoundRect,0.200000X-0.200000X-0.275000X0.200000X-0.275000X0.200000X0.275000X-0.200000X0.275000X0*%
%ADD35RoundRect,0.140000X0.170000X-0.140000X0.170000X0.140000X-0.170000X0.140000X-0.170000X-0.140000X0*%
G04 APERTURE END LIST*
D10*
X7830000Y3000000D02*
X8830000Y3000000D01*
X36120000Y9640000D02*
X36120000Y8640000D01*
X38700000Y3650000D02*
X38250000Y4100000D01*
X8330000Y2500000D02*
X8330000Y3500000D01*
X35620000Y9140000D02*
X36620000Y9140000D01*
X38250000Y4100000D02*
X38250000Y3900000D01*
X38250000Y4100000D02*
X38450000Y4100000D01*
D11*
X20619047Y9539905D02*
X20619047Y8968477D01*
X20619047Y8968477D02*
X20580952Y8854191D01*
X20580952Y8854191D02*
X20504761Y8778000D01*
X20504761Y8778000D02*
X20390476Y8739905D01*
X20390476Y8739905D02*
X20314285Y8739905D01*
X21380952Y8739905D02*
X21000000Y8739905D01*
X21000000Y8739905D02*
X21000000Y9539905D01*
X22104762Y8816096D02*
X22066666Y8778000D01*
X22066666Y8778000D02*
X21952381Y8739905D01*
X21952381Y8739905D02*
X21876190Y8739905D01*
X21876190Y8739905D02*
X21761904Y8778000D01*
X21761904Y8778000D02*
X21685714Y8854191D01*
X21685714Y8854191D02*
X21647619Y8930381D01*
X21647619Y8930381D02*
X21609523Y9082762D01*
X21609523Y9082762D02*
X21609523Y9197048D01*
X21609523Y9197048D02*
X21647619Y9349429D01*
X21647619Y9349429D02*
X21685714Y9425620D01*
X21685714Y9425620D02*
X21761904Y9501810D01*
X21761904Y9501810D02*
X21876190Y9539905D01*
X21876190Y9539905D02*
X21952381Y9539905D01*
X21952381Y9539905D02*
X22066666Y9501810D01*
X22066666Y9501810D02*
X22104762Y9463715D01*
X22676190Y9539905D02*
X22676190Y8968477D01*
X22676190Y8968477D02*
X22638095Y8854191D01*
X22638095Y8854191D02*
X22561904Y8778000D01*
X22561904Y8778000D02*
X22447619Y8739905D01*
X22447619Y8739905D02*
X22371428Y8739905D01*
X23438095Y8739905D02*
X23057143Y8739905D01*
X23057143Y8739905D02*
X23057143Y9539905D01*
X24161905Y8816096D02*
X24123809Y8778000D01*
X24123809Y8778000D02*
X24009524Y8739905D01*
X24009524Y8739905D02*
X23933333Y8739905D01*
X23933333Y8739905D02*
X23819047Y8778000D01*
X23819047Y8778000D02*
X23742857Y8854191D01*
X23742857Y8854191D02*
X23704762Y8930381D01*
X23704762Y8930381D02*
X23666666Y9082762D01*
X23666666Y9082762D02*
X23666666Y9197048D01*
X23666666Y9197048D02*
X23704762Y9349429D01*
X23704762Y9349429D02*
X23742857Y9425620D01*
X23742857Y9425620D02*
X23819047Y9501810D01*
X23819047Y9501810D02*
X23933333Y9539905D01*
X23933333Y9539905D02*
X24009524Y9539905D01*
X24009524Y9539905D02*
X24123809Y9501810D01*
X24123809Y9501810D02*
X24161905Y9463715D01*
X24733333Y9539905D02*
X24733333Y8968477D01*
X24733333Y8968477D02*
X24695238Y8854191D01*
X24695238Y8854191D02*
X24619047Y8778000D01*
X24619047Y8778000D02*
X24504762Y8739905D01*
X24504762Y8739905D02*
X24428571Y8739905D01*
X25495238Y8739905D02*
X25114286Y8739905D01*
X25114286Y8739905D02*
X25114286Y9539905D01*
X26219048Y8816096D02*
X26180952Y8778000D01*
X26180952Y8778000D02*
X26066667Y8739905D01*
X26066667Y8739905D02*
X25990476Y8739905D01*
X25990476Y8739905D02*
X25876190Y8778000D01*
X25876190Y8778000D02*
X25800000Y8854191D01*
X25800000Y8854191D02*
X25761905Y8930381D01*
X25761905Y8930381D02*
X25723809Y9082762D01*
X25723809Y9082762D02*
X25723809Y9197048D01*
X25723809Y9197048D02*
X25761905Y9349429D01*
X25761905Y9349429D02*
X25800000Y9425620D01*
X25800000Y9425620D02*
X25876190Y9501810D01*
X25876190Y9501810D02*
X25990476Y9539905D01*
X25990476Y9539905D02*
X26066667Y9539905D01*
X26066667Y9539905D02*
X26180952Y9501810D01*
X26180952Y9501810D02*
X26219048Y9463715D01*
X26790476Y9539905D02*
X26790476Y8968477D01*
X26790476Y8968477D02*
X26752381Y8854191D01*
X26752381Y8854191D02*
X26676190Y8778000D01*
X26676190Y8778000D02*
X26561905Y8739905D01*
X26561905Y8739905D02*
X26485714Y8739905D01*
X27552381Y8739905D02*
X27171429Y8739905D01*
X27171429Y8739905D02*
X27171429Y9539905D01*
X28276191Y8816096D02*
X28238095Y8778000D01*
X28238095Y8778000D02*
X28123810Y8739905D01*
X28123810Y8739905D02*
X28047619Y8739905D01*
X28047619Y8739905D02*
X27933333Y8778000D01*
X27933333Y8778000D02*
X27857143Y8854191D01*
X27857143Y8854191D02*
X27819048Y8930381D01*
X27819048Y8930381D02*
X27780952Y9082762D01*
X27780952Y9082762D02*
X27780952Y9197048D01*
X27780952Y9197048D02*
X27819048Y9349429D01*
X27819048Y9349429D02*
X27857143Y9425620D01*
X27857143Y9425620D02*
X27933333Y9501810D01*
X27933333Y9501810D02*
X28047619Y9539905D01*
X28047619Y9539905D02*
X28123810Y9539905D01*
X28123810Y9539905D02*
X28238095Y9501810D01*
X28238095Y9501810D02*
X28276191Y9463715D01*
%TO.C,C6*%
X18716667Y8661096D02*
X18678571Y8623000D01*
X18678571Y8623000D02*
X18564286Y8584905D01*
X18564286Y8584905D02*
X18488095Y8584905D01*
X18488095Y8584905D02*
X18373809Y8623000D01*
X18373809Y8623000D02*
X18297619Y8699191D01*
X18297619Y8699191D02*
X18259524Y8775381D01*
X18259524Y8775381D02*
X18221428Y8927762D01*
X18221428Y8927762D02*
X18221428Y9042048D01*
X18221428Y9042048D02*
X18259524Y9194429D01*
X18259524Y9194429D02*
X18297619Y9270620D01*
X18297619Y9270620D02*
X18373809Y9346810D01*
X18373809Y9346810D02*
X18488095Y9384905D01*
X18488095Y9384905D02*
X18564286Y9384905D01*
X18564286Y9384905D02*
X18678571Y9346810D01*
X18678571Y9346810D02*
X18716667Y9308715D01*
X19402381Y9384905D02*
X19250000Y9384905D01*
X19250000Y9384905D02*
X19173809Y9346810D01*
X19173809Y9346810D02*
X19135714Y9308715D01*
X19135714Y9308715D02*
X19059524Y9194429D01*
X19059524Y9194429D02*
X19021428Y9042048D01*
X19021428Y9042048D02*
X19021428Y8737286D01*
X19021428Y8737286D02*
X19059524Y8661096D01*
X19059524Y8661096D02*
X19097619Y8623000D01*
X19097619Y8623000D02*
X19173809Y8584905D01*
X19173809Y8584905D02*
X19326190Y8584905D01*
X19326190Y8584905D02*
X19402381Y8623000D01*
X19402381Y8623000D02*
X19440476Y8661096D01*
X19440476Y8661096D02*
X19478571Y8737286D01*
X19478571Y8737286D02*
X19478571Y8927762D01*
X19478571Y8927762D02*
X19440476Y9003953D01*
X19440476Y9003953D02*
X19402381Y9042048D01*
X19402381Y9042048D02*
X19326190Y9080143D01*
X19326190Y9080143D02*
X19173809Y9080143D01*
X19173809Y9080143D02*
X19097619Y9042048D01*
X19097619Y9042048D02*
X19059524Y9003953D01*
X19059524Y9003953D02*
X19021428Y8927762D01*
%TO.C,U3*%
X11940476Y1029905D02*
X11940476Y382286D01*
X11940476Y382286D02*
X11978571Y306096D01*
X11978571Y306096D02*
X12016666Y268000D01*
X12016666Y268000D02*
X12092857Y229905D01*
X12092857Y229905D02*
X12245238Y229905D01*
X12245238Y229905D02*
X12321428Y268000D01*
X12321428Y268000D02*
X12359523Y306096D01*
X12359523Y306096D02*
X12397619Y382286D01*
X12397619Y382286D02*
X12397619Y1029905D01*
X12702380Y1029905D02*
X13197618Y1029905D01*
X13197618Y1029905D02*
X12930952Y725143D01*
X12930952Y725143D02*
X13045237Y725143D01*
X13045237Y725143D02*
X13121428Y687048D01*
X13121428Y687048D02*
X13159523Y648953D01*
X13159523Y648953D02*
X13197618Y572762D01*
X13197618Y572762D02*
X13197618Y382286D01*
X13197618Y382286D02*
X13159523Y306096D01*
X13159523Y306096D02*
X13121428Y268000D01*
X13121428Y268000D02*
X13045237Y229905D01*
X13045237Y229905D02*
X12816666Y229905D01*
X12816666Y229905D02*
X12740475Y268000D01*
X12740475Y268000D02*
X12702380Y306096D01*
%TO.C,L1*%
X36086666Y7809905D02*
X35705714Y7809905D01*
X35705714Y7809905D02*
X35705714Y8609905D01*
X36772380Y7809905D02*
X36315237Y7809905D01*
X36543809Y7809905D02*
X36543809Y8609905D01*
X36543809Y8609905D02*
X36467618Y8495620D01*
X36467618Y8495620D02*
X36391428Y8419429D01*
X36391428Y8419429D02*
X36315237Y8381334D01*
%TO.C,R2*%
X46215095Y7621668D02*
X45834142Y7355001D01*
X46215095Y7164525D02*
X45415095Y7164525D01*
X45415095Y7164525D02*
X45415095Y7469287D01*
X45415095Y7469287D02*
X45453190Y7545477D01*
X45453190Y7545477D02*
X45491285Y7583572D01*
X45491285Y7583572D02*
X45567476Y7621668D01*
X45567476Y7621668D02*
X45681761Y7621668D01*
X45681761Y7621668D02*
X45757952Y7583572D01*
X45757952Y7583572D02*
X45796047Y7545477D01*
X45796047Y7545477D02*
X45834142Y7469287D01*
X45834142Y7469287D02*
X45834142Y7164525D01*
X45491285Y7926429D02*
X45453190Y7964525D01*
X45453190Y7964525D02*
X45415095Y8040715D01*
X45415095Y8040715D02*
X45415095Y8231191D01*
X45415095Y8231191D02*
X45453190Y8307382D01*
X45453190Y8307382D02*
X45491285Y8345477D01*
X45491285Y8345477D02*
X45567476Y8383572D01*
X45567476Y8383572D02*
X45643666Y8383572D01*
X45643666Y8383572D02*
X45757952Y8345477D01*
X45757952Y8345477D02*
X46215095Y7888334D01*
X46215095Y7888334D02*
X46215095Y8383572D01*
%TO.C,C1*%
X38066667Y1736096D02*
X38028571Y1698000D01*
X38028571Y1698000D02*
X37914286Y1659905D01*
X37914286Y1659905D02*
X37838095Y1659905D01*
X37838095Y1659905D02*
X37723809Y1698000D01*
X37723809Y1698000D02*
X37647619Y1774191D01*
X37647619Y1774191D02*
X37609524Y1850381D01*
X37609524Y1850381D02*
X37571428Y2002762D01*
X37571428Y2002762D02*
X37571428Y2117048D01*
X37571428Y2117048D02*
X37609524Y2269429D01*
X37609524Y2269429D02*
X37647619Y2345620D01*
X37647619Y2345620D02*
X37723809Y2421810D01*
X37723809Y2421810D02*
X37838095Y2459905D01*
X37838095Y2459905D02*
X37914286Y2459905D01*
X37914286Y2459905D02*
X38028571Y2421810D01*
X38028571Y2421810D02*
X38066667Y2383715D01*
X38828571Y1659905D02*
X38371428Y1659905D01*
X38600000Y1659905D02*
X38600000Y2459905D01*
X38600000Y2459905D02*
X38523809Y2345620D01*
X38523809Y2345620D02*
X38447619Y2269429D01*
X38447619Y2269429D02*
X38371428Y2231334D01*
%TO.C,R3*%
X36316667Y629905D02*
X36050000Y1010858D01*
X35859524Y629905D02*
X35859524Y1429905D01*
X35859524Y1429905D02*
X36164286Y1429905D01*
X36164286Y1429905D02*
X36240476Y1391810D01*
X36240476Y1391810D02*
X36278571Y1353715D01*
X36278571Y1353715D02*
X36316667Y1277524D01*
X36316667Y1277524D02*
X36316667Y1163239D01*
X36316667Y1163239D02*
X36278571Y1087048D01*
X36278571Y1087048D02*
X36240476Y1048953D01*
X36240476Y1048953D02*
X36164286Y1010858D01*
X36164286Y1010858D02*
X35859524Y1010858D01*
X36583333Y1429905D02*
X37078571Y1429905D01*
X37078571Y1429905D02*
X36811905Y1125143D01*
X36811905Y1125143D02*
X36926190Y1125143D01*
X36926190Y1125143D02*
X37002381Y1087048D01*
X37002381Y1087048D02*
X37040476Y1048953D01*
X37040476Y1048953D02*
X37078571Y972762D01*
X37078571Y972762D02*
X37078571Y782286D01*
X37078571Y782286D02*
X37040476Y706096D01*
X37040476Y706096D02*
X37002381Y668000D01*
X37002381Y668000D02*
X36926190Y629905D01*
X36926190Y629905D02*
X36697619Y629905D01*
X36697619Y629905D02*
X36621428Y668000D01*
X36621428Y668000D02*
X36583333Y706096D01*
%TO.C,J3*%
X9133333Y2539905D02*
X9133333Y1968477D01*
X9133333Y1968477D02*
X9095238Y1854191D01*
X9095238Y1854191D02*
X9019047Y1778000D01*
X9019047Y1778000D02*
X8904762Y1739905D01*
X8904762Y1739905D02*
X8828571Y1739905D01*
X9438095Y2539905D02*
X9933333Y2539905D01*
X9933333Y2539905D02*
X9666667Y2235143D01*
X9666667Y2235143D02*
X9780952Y2235143D01*
X9780952Y2235143D02*
X9857143Y2197048D01*
X9857143Y2197048D02*
X9895238Y2158953D01*
X9895238Y2158953D02*
X9933333Y2082762D01*
X9933333Y2082762D02*
X9933333Y1892286D01*
X9933333Y1892286D02*
X9895238Y1816096D01*
X9895238Y1816096D02*
X9857143Y1778000D01*
X9857143Y1778000D02*
X9780952Y1739905D01*
X9780952Y1739905D02*
X9552381Y1739905D01*
X9552381Y1739905D02*
X9476190Y1778000D01*
X9476190Y1778000D02*
X9438095Y1816096D01*
%TO.C,C5*%
X33556667Y8806096D02*
X33518571Y8768000D01*
X33518571Y8768000D02*
X33404286Y8729905D01*
X33404286Y8729905D02*
X33328095Y8729905D01*
X33328095Y8729905D02*
X33213809Y8768000D01*
X33213809Y8768000D02*
X33137619Y8844191D01*
X33137619Y8844191D02*
X33099524Y8920381D01*
X33099524Y8920381D02*
X33061428Y9072762D01*
X33061428Y9072762D02*
X33061428Y9187048D01*
X33061428Y9187048D02*
X33099524Y9339429D01*
X33099524Y9339429D02*
X33137619Y9415620D01*
X33137619Y9415620D02*
X33213809Y9491810D01*
X33213809Y9491810D02*
X33328095Y9529905D01*
X33328095Y9529905D02*
X33404286Y9529905D01*
X33404286Y9529905D02*
X33518571Y9491810D01*
X33518571Y9491810D02*
X33556667Y9453715D01*
X34280476Y9529905D02*
X33899524Y9529905D01*
X33899524Y9529905D02*
X33861428Y9148953D01*
X33861428Y9148953D02*
X33899524Y9187048D01*
X33899524Y9187048D02*
X33975714Y9225143D01*
X33975714Y9225143D02*
X34166190Y9225143D01*
X34166190Y9225143D02*
X34242381Y9187048D01*
X34242381Y9187048D02*
X34280476Y9148953D01*
X34280476Y9148953D02*
X34318571Y9072762D01*
X34318571Y9072762D02*
X34318571Y8882286D01*
X34318571Y8882286D02*
X34280476Y8806096D01*
X34280476Y8806096D02*
X34242381Y8768000D01*
X34242381Y8768000D02*
X34166190Y8729905D01*
X34166190Y8729905D02*
X33975714Y8729905D01*
X33975714Y8729905D02*
X33899524Y8768000D01*
X33899524Y8768000D02*
X33861428Y8806096D01*
%TO.C,D1*%
X49420095Y1634525D02*
X48620095Y1634525D01*
X48620095Y1634525D02*
X48620095Y1825001D01*
X48620095Y1825001D02*
X48658190Y1939287D01*
X48658190Y1939287D02*
X48734380Y2015477D01*
X48734380Y2015477D02*
X48810571Y2053572D01*
X48810571Y2053572D02*
X48962952Y2091668D01*
X48962952Y2091668D02*
X49077238Y2091668D01*
X49077238Y2091668D02*
X49229619Y2053572D01*
X49229619Y2053572D02*
X49305809Y2015477D01*
X49305809Y2015477D02*
X49382000Y1939287D01*
X49382000Y1939287D02*
X49420095Y1825001D01*
X49420095Y1825001D02*
X49420095Y1634525D01*
X49420095Y2853572D02*
X49420095Y2396429D01*
X49420095Y2625001D02*
X48620095Y2625001D01*
X48620095Y2625001D02*
X48734380Y2548810D01*
X48734380Y2548810D02*
X48810571Y2472620D01*
X48810571Y2472620D02*
X48848666Y2396429D01*
%TO.C,D4*%
X49420095Y7184525D02*
X48620095Y7184525D01*
X48620095Y7184525D02*
X48620095Y7375001D01*
X48620095Y7375001D02*
X48658190Y7489287D01*
X48658190Y7489287D02*
X48734380Y7565477D01*
X48734380Y7565477D02*
X48810571Y7603572D01*
X48810571Y7603572D02*
X48962952Y7641668D01*
X48962952Y7641668D02*
X49077238Y7641668D01*
X49077238Y7641668D02*
X49229619Y7603572D01*
X49229619Y7603572D02*
X49305809Y7565477D01*
X49305809Y7565477D02*
X49382000Y7489287D01*
X49382000Y7489287D02*
X49420095Y7375001D01*
X49420095Y7375001D02*
X49420095Y7184525D01*
X48886761Y8327382D02*
X49420095Y8327382D01*
X48582000Y8136906D02*
X49153428Y7946429D01*
X49153428Y7946429D02*
X49153428Y8441668D01*
%TO.C,U1*%
X31090476Y1689905D02*
X31090476Y1042286D01*
X31090476Y1042286D02*
X31128571Y966096D01*
X31128571Y966096D02*
X31166666Y928000D01*
X31166666Y928000D02*
X31242857Y889905D01*
X31242857Y889905D02*
X31395238Y889905D01*
X31395238Y889905D02*
X31471428Y928000D01*
X31471428Y928000D02*
X31509523Y966096D01*
X31509523Y966096D02*
X31547619Y1042286D01*
X31547619Y1042286D02*
X31547619Y1689905D01*
X32347618Y889905D02*
X31890475Y889905D01*
X32119047Y889905D02*
X32119047Y1689905D01*
X32119047Y1689905D02*
X32042856Y1575620D01*
X32042856Y1575620D02*
X31966666Y1499429D01*
X31966666Y1499429D02*
X31890475Y1461334D01*
%TO.C,SW1*%
X3068000Y6066668D02*
X3029904Y5952382D01*
X3029904Y5952382D02*
X3029904Y5761906D01*
X3029904Y5761906D02*
X3068000Y5685715D01*
X3068000Y5685715D02*
X3106095Y5647620D01*
X3106095Y5647620D02*
X3182285Y5609525D01*
X3182285Y5609525D02*
X3258476Y5609525D01*
X3258476Y5609525D02*
X3334666Y5647620D01*
X3334666Y5647620D02*
X3372761Y5685715D01*
X3372761Y5685715D02*
X3410857Y5761906D01*
X3410857Y5761906D02*
X3448952Y5914287D01*
X3448952Y5914287D02*
X3487047Y5990477D01*
X3487047Y5990477D02*
X3525142Y6028572D01*
X3525142Y6028572D02*
X3601333Y6066668D01*
X3601333Y6066668D02*
X3677523Y6066668D01*
X3677523Y6066668D02*
X3753714Y6028572D01*
X3753714Y6028572D02*
X3791809Y5990477D01*
X3791809Y5990477D02*
X3829904Y5914287D01*
X3829904Y5914287D02*
X3829904Y5723810D01*
X3829904Y5723810D02*
X3791809Y5609525D01*
X3829904Y5342858D02*
X3029904Y5152382D01*
X3029904Y5152382D02*
X3601333Y5000001D01*
X3601333Y5000001D02*
X3029904Y4847620D01*
X3029904Y4847620D02*
X3829904Y4657143D01*
X3029904Y3933334D02*
X3029904Y4390477D01*
X3029904Y4161905D02*
X3829904Y4161905D01*
X3829904Y4161905D02*
X3715619Y4238096D01*
X3715619Y4238096D02*
X3639428Y4314286D01*
X3639428Y4314286D02*
X3601333Y4390477D01*
%TO.C,C4*%
X40516667Y5206096D02*
X40478571Y5168000D01*
X40478571Y5168000D02*
X40364286Y5129905D01*
X40364286Y5129905D02*
X40288095Y5129905D01*
X40288095Y5129905D02*
X40173809Y5168000D01*
X40173809Y5168000D02*
X40097619Y5244191D01*
X40097619Y5244191D02*
X40059524Y5320381D01*
X40059524Y5320381D02*
X40021428Y5472762D01*
X40021428Y5472762D02*
X40021428Y5587048D01*
X40021428Y5587048D02*
X40059524Y5739429D01*
X40059524Y5739429D02*
X40097619Y5815620D01*
X40097619Y5815620D02*
X40173809Y5891810D01*
X40173809Y5891810D02*
X40288095Y5929905D01*
X40288095Y5929905D02*
X40364286Y5929905D01*
X40364286Y5929905D02*
X40478571Y5891810D01*
X40478571Y5891810D02*
X40516667Y5853715D01*
X41202381Y5663239D02*
X41202381Y5129905D01*
X41011905Y5968000D02*
X40821428Y5396572D01*
X40821428Y5396572D02*
X41316667Y5396572D01*
%TO.C,L2*%
X11666666Y7179905D02*
X11285714Y7179905D01*
X11285714Y7179905D02*
X11285714Y7979905D01*
X11895237Y7903715D02*
X11933333Y7941810D01*
X11933333Y7941810D02*
X12009523Y7979905D01*
X12009523Y7979905D02*
X12199999Y7979905D01*
X12199999Y7979905D02*
X12276190Y7941810D01*
X12276190Y7941810D02*
X12314285Y7903715D01*
X12314285Y7903715D02*
X12352380Y7827524D01*
X12352380Y7827524D02*
X12352380Y7751334D01*
X12352380Y7751334D02*
X12314285Y7637048D01*
X12314285Y7637048D02*
X11857142Y7179905D01*
X11857142Y7179905D02*
X12352380Y7179905D01*
%TO.C,C2*%
X29581667Y8806096D02*
X29543571Y8768000D01*
X29543571Y8768000D02*
X29429286Y8729905D01*
X29429286Y8729905D02*
X29353095Y8729905D01*
X29353095Y8729905D02*
X29238809Y8768000D01*
X29238809Y8768000D02*
X29162619Y8844191D01*
X29162619Y8844191D02*
X29124524Y8920381D01*
X29124524Y8920381D02*
X29086428Y9072762D01*
X29086428Y9072762D02*
X29086428Y9187048D01*
X29086428Y9187048D02*
X29124524Y9339429D01*
X29124524Y9339429D02*
X29162619Y9415620D01*
X29162619Y9415620D02*
X29238809Y9491810D01*
X29238809Y9491810D02*
X29353095Y9529905D01*
X29353095Y9529905D02*
X29429286Y9529905D01*
X29429286Y9529905D02*
X29543571Y9491810D01*
X29543571Y9491810D02*
X29581667Y9453715D01*
X29886428Y9453715D02*
X29924524Y9491810D01*
X29924524Y9491810D02*
X30000714Y9529905D01*
X30000714Y9529905D02*
X30191190Y9529905D01*
X30191190Y9529905D02*
X30267381Y9491810D01*
X30267381Y9491810D02*
X30305476Y9453715D01*
X30305476Y9453715D02*
X30343571Y9377524D01*
X30343571Y9377524D02*
X30343571Y9301334D01*
X30343571Y9301334D02*
X30305476Y9187048D01*
X30305476Y9187048D02*
X29848333Y8729905D01*
X29848333Y8729905D02*
X30343571Y8729905D01*
%TO.C,U2*%
X12740476Y9629905D02*
X12740476Y8982286D01*
X12740476Y8982286D02*
X12778571Y8906096D01*
X12778571Y8906096D02*
X12816666Y8868000D01*
X12816666Y8868000D02*
X12892857Y8829905D01*
X12892857Y8829905D02*
X13045238Y8829905D01*
X13045238Y8829905D02*
X13121428Y8868000D01*
X13121428Y8868000D02*
X13159523Y8906096D01*
X13159523Y8906096D02*
X13197619Y8982286D01*
X13197619Y8982286D02*
X13197619Y9629905D01*
X13540475Y9553715D02*
X13578571Y9591810D01*
X13578571Y9591810D02*
X13654761Y9629905D01*
X13654761Y9629905D02*
X13845237Y9629905D01*
X13845237Y9629905D02*
X13921428Y9591810D01*
X13921428Y9591810D02*
X13959523Y9553715D01*
X13959523Y9553715D02*
X13997618Y9477524D01*
X13997618Y9477524D02*
X13997618Y9401334D01*
X13997618Y9401334D02*
X13959523Y9287048D01*
X13959523Y9287048D02*
X13502380Y8829905D01*
X13502380Y8829905D02*
X13997618Y8829905D01*
%TO.C,D3*%
X49420095Y5334525D02*
X48620095Y5334525D01*
X48620095Y5334525D02*
X48620095Y5525001D01*
X48620095Y5525001D02*
X48658190Y5639287D01*
X48658190Y5639287D02*
X48734380Y5715477D01*
X48734380Y5715477D02*
X48810571Y5753572D01*
X48810571Y5753572D02*
X48962952Y5791668D01*
X48962952Y5791668D02*
X49077238Y5791668D01*
X49077238Y5791668D02*
X49229619Y5753572D01*
X49229619Y5753572D02*
X49305809Y5715477D01*
X49305809Y5715477D02*
X49382000Y5639287D01*
X49382000Y5639287D02*
X49420095Y5525001D01*
X49420095Y5525001D02*
X49420095Y5334525D01*
X48620095Y6058334D02*
X48620095Y6553572D01*
X48620095Y6553572D02*
X48924857Y6286906D01*
X48924857Y6286906D02*
X48924857Y6401191D01*
X48924857Y6401191D02*
X48962952Y6477382D01*
X48962952Y6477382D02*
X49001047Y6515477D01*
X49001047Y6515477D02*
X49077238Y6553572D01*
X49077238Y6553572D02*
X49267714Y6553572D01*
X49267714Y6553572D02*
X49343904Y6515477D01*
X49343904Y6515477D02*
X49382000Y6477382D01*
X49382000Y6477382D02*
X49420095Y6401191D01*
X49420095Y6401191D02*
X49420095Y6172620D01*
X49420095Y6172620D02*
X49382000Y6096429D01*
X49382000Y6096429D02*
X49343904Y6058334D01*
%TO.C,J1*%
X25323333Y6129905D02*
X25323333Y5558477D01*
X25323333Y5558477D02*
X25285238Y5444191D01*
X25285238Y5444191D02*
X25209047Y5368000D01*
X25209047Y5368000D02*
X25094762Y5329905D01*
X25094762Y5329905D02*
X25018571Y5329905D01*
X26123333Y5329905D02*
X25666190Y5329905D01*
X25894762Y5329905D02*
X25894762Y6129905D01*
X25894762Y6129905D02*
X25818571Y6015620D01*
X25818571Y6015620D02*
X25742381Y5939429D01*
X25742381Y5939429D02*
X25666190Y5901334D01*
%TO.C,C7*%
X16616667Y4706096D02*
X16578571Y4668000D01*
X16578571Y4668000D02*
X16464286Y4629905D01*
X16464286Y4629905D02*
X16388095Y4629905D01*
X16388095Y4629905D02*
X16273809Y4668000D01*
X16273809Y4668000D02*
X16197619Y4744191D01*
X16197619Y4744191D02*
X16159524Y4820381D01*
X16159524Y4820381D02*
X16121428Y4972762D01*
X16121428Y4972762D02*
X16121428Y5087048D01*
X16121428Y5087048D02*
X16159524Y5239429D01*
X16159524Y5239429D02*
X16197619Y5315620D01*
X16197619Y5315620D02*
X16273809Y5391810D01*
X16273809Y5391810D02*
X16388095Y5429905D01*
X16388095Y5429905D02*
X16464286Y5429905D01*
X16464286Y5429905D02*
X16578571Y5391810D01*
X16578571Y5391810D02*
X16616667Y5353715D01*
X16883333Y5429905D02*
X17416667Y5429905D01*
X17416667Y5429905D02*
X17073809Y4629905D01*
%TO.C,D2*%
X49420095Y3484525D02*
X48620095Y3484525D01*
X48620095Y3484525D02*
X48620095Y3675001D01*
X48620095Y3675001D02*
X48658190Y3789287D01*
X48658190Y3789287D02*
X48734380Y3865477D01*
X48734380Y3865477D02*
X48810571Y3903572D01*
X48810571Y3903572D02*
X48962952Y3941668D01*
X48962952Y3941668D02*
X49077238Y3941668D01*
X49077238Y3941668D02*
X49229619Y3903572D01*
X49229619Y3903572D02*
X49305809Y3865477D01*
X49305809Y3865477D02*
X49382000Y3789287D01*
X49382000Y3789287D02*
X49420095Y3675001D01*
X49420095Y3675001D02*
X49420095Y3484525D01*
X48696285Y4246429D02*
X48658190Y4284525D01*
X48658190Y4284525D02*
X48620095Y4360715D01*
X48620095Y4360715D02*
X48620095Y4551191D01*
X48620095Y4551191D02*
X48658190Y4627382D01*
X48658190Y4627382D02*
X48696285Y4665477D01*
X48696285Y4665477D02*
X48772476Y4703572D01*
X48772476Y4703572D02*
X48848666Y4703572D01*
X48848666Y4703572D02*
X48962952Y4665477D01*
X48962952Y4665477D02*
X49420095Y4208334D01*
X49420095Y4208334D02*
X49420095Y4703572D01*
%TO.C,R1*%
X46270095Y2091668D02*
X45889142Y1825001D01*
X46270095Y1634525D02*
X45470095Y1634525D01*
X45470095Y1634525D02*
X45470095Y1939287D01*
X45470095Y1939287D02*
X45508190Y2015477D01*
X45508190Y2015477D02*
X45546285Y2053572D01*
X45546285Y2053572D02*
X45622476Y2091668D01*
X45622476Y2091668D02*
X45736761Y2091668D01*
X45736761Y2091668D02*
X45812952Y2053572D01*
X45812952Y2053572D02*
X45851047Y2015477D01*
X45851047Y2015477D02*
X45889142Y1939287D01*
X45889142Y1939287D02*
X45889142Y1634525D01*
X46270095Y2853572D02*
X46270095Y2396429D01*
X46270095Y2625001D02*
X45470095Y2625001D01*
X45470095Y2625001D02*
X45584380Y2548810D01*
X45584380Y2548810D02*
X45660571Y2472620D01*
X45660571Y2472620D02*
X45698666Y2396429D01*
%TO.C,R4*%
X39286667Y2674905D02*
X39020000Y3055858D01*
X38829524Y2674905D02*
X38829524Y3474905D01*
X38829524Y3474905D02*
X39134286Y3474905D01*
X39134286Y3474905D02*
X39210476Y3436810D01*
X39210476Y3436810D02*
X39248571Y3398715D01*
X39248571Y3398715D02*
X39286667Y3322524D01*
X39286667Y3322524D02*
X39286667Y3208239D01*
X39286667Y3208239D02*
X39248571Y3132048D01*
X39248571Y3132048D02*
X39210476Y3093953D01*
X39210476Y3093953D02*
X39134286Y3055858D01*
X39134286Y3055858D02*
X38829524Y3055858D01*
X39972381Y3208239D02*
X39972381Y2674905D01*
X39781905Y3513000D02*
X39591428Y2941572D01*
X39591428Y2941572D02*
X40086667Y2941572D01*
%TO.C,C8*%
X10516667Y306096D02*
X10478571Y268000D01*
X10478571Y268000D02*
X10364286Y229905D01*
X10364286Y229905D02*
X10288095Y229905D01*
X10288095Y229905D02*
X10173809Y268000D01*
X10173809Y268000D02*
X10097619Y344191D01*
X10097619Y344191D02*
X10059524Y420381D01*
X10059524Y420381D02*
X10021428Y572762D01*
X10021428Y572762D02*
X10021428Y687048D01*
X10021428Y687048D02*
X10059524Y839429D01*
X10059524Y839429D02*
X10097619Y915620D01*
X10097619Y915620D02*
X10173809Y991810D01*
X10173809Y991810D02*
X10288095Y1029905D01*
X10288095Y1029905D02*
X10364286Y1029905D01*
X10364286Y1029905D02*
X10478571Y991810D01*
X10478571Y991810D02*
X10516667Y953715D01*
X10973809Y687048D02*
X10897619Y725143D01*
X10897619Y725143D02*
X10859524Y763239D01*
X10859524Y763239D02*
X10821428Y839429D01*
X10821428Y839429D02*
X10821428Y877524D01*
X10821428Y877524D02*
X10859524Y953715D01*
X10859524Y953715D02*
X10897619Y991810D01*
X10897619Y991810D02*
X10973809Y1029905D01*
X10973809Y1029905D02*
X11126190Y1029905D01*
X11126190Y1029905D02*
X11202381Y991810D01*
X11202381Y991810D02*
X11240476Y953715D01*
X11240476Y953715D02*
X11278571Y877524D01*
X11278571Y877524D02*
X11278571Y839429D01*
X11278571Y839429D02*
X11240476Y763239D01*
X11240476Y763239D02*
X11202381Y725143D01*
X11202381Y725143D02*
X11126190Y687048D01*
X11126190Y687048D02*
X10973809Y687048D01*
X10973809Y687048D02*
X10897619Y648953D01*
X10897619Y648953D02*
X10859524Y610858D01*
X10859524Y610858D02*
X10821428Y534667D01*
X10821428Y534667D02*
X10821428Y382286D01*
X10821428Y382286D02*
X10859524Y306096D01*
X10859524Y306096D02*
X10897619Y268000D01*
X10897619Y268000D02*
X10973809Y229905D01*
X10973809Y229905D02*
X11126190Y229905D01*
X11126190Y229905D02*
X11202381Y268000D01*
X11202381Y268000D02*
X11240476Y306096D01*
X11240476Y306096D02*
X11278571Y382286D01*
X11278571Y382286D02*
X11278571Y534667D01*
X11278571Y534667D02*
X11240476Y610858D01*
X11240476Y610858D02*
X11202381Y648953D01*
X11202381Y648953D02*
X11126190Y687048D01*
%TO.C,C3*%
X23116667Y6006096D02*
X23078571Y5968000D01*
X23078571Y5968000D02*
X22964286Y5929905D01*
X22964286Y5929905D02*
X22888095Y5929905D01*
X22888095Y5929905D02*
X22773809Y5968000D01*
X22773809Y5968000D02*
X22697619Y6044191D01*
X22697619Y6044191D02*
X22659524Y6120381D01*
X22659524Y6120381D02*
X22621428Y6272762D01*
X22621428Y6272762D02*
X22621428Y6387048D01*
X22621428Y6387048D02*
X22659524Y6539429D01*
X22659524Y6539429D02*
X22697619Y6615620D01*
X22697619Y6615620D02*
X22773809Y6691810D01*
X22773809Y6691810D02*
X22888095Y6729905D01*
X22888095Y6729905D02*
X22964286Y6729905D01*
X22964286Y6729905D02*
X23078571Y6691810D01*
X23078571Y6691810D02*
X23116667Y6653715D01*
X23383333Y6729905D02*
X23878571Y6729905D01*
X23878571Y6729905D02*
X23611905Y6425143D01*
X23611905Y6425143D02*
X23726190Y6425143D01*
X23726190Y6425143D02*
X23802381Y6387048D01*
X23802381Y6387048D02*
X23840476Y6348953D01*
X23840476Y6348953D02*
X23878571Y6272762D01*
X23878571Y6272762D02*
X23878571Y6082286D01*
X23878571Y6082286D02*
X23840476Y6006096D01*
X23840476Y6006096D02*
X23802381Y5968000D01*
X23802381Y5968000D02*
X23726190Y5929905D01*
X23726190Y5929905D02*
X23497619Y5929905D01*
X23497619Y5929905D02*
X23421428Y5968000D01*
X23421428Y5968000D02*
X23383333Y6006096D01*
%TO.C,J2*%
X41848333Y9004905D02*
X41848333Y8433477D01*
X41848333Y8433477D02*
X41810238Y8319191D01*
X41810238Y8319191D02*
X41734047Y8243000D01*
X41734047Y8243000D02*
X41619762Y8204905D01*
X41619762Y8204905D02*
X41543571Y8204905D01*
X42191190Y8928715D02*
X42229286Y8966810D01*
X42229286Y8966810D02*
X42305476Y9004905D01*
X42305476Y9004905D02*
X42495952Y9004905D01*
X42495952Y9004905D02*
X42572143Y8966810D01*
X42572143Y8966810D02*
X42610238Y8928715D01*
X42610238Y8928715D02*
X42648333Y8852524D01*
X42648333Y8852524D02*
X42648333Y8776334D01*
X42648333Y8776334D02*
X42610238Y8662048D01*
X42610238Y8662048D02*
X42153095Y8204905D01*
X42153095Y8204905D02*
X42648333Y8204905D01*
%TO.C,C9*%
X13216667Y7706096D02*
X13178571Y7668000D01*
X13178571Y7668000D02*
X13064286Y7629905D01*
X13064286Y7629905D02*
X12988095Y7629905D01*
X12988095Y7629905D02*
X12873809Y7668000D01*
X12873809Y7668000D02*
X12797619Y7744191D01*
X12797619Y7744191D02*
X12759524Y7820381D01*
X12759524Y7820381D02*
X12721428Y7972762D01*
X12721428Y7972762D02*
X12721428Y8087048D01*
X12721428Y8087048D02*
X12759524Y8239429D01*
X12759524Y8239429D02*
X12797619Y8315620D01*
X12797619Y8315620D02*
X12873809Y8391810D01*
X12873809Y8391810D02*
X12988095Y8429905D01*
X12988095Y8429905D02*
X13064286Y8429905D01*
X13064286Y8429905D02*
X13178571Y8391810D01*
X13178571Y8391810D02*
X13216667Y8353715D01*
X13597619Y7629905D02*
X13750000Y7629905D01*
X13750000Y7629905D02*
X13826190Y7668000D01*
X13826190Y7668000D02*
X13864286Y7706096D01*
X13864286Y7706096D02*
X13940476Y7820381D01*
X13940476Y7820381D02*
X13978571Y7972762D01*
X13978571Y7972762D02*
X13978571Y8277524D01*
X13978571Y8277524D02*
X13940476Y8353715D01*
X13940476Y8353715D02*
X13902381Y8391810D01*
X13902381Y8391810D02*
X13826190Y8429905D01*
X13826190Y8429905D02*
X13673809Y8429905D01*
X13673809Y8429905D02*
X13597619Y8391810D01*
X13597619Y8391810D02*
X13559524Y8353715D01*
X13559524Y8353715D02*
X13521428Y8277524D01*
X13521428Y8277524D02*
X13521428Y8087048D01*
X13521428Y8087048D02*
X13559524Y8010858D01*
X13559524Y8010858D02*
X13597619Y7972762D01*
X13597619Y7972762D02*
X13673809Y7934667D01*
X13673809Y7934667D02*
X13826190Y7934667D01*
X13826190Y7934667D02*
X13902381Y7972762D01*
X13902381Y7972762D02*
X13940476Y8010858D01*
X13940476Y8010858D02*
X13978571Y8087048D01*
D10*
%TO.C,C6*%
X19370000Y7195580D02*
X19370000Y6914420D01*
X18350000Y7195580D02*
X18350000Y6914420D01*
%TO.C,U3*%
X15232500Y1195000D02*
X15232500Y995000D01*
X15232500Y4145000D02*
X15232500Y3945000D01*
X13382500Y995000D02*
X15232500Y995000D01*
X13382500Y1195000D02*
X13382500Y995000D01*
X13382500Y4145000D02*
X15232500Y4145000D01*
X13382500Y4145000D02*
X13382500Y3945000D01*
X15528211Y1070000D02*
G75*
G03*
X15528211Y1070000I-70711J0D01*
G01*
%TO.C,L1*%
X36880000Y7510000D02*
X37280000Y7510000D01*
X36880000Y5710000D02*
X37280000Y5710000D01*
%TO.C,R2*%
X46450000Y7621359D02*
X46450000Y7928641D01*
X47210000Y7621359D02*
X47210000Y7928641D01*
%TO.C,C1*%
X36859420Y3760000D02*
X37140580Y3760000D01*
X36859420Y2740000D02*
X37140580Y2740000D01*
%TO.C,R3*%
X36296359Y2380000D02*
X36603641Y2380000D01*
X36296359Y1620000D02*
X36603641Y1620000D01*
%TO.C,C5*%
X33820580Y7400000D02*
X33539420Y7400000D01*
X33820580Y8420000D02*
X33539420Y8420000D01*
%TO.C,D1*%
X48250000Y2725000D02*
X48250000Y2425000D01*
X48400000Y2425000D02*
X48100000Y2425000D01*
X48100000Y2425000D02*
X48250000Y2025000D01*
X47390000Y2375000D02*
X47390000Y2075000D01*
X48400000Y2025000D02*
X48100000Y2025000D01*
X48250000Y2025000D02*
X48400000Y2425000D01*
X48250000Y2025000D02*
X48250000Y1725000D01*
%TO.C,D4*%
X48250000Y8275000D02*
X48250000Y7975000D01*
X48400000Y7975000D02*
X48100000Y7975000D01*
X48100000Y7975000D02*
X48250000Y7575000D01*
X47390000Y7925000D02*
X47390000Y7625000D01*
X48400000Y7575000D02*
X48100000Y7575000D01*
X48250000Y7575000D02*
X48400000Y7975000D01*
X48250000Y7575000D02*
X48250000Y7275000D01*
D11*
%TO.C,U1*%
X29625000Y7045000D02*
X29625000Y6845000D01*
X29625000Y7045000D02*
X33775000Y7045000D01*
X29625000Y1895000D02*
X29625000Y2095000D01*
X29625000Y1895000D02*
X33775000Y1895000D01*
X33775000Y7045000D02*
X33775000Y6845000D01*
X33775000Y1895000D02*
X33775000Y2095000D01*
D12*
X29392500Y6970000D02*
G75*
G03*
X29392500Y6970000I-67500J0D01*
G01*
D10*
%TO.C,SW1*%
X-1420000Y1130000D02*
X2430000Y1130000D01*
X5070000Y1130000D02*
X5370000Y1130000D01*
X5370000Y2020000D02*
X5370000Y1130000D01*
X5370000Y2020000D02*
X5020000Y2020000D01*
X2820000Y2510000D02*
X2820000Y7490000D01*
X5370000Y7980000D02*
X5020000Y7980000D01*
X-1420000Y8870000D02*
X-1420000Y1130000D01*
X2430000Y8870000D02*
X-1420000Y8870000D01*
X5070000Y8870000D02*
X5370000Y8870000D01*
X5370000Y8870000D02*
X5370000Y7980000D01*
%TO.C,C4*%
X38740000Y5359420D02*
X38740000Y5640580D01*
X39760000Y5359420D02*
X39760000Y5640580D01*
%TO.C,L2*%
X12850000Y5935000D02*
X12850000Y5535000D01*
X11050000Y5935000D02*
X11050000Y5535000D01*
%TO.C,C2*%
X29584420Y8420000D02*
X29865580Y8420000D01*
X29584420Y7400000D02*
X29865580Y7400000D01*
%TO.C,U2*%
X17005000Y6060000D02*
X17005000Y5860000D01*
X17005000Y9010000D02*
X17005000Y8810000D01*
X15155000Y5860000D02*
X17005000Y5860000D01*
X15155000Y6060000D02*
X15155000Y5860000D01*
X15155000Y9010000D02*
X17005000Y9010000D01*
X15155000Y9010000D02*
X15155000Y8810000D01*
X17300711Y5935000D02*
G75*
G03*
X17300711Y5935000I-70711J0D01*
G01*
%TO.C,D3*%
X48250000Y6425000D02*
X48250000Y6125000D01*
X48400000Y6125000D02*
X48100000Y6125000D01*
X48100000Y6125000D02*
X48250000Y5725000D01*
X47390000Y6075000D02*
X47390000Y5775000D01*
X48400000Y5725000D02*
X48100000Y5725000D01*
X48250000Y5725000D02*
X48400000Y6125000D01*
X48250000Y5725000D02*
X48250000Y5425000D01*
%TO.C,J1*%
X18640000Y-1360000D02*
X18640000Y250000D01*
X18640000Y-1360000D02*
X26360000Y-1360000D01*
X20700000Y4460000D02*
X20700000Y5050000D01*
X26360000Y-1360000D02*
X26360000Y250000D01*
%TO.C,C7*%
X14444420Y5515000D02*
X14725580Y5515000D01*
X14444420Y4495000D02*
X14725580Y4495000D01*
%TO.C,D2*%
X48250000Y4575000D02*
X48250000Y4275000D01*
X48400000Y4275000D02*
X48100000Y4275000D01*
X48100000Y4275000D02*
X48250000Y3875000D01*
X47390000Y4225000D02*
X47390000Y3925000D01*
X48400000Y3875000D02*
X48100000Y3875000D01*
X48250000Y3875000D02*
X48400000Y4275000D01*
X48250000Y3875000D02*
X48250000Y3575000D01*
%TO.C,R1*%
X46450000Y2071359D02*
X46450000Y2378641D01*
X47210000Y2071359D02*
X47210000Y2378641D01*
%TO.C,R4*%
X36711742Y5247500D02*
X37186258Y5247500D01*
X36711742Y4202500D02*
X37186258Y4202500D01*
%TO.C,C8*%
X12035000Y2690580D02*
X12035000Y2409420D01*
X11015000Y2690580D02*
X11015000Y2409420D01*
%TO.C,C3*%
X21210580Y5775000D02*
X20929420Y5775000D01*
X21210580Y6795000D02*
X20929420Y6795000D01*
%TO.C,C9*%
X13205000Y6542164D02*
X13205000Y6757836D01*
X13925000Y6542164D02*
X13925000Y6757836D01*
%TD*%
%LPC*%
D13*
%TO.C,C6*%
X18860000Y7830000D03*
X18860000Y6280000D03*
%TD*%
D14*
%TO.C,H1*%
X6500000Y5000000D03*
%TD*%
D15*
%TO.C,U3*%
X15445000Y1620000D03*
X15445000Y2570000D03*
X15445000Y3520000D03*
X13170000Y3520000D03*
X13170000Y1620000D03*
%TD*%
D16*
%TO.C,L1*%
X36405000Y6610000D03*
X37755000Y6610000D03*
%TD*%
D17*
%TO.C,R2*%
X46830000Y7265000D03*
X46830000Y8285000D03*
%TD*%
D18*
%TO.C,C1*%
X36225000Y3250000D03*
X37775000Y3250000D03*
%TD*%
D14*
%TO.C,H2*%
X43500000Y5000000D03*
%TD*%
D19*
%TO.C,R3*%
X35940000Y2000000D03*
X36960000Y2000000D03*
%TD*%
D20*
%TO.C,J3*%
X10000000Y3725000D03*
D21*
X10000000Y6265000D03*
%TD*%
D22*
%TO.C,C5*%
X34455000Y7910000D03*
X32905000Y7910000D03*
%TD*%
D23*
%TO.C,D1*%
X47750000Y1725000D03*
X47750000Y2725000D03*
%TD*%
%TO.C,D4*%
X47750000Y7275000D03*
X47750000Y8275000D03*
%TD*%
D24*
%TO.C,U1*%
X28950000Y6375000D03*
X28950000Y5105000D03*
X28950000Y3835000D03*
X28950000Y2565000D03*
X34450000Y2565000D03*
X34450000Y3835000D03*
X34450000Y5105000D03*
X34450000Y6375000D03*
D25*
X31700000Y4470000D03*
%TD*%
D26*
%TO.C,SW1*%
X1250000Y2750000D03*
X1250000Y7250000D03*
D27*
X3750000Y1500000D03*
X3750000Y8500000D03*
%TD*%
D28*
%TO.C,C4*%
X39250000Y4725000D03*
X39250000Y6275000D03*
%TD*%
D29*
%TO.C,L2*%
X11950000Y6410000D03*
X11950000Y5060000D03*
%TD*%
D18*
%TO.C,C2*%
X28950000Y7910000D03*
X30500000Y7910000D03*
%TD*%
D15*
%TO.C,U2*%
X17217500Y6485000D03*
X17217500Y7435000D03*
X17217500Y8385000D03*
X14942500Y8385000D03*
X14942500Y7435000D03*
X14942500Y6485000D03*
%TD*%
D23*
%TO.C,D3*%
X47750000Y5425000D03*
X47750000Y6425000D03*
%TD*%
D30*
%TO.C,J1*%
X21200000Y4175000D03*
X21850000Y4175000D03*
X22500000Y4175000D03*
X23150000Y4175000D03*
X23800000Y4175000D03*
D31*
X18700000Y1500000D03*
D32*
X19400000Y4050000D03*
D33*
X21300000Y1500000D03*
X23700000Y1500000D03*
D32*
X25600000Y4050000D03*
D31*
X26300000Y1500000D03*
%TD*%
D18*
%TO.C,C7*%
X13810000Y5005000D03*
X15360000Y5005000D03*
%TD*%
D23*
%TO.C,D2*%
X47750000Y3575000D03*
X47750000Y4575000D03*
%TD*%
D17*
%TO.C,R1*%
X46830000Y1715000D03*
X46830000Y2735000D03*
%TD*%
D34*
%TO.C,R4*%
X36124000Y4725000D03*
X37774000Y4725000D03*
%TD*%
D13*
%TO.C,C8*%
X11525000Y3325000D03*
X11525000Y1775000D03*
%TD*%
D22*
%TO.C,C3*%
X21845000Y6285000D03*
X20295000Y6285000D03*
%TD*%
D20*
%TO.C,J2*%
X37785000Y8840000D03*
D21*
X40325000Y8840000D03*
%TD*%
D35*
%TO.C,C9*%
X13565000Y6170000D03*
X13565000Y7130000D03*
%TD*%
M02*
