%TF.GenerationSoftware,KiCad,Pcbnew,7.0.1*%
%TF.CreationDate,2023-03-15T21:10:10-04:00*%
%TF.ProjectId,ctm_battery c,63746d5f-6261-4747-9465-727920632e6b,1.0.0*%
%TF.SameCoordinates,PX49e8e60PY47868c0*%
%TF.FileFunction,Copper,L2,Bot*%
%TF.FilePolarity,Positive*%
%FSLAX46Y46*%
G04 Gerber Fmt 4.6, Leading zero omitted, Abs format (unit mm)*
G04 Created by KiCad (PCBNEW 7.0.1) date 2023-03-15 21:10:10*
%MOMM*%
%LPD*%
G01*
G04 APERTURE LIST*
%TA.AperFunction,ComponentPad*%
%ADD10R,1.700000X1.700000*%
%TD*%
%TA.AperFunction,ComponentPad*%
%ADD11O,1.700000X1.700000*%
%TD*%
%TA.AperFunction,ComponentPad*%
%ADD12C,1.700000*%
%TD*%
%TA.AperFunction,ComponentPad*%
%ADD13C,2.200000*%
%TD*%
%TA.AperFunction,ViaPad*%
%ADD14C,0.800000*%
%TD*%
%TA.AperFunction,ViaPad*%
%ADD15C,1.050000*%
%TD*%
%TA.AperFunction,Conductor*%
%ADD16C,0.700000*%
%TD*%
%TA.AperFunction,Conductor*%
%ADD17C,0.250000*%
%TD*%
G04 APERTURE END LIST*
D10*
%TO.P,J3,1,Pin_1*%
%TO.N,+3V0*%
X10000000Y3725000D03*
D11*
%TO.P,J3,2,Pin_2*%
%TO.N,GND*%
X10000000Y6265000D03*
%TD*%
D12*
%TO.P,SW1,1,A*%
%TO.N,Net-(SW1-A)*%
X1250000Y2750000D03*
%TO.P,SW1,2,B*%
%TO.N,GND*%
X1250000Y7250000D03*
D13*
%TO.P,SW1,3,SH1*%
X3750000Y1500000D03*
%TO.P,SW1,4,SH2*%
X3750000Y8500000D03*
%TD*%
D10*
%TO.P,J2,1,Pin_1*%
%TO.N,+BATT*%
X37785000Y8840000D03*
D11*
%TO.P,J2,2,Pin_2*%
%TO.N,GND*%
X40325000Y8840000D03*
%TD*%
D14*
%TO.N,GND*%
X39780000Y1660000D03*
X41220000Y4820000D03*
X6010000Y2790000D03*
X4450000Y4030000D03*
X42055000Y9190000D03*
X11720000Y9260000D03*
X9730000Y9240000D03*
X2425000Y6075000D03*
X20065000Y7955000D03*
X23700000Y1500000D03*
X10230000Y1775000D03*
X26300000Y1500000D03*
X45950000Y7770000D03*
X4100000Y5770000D03*
X8690000Y7915000D03*
X8625000Y1205000D03*
X42930000Y8085000D03*
X16630000Y5010000D03*
X16510000Y2575000D03*
D15*
X31700000Y5182500D03*
D14*
X31695000Y6930000D03*
X49210000Y6990000D03*
X43575000Y1675000D03*
X750000Y4175000D03*
X8500000Y3950000D03*
X45740000Y5370000D03*
X20865000Y7955000D03*
X45210000Y1865000D03*
X40755000Y3110000D03*
X31220000Y2130000D03*
D15*
X32610000Y3050000D03*
D14*
X2420000Y3700000D03*
D15*
X31700000Y3757500D03*
D14*
X49210000Y2710000D03*
X19600000Y5450000D03*
X15930000Y8385000D03*
X41690000Y1660000D03*
X750000Y5550000D03*
X46400000Y4370000D03*
X33150000Y2130000D03*
X47300000Y9205000D03*
X44960000Y3270000D03*
X5100000Y7150000D03*
X5625000Y9250000D03*
X21300000Y1500000D03*
X16990000Y1500000D03*
X13385000Y8545000D03*
X20065000Y7155000D03*
X43690000Y9230000D03*
D15*
X30775000Y3050000D03*
D14*
X44330000Y7140000D03*
X37880000Y1895000D03*
X42515000Y2965000D03*
D15*
X32600000Y4470000D03*
D14*
X18700000Y1500000D03*
X8360000Y6270000D03*
D15*
X30775000Y4470000D03*
D14*
X39250000Y7545000D03*
X17830000Y5590000D03*
X20865000Y7155000D03*
X7660000Y9230000D03*
X48590000Y5000000D03*
D15*
X32610000Y5900000D03*
D14*
X19400000Y4050000D03*
X31710000Y7910000D03*
X40540000Y6275000D03*
X46400000Y6380000D03*
X39045000Y3255000D03*
X45350000Y9195000D03*
D15*
X30775000Y5900000D03*
D14*
X10425000Y7975000D03*
X49230000Y9210000D03*
X32190000Y2130000D03*
X17540000Y4050000D03*
X7850000Y2570000D03*
X42155000Y6835000D03*
X25600000Y4050000D03*
X6895000Y7235000D03*
X47960000Y770000D03*
%TO.N,Net-(D1-K)*%
X46785000Y700000D03*
X29125000Y1630000D03*
%TO.N,Net-(SW1-A)*%
X30162972Y1934824D03*
%TD*%
D16*
%TO.N,Net-(D1-K)*%
X30105000Y650000D02*
X46735000Y650000D01*
X29125000Y1630000D02*
X30105000Y650000D01*
D17*
%TO.N,Net-(SW1-A)*%
X4450000Y3250000D02*
X3075000Y3250000D01*
X2575000Y2750000D02*
X1250000Y2750000D01*
X30162972Y1934824D02*
X29742796Y2355000D01*
X7275000Y425000D02*
X4450000Y3250000D01*
X3075000Y3250000D02*
X2575000Y2750000D01*
X29742796Y2355000D02*
X28824695Y2355000D01*
X28824695Y2355000D02*
X26894695Y425000D01*
X26894695Y425000D02*
X7275000Y425000D01*
%TD*%
%TA.AperFunction,Conductor*%
%TO.N,GND*%
G36*
X36621500Y9682619D02*
G01*
X36667619Y9636500D01*
X36684500Y9573500D01*
X36684500Y7965326D01*
X36699034Y7892260D01*
X36754399Y7809399D01*
X36837260Y7754034D01*
X36910326Y7739500D01*
X38659674Y7739500D01*
X38669518Y7739500D01*
X38674596Y7740000D01*
X39484063Y7740000D01*
X39524975Y7733173D01*
X39561453Y7713432D01*
X39579696Y7699233D01*
X39777628Y7592118D01*
X39990485Y7519045D01*
X40071000Y7505609D01*
X40071000Y8586000D01*
X40579000Y8586000D01*
X40579000Y7505609D01*
X40659514Y7519045D01*
X40872368Y7592117D01*
X41070302Y7699234D01*
X41247903Y7837467D01*
X41400321Y8003038D01*
X41523419Y8191452D01*
X41613822Y8397549D01*
X41661544Y8586000D01*
X40579000Y8586000D01*
X40071000Y8586000D01*
X40071000Y8968000D01*
X40087881Y9031000D01*
X40134000Y9077119D01*
X40197000Y9094000D01*
X41661544Y9094000D01*
X41661544Y9094001D01*
X41613822Y9282452D01*
X41523417Y9488553D01*
X41512943Y9504585D01*
X41492534Y9568293D01*
X41507612Y9633469D01*
X41553928Y9681741D01*
X41618426Y9699500D01*
X49573500Y9699500D01*
X49636500Y9682619D01*
X49682619Y9636500D01*
X49699500Y9573500D01*
X49699500Y2503806D01*
X49699270Y2496198D01*
X49683923Y2242487D01*
X49682089Y2227383D01*
X49636961Y1981126D01*
X49633320Y1966352D01*
X49558835Y1727325D01*
X49553440Y1713099D01*
X49450686Y1484787D01*
X49443614Y1471314D01*
X49314097Y1257067D01*
X49305454Y1244545D01*
X49151045Y1047457D01*
X49140955Y1036069D01*
X48963931Y859045D01*
X48952543Y848955D01*
X48755455Y694546D01*
X48742933Y685903D01*
X48528686Y556386D01*
X48515213Y549314D01*
X48286901Y446560D01*
X48272675Y441165D01*
X48033648Y366680D01*
X48018874Y363039D01*
X47772617Y317911D01*
X47757513Y316077D01*
X47519715Y301693D01*
X47458665Y313358D01*
X47410620Y352788D01*
X47387269Y410388D01*
X47394294Y472141D01*
X47421237Y543182D01*
X47440278Y700000D01*
X47421237Y856818D01*
X47365220Y1004523D01*
X47275483Y1134530D01*
X47157240Y1239283D01*
X47157238Y1239285D01*
X47017368Y1312695D01*
X47017365Y1312696D01*
X46863985Y1350500D01*
X46706015Y1350500D01*
X46552635Y1312696D01*
X46552634Y1312696D01*
X46552632Y1312695D01*
X46461631Y1264933D01*
X46403076Y1250500D01*
X30703730Y1250500D01*
X30645175Y1264933D01*
X30600034Y1304924D01*
X30578649Y1361313D01*
X30585918Y1421181D01*
X30620177Y1470813D01*
X30653455Y1500294D01*
X30743192Y1630301D01*
X30799209Y1778006D01*
X30818250Y1934824D01*
X30799209Y2091642D01*
X30743192Y2239347D01*
X30653455Y2369354D01*
X30567167Y2445798D01*
X30535210Y2474109D01*
X30395340Y2547519D01*
X30395337Y2547520D01*
X30241957Y2585324D01*
X30101483Y2585324D01*
X30060570Y2592151D01*
X30024091Y2611893D01*
X30022880Y2612836D01*
X29998003Y2632198D01*
X29986328Y2642510D01*
X29969422Y2654580D01*
X29965243Y2657696D01*
X29960600Y2661310D01*
X29923985Y2689809D01*
X29923984Y2689810D01*
X29917666Y2694727D01*
X29859871Y2711934D01*
X29854914Y2713522D01*
X29797885Y2733100D01*
X29737652Y2730608D01*
X29732445Y2730500D01*
X28876706Y2730500D01*
X28850848Y2733182D01*
X28840427Y2735368D01*
X28812985Y2731947D01*
X28809145Y2731468D01*
X28793594Y2730503D01*
X28773111Y2727085D01*
X28767966Y2726336D01*
X28708126Y2718876D01*
X28655109Y2690186D01*
X28650485Y2687806D01*
X28596291Y2661310D01*
X28555436Y2616931D01*
X28551832Y2613176D01*
X26776062Y837405D01*
X26735185Y810091D01*
X26686967Y800500D01*
X7482728Y800500D01*
X7434510Y810091D01*
X7393633Y837405D01*
X4752296Y3478742D01*
X4735908Y3498921D01*
X4730084Y3507836D01*
X4705207Y3527198D01*
X4693532Y3537510D01*
X4676626Y3549580D01*
X4672447Y3552696D01*
X4665135Y3558387D01*
X4631189Y3584809D01*
X4631188Y3584810D01*
X4624870Y3589727D01*
X4567075Y3606934D01*
X4562118Y3608522D01*
X4505089Y3628100D01*
X4444856Y3625608D01*
X4439649Y3625500D01*
X3127010Y3625500D01*
X3101153Y3628182D01*
X3099256Y3628580D01*
X3090731Y3630368D01*
X3062912Y3626900D01*
X3059450Y3626468D01*
X3043899Y3625503D01*
X3023416Y3622085D01*
X3018271Y3621336D01*
X2958431Y3613876D01*
X2905414Y3585186D01*
X2900790Y3582806D01*
X2846596Y3556310D01*
X2805741Y3511931D01*
X2802137Y3508176D01*
X2458470Y3164509D01*
X2408034Y3133681D01*
X2349089Y3129248D01*
X2294609Y3152184D01*
X2256587Y3197438D01*
X2189673Y3331821D01*
X2066764Y3494579D01*
X1916041Y3631981D01*
X1916038Y3631983D01*
X1916037Y3631984D01*
X1742640Y3739347D01*
X1552456Y3813024D01*
X1551948Y3813119D01*
X1351976Y3850500D01*
X1148024Y3850500D01*
X1014370Y3825517D01*
X947543Y3813024D01*
X757359Y3739347D01*
X583958Y3631982D01*
X511385Y3565822D01*
X460981Y3537747D01*
X403347Y3535082D01*
X350568Y3558387D01*
X313709Y3602774D01*
X300500Y3658937D01*
X300500Y4932234D01*
X4645787Y4932234D01*
X4675413Y4662985D01*
X4675414Y4662982D01*
X4743928Y4400912D01*
X4849870Y4151610D01*
X4990982Y3920390D01*
X5164255Y3712180D01*
X5164256Y3712179D01*
X5164258Y3712177D01*
X5365993Y3531422D01*
X5365995Y3531421D01*
X5365998Y3531418D01*
X5591910Y3381956D01*
X5698858Y3331821D01*
X5837171Y3266982D01*
X5837173Y3266982D01*
X5837176Y3266980D01*
X6096569Y3188940D01*
X6096572Y3188940D01*
X6096574Y3188939D01*
X6364558Y3149500D01*
X6364561Y3149500D01*
X6567630Y3149500D01*
X6567631Y3149500D01*
X6770156Y3164323D01*
X7034553Y3223220D01*
X7287558Y3319986D01*
X7523777Y3452559D01*
X7738177Y3618112D01*
X7926186Y3813119D01*
X8083799Y4033421D01*
X8207656Y4274325D01*
X8295118Y4530695D01*
X8344319Y4797067D01*
X8354212Y5067765D01*
X8324586Y5337018D01*
X8256072Y5599088D01*
X8150130Y5848390D01*
X8050890Y6011000D01*
X8663455Y6011000D01*
X8711177Y5822549D01*
X8801580Y5616452D01*
X8879483Y5497213D01*
X8894762Y5464249D01*
X8900000Y5428297D01*
X8900000Y4614596D01*
X8899500Y4609518D01*
X8899500Y4599674D01*
X8899500Y2850326D01*
X8914034Y2777260D01*
X8969399Y2694399D01*
X9052260Y2639034D01*
X9125326Y2624500D01*
X10874673Y2624500D01*
X10874674Y2624500D01*
X10947740Y2639034D01*
X11030601Y2694399D01*
X11085966Y2777260D01*
X11100500Y2850326D01*
X11100500Y4599674D01*
X11100500Y4609518D01*
X11100000Y4614596D01*
X11100000Y4932234D01*
X41645787Y4932234D01*
X41675413Y4662985D01*
X41675414Y4662982D01*
X41743928Y4400912D01*
X41849870Y4151610D01*
X41990982Y3920390D01*
X42164255Y3712180D01*
X42164256Y3712179D01*
X42164258Y3712177D01*
X42365993Y3531422D01*
X42365995Y3531421D01*
X42365998Y3531418D01*
X42591910Y3381956D01*
X42698858Y3331821D01*
X42837171Y3266982D01*
X42837173Y3266982D01*
X42837176Y3266980D01*
X43096569Y3188940D01*
X43096572Y3188940D01*
X43096574Y3188939D01*
X43364558Y3149500D01*
X43364561Y3149500D01*
X43567630Y3149500D01*
X43567631Y3149500D01*
X43770156Y3164323D01*
X44034553Y3223220D01*
X44287558Y3319986D01*
X44523777Y3452559D01*
X44738177Y3618112D01*
X44926186Y3813119D01*
X45083799Y4033421D01*
X45207656Y4274325D01*
X45295118Y4530695D01*
X45344319Y4797067D01*
X45354212Y5067765D01*
X45324586Y5337018D01*
X45256072Y5599088D01*
X45150130Y5848390D01*
X45009018Y6079610D01*
X44835745Y6287820D01*
X44730759Y6381888D01*
X44634006Y6468579D01*
X44634003Y6468581D01*
X44634002Y6468582D01*
X44408090Y6618044D01*
X44408086Y6618046D01*
X44162828Y6733019D01*
X43903425Y6811062D01*
X43635442Y6850500D01*
X43635439Y6850500D01*
X43432369Y6850500D01*
X43398614Y6848030D01*
X43229839Y6835677D01*
X42965449Y6776781D01*
X42712441Y6680015D01*
X42476225Y6547443D01*
X42261820Y6381886D01*
X42073815Y6186883D01*
X41916200Y5966578D01*
X41792342Y5725672D01*
X41704882Y5469307D01*
X41655681Y5202935D01*
X41645787Y4932234D01*
X11100000Y4932234D01*
X11100000Y5428297D01*
X11105238Y5464249D01*
X11120517Y5497213D01*
X11198419Y5616452D01*
X11288822Y5822549D01*
X11336544Y6011000D01*
X8663455Y6011000D01*
X8050890Y6011000D01*
X8009018Y6079610D01*
X7835745Y6287820D01*
X7730759Y6381888D01*
X7634006Y6468579D01*
X7634003Y6468581D01*
X7634002Y6468582D01*
X7557794Y6519001D01*
X8663455Y6519001D01*
X8663456Y6519000D01*
X9746000Y6519000D01*
X9746000Y7599391D01*
X10254000Y7599391D01*
X10254000Y6519000D01*
X11336544Y6519000D01*
X11336544Y6519001D01*
X11288822Y6707452D01*
X11198419Y6913549D01*
X11075321Y7101963D01*
X10922903Y7267534D01*
X10745302Y7405767D01*
X10547368Y7512884D01*
X10334514Y7585956D01*
X10254000Y7599391D01*
X9746000Y7599391D01*
X9665485Y7585956D01*
X9452631Y7512884D01*
X9254697Y7405767D01*
X9077096Y7267534D01*
X8924678Y7101963D01*
X8801580Y6913549D01*
X8711177Y6707452D01*
X8663455Y6519001D01*
X7557794Y6519001D01*
X7408090Y6618044D01*
X7408086Y6618046D01*
X7162828Y6733019D01*
X6903425Y6811062D01*
X6635442Y6850500D01*
X6635439Y6850500D01*
X6432369Y6850500D01*
X6398614Y6848030D01*
X6229839Y6835677D01*
X5965449Y6776781D01*
X5712441Y6680015D01*
X5476225Y6547443D01*
X5261820Y6381886D01*
X5073815Y6186883D01*
X4916200Y5966578D01*
X4792342Y5725672D01*
X4704882Y5469307D01*
X4655681Y5202935D01*
X4645787Y4932234D01*
X300500Y4932234D01*
X300500Y6010430D01*
X319616Y6077152D01*
X371163Y6123628D01*
X439501Y6135757D01*
X495084Y6113403D01*
X495517Y6114202D01*
X502523Y6110411D01*
X503894Y6109859D01*
X504696Y6109235D01*
X702631Y6002117D01*
X915491Y5929043D01*
X1137470Y5892000D01*
X1362530Y5892000D01*
X1584508Y5929043D01*
X1797368Y6002117D01*
X1995305Y6109236D01*
X2015688Y6125101D01*
X2015689Y6125102D01*
X979885Y7160906D01*
X947273Y7217390D01*
X947273Y7282612D01*
X979885Y7339096D01*
X1160904Y7520115D01*
X1217388Y7552727D01*
X1282610Y7552727D01*
X1339094Y7520115D01*
X2373076Y6486133D01*
X2373077Y6486134D01*
X2448418Y6601449D01*
X2538819Y6807543D01*
X2594068Y7025716D01*
X2600595Y7104483D01*
X2624463Y7168461D01*
X2678202Y7210592D01*
X2746027Y7218503D01*
X2791712Y7197401D01*
X2793464Y7200259D01*
X3017722Y7062833D01*
X3251562Y6965973D01*
X3497675Y6906887D01*
X3749999Y6887029D01*
X4002324Y6906887D01*
X4248437Y6965973D01*
X4482277Y7062833D01*
X4696611Y7194178D01*
X4696611Y7194180D01*
X3479885Y8410906D01*
X3447273Y8467390D01*
X3447273Y8532612D01*
X3479885Y8589096D01*
X3660904Y8770115D01*
X3717388Y8802727D01*
X3782610Y8802727D01*
X3839094Y8770115D01*
X5055820Y7553389D01*
X5055822Y7553389D01*
X5187167Y7767723D01*
X5284027Y8001563D01*
X5343113Y8247676D01*
X5362971Y8500001D01*
X5343113Y8752325D01*
X5284027Y8998438D01*
X5187167Y9232278D01*
X5054922Y9448082D01*
X5017694Y9491670D01*
X4988693Y9556237D01*
X4999079Y9626251D01*
X5045574Y9679619D01*
X5113505Y9699500D01*
X36558500Y9699500D01*
X36621500Y9682619D01*
G37*
%TD.AperFunction*%
%TD*%
M02*
