%TF.GenerationSoftware,KiCad,Pcbnew,7.0.1*%
%TF.CreationDate,2023-03-13T23:28:55-04:00*%
%TF.ProjectId,ctm_battery,63746d5f-6261-4747-9465-72792e6b6963,1.0.0*%
%TF.SameCoordinates,Original*%
%TF.FileFunction,Legend,Bot*%
%TF.FilePolarity,Positive*%
%FSLAX46Y46*%
G04 Gerber Fmt 4.6, Leading zero omitted, Abs format (unit mm)*
G04 Created by KiCad (PCBNEW 7.0.1) date 2023-03-13 23:28:55*
%MOMM*%
%LPD*%
G01*
G04 APERTURE LIST*
%ADD10C,0.120000*%
%ADD11C,0.150000*%
%ADD12C,3.200000*%
%ADD13R,1.700000X1.700000*%
%ADD14O,1.700000X1.700000*%
%ADD15C,1.700000*%
%ADD16C,2.200000*%
G04 APERTURE END LIST*
D10*
X97250000Y-67250000D02*
X97250000Y-65250000D01*
X113620000Y-65660000D02*
X113620000Y-66660000D01*
X97250000Y-72750000D02*
X102750000Y-67250000D01*
X98250000Y-67250000D02*
X98750000Y-67250000D01*
X89250000Y-71500000D02*
X89250000Y-72500000D01*
X89250000Y-68500000D02*
X89250000Y-67500000D01*
X87500000Y-69700000D02*
X87500000Y-70300000D01*
X114120000Y-66160000D02*
X113120000Y-66160000D01*
X99250000Y-67250000D02*
X99750000Y-67250000D01*
X102250000Y-67250000D02*
X102750000Y-67250000D01*
X87500000Y-67250000D02*
X87500000Y-67800000D01*
X87500000Y-67250000D02*
X97250000Y-67250000D01*
X100250000Y-67250000D02*
X100750000Y-67250000D01*
X100250000Y-68750000D02*
X100560000Y-68590000D01*
X100250000Y-70750000D02*
G75*
G03*
X100250000Y-68750000I0J1000000D01*
G01*
X87500000Y-72200000D02*
X87500000Y-72750000D01*
X101250000Y-67250000D02*
X101750000Y-67250000D01*
X88750000Y-72000000D02*
X89750000Y-72000000D01*
X119930000Y-66160000D02*
X118930000Y-66160000D01*
X97250000Y-67250000D02*
X97750000Y-67250000D01*
X102750000Y-67250000D02*
X102750000Y-65250000D01*
X100250000Y-68750000D02*
X100500000Y-69000000D01*
X87500000Y-72750000D02*
X97250000Y-72750000D01*
X97250000Y-67250000D02*
X97250000Y-72750000D01*
D11*
X116480476Y-70097380D02*
X116528095Y-70145000D01*
X116528095Y-70145000D02*
X116670952Y-70192619D01*
X116670952Y-70192619D02*
X116766190Y-70192619D01*
X116766190Y-70192619D02*
X116909047Y-70145000D01*
X116909047Y-70145000D02*
X117004285Y-70049761D01*
X117004285Y-70049761D02*
X117051904Y-69954523D01*
X117051904Y-69954523D02*
X117099523Y-69764047D01*
X117099523Y-69764047D02*
X117099523Y-69621190D01*
X117099523Y-69621190D02*
X117051904Y-69430714D01*
X117051904Y-69430714D02*
X117004285Y-69335476D01*
X117004285Y-69335476D02*
X116909047Y-69240238D01*
X116909047Y-69240238D02*
X116766190Y-69192619D01*
X116766190Y-69192619D02*
X116670952Y-69192619D01*
X116670952Y-69192619D02*
X116528095Y-69240238D01*
X116528095Y-69240238D02*
X116480476Y-69287857D01*
X116194761Y-69192619D02*
X115623333Y-69192619D01*
X115909047Y-70192619D02*
X115909047Y-69192619D01*
X115289999Y-70192619D02*
X115289999Y-69192619D01*
X115289999Y-69192619D02*
X114956666Y-69906904D01*
X114956666Y-69906904D02*
X114623333Y-69192619D01*
X114623333Y-69192619D02*
X114623333Y-70192619D01*
X113051904Y-69668809D02*
X112909047Y-69716428D01*
X112909047Y-69716428D02*
X112861428Y-69764047D01*
X112861428Y-69764047D02*
X112813809Y-69859285D01*
X112813809Y-69859285D02*
X112813809Y-70002142D01*
X112813809Y-70002142D02*
X112861428Y-70097380D01*
X112861428Y-70097380D02*
X112909047Y-70145000D01*
X112909047Y-70145000D02*
X113004285Y-70192619D01*
X113004285Y-70192619D02*
X113385237Y-70192619D01*
X113385237Y-70192619D02*
X113385237Y-69192619D01*
X113385237Y-69192619D02*
X113051904Y-69192619D01*
X113051904Y-69192619D02*
X112956666Y-69240238D01*
X112956666Y-69240238D02*
X112909047Y-69287857D01*
X112909047Y-69287857D02*
X112861428Y-69383095D01*
X112861428Y-69383095D02*
X112861428Y-69478333D01*
X112861428Y-69478333D02*
X112909047Y-69573571D01*
X112909047Y-69573571D02*
X112956666Y-69621190D01*
X112956666Y-69621190D02*
X113051904Y-69668809D01*
X113051904Y-69668809D02*
X113385237Y-69668809D01*
X111956666Y-70192619D02*
X111956666Y-69668809D01*
X111956666Y-69668809D02*
X112004285Y-69573571D01*
X112004285Y-69573571D02*
X112099523Y-69525952D01*
X112099523Y-69525952D02*
X112289999Y-69525952D01*
X112289999Y-69525952D02*
X112385237Y-69573571D01*
X111956666Y-70145000D02*
X112051904Y-70192619D01*
X112051904Y-70192619D02*
X112289999Y-70192619D01*
X112289999Y-70192619D02*
X112385237Y-70145000D01*
X112385237Y-70145000D02*
X112432856Y-70049761D01*
X112432856Y-70049761D02*
X112432856Y-69954523D01*
X112432856Y-69954523D02*
X112385237Y-69859285D01*
X112385237Y-69859285D02*
X112289999Y-69811666D01*
X112289999Y-69811666D02*
X112051904Y-69811666D01*
X112051904Y-69811666D02*
X111956666Y-69764047D01*
X111623332Y-69525952D02*
X111242380Y-69525952D01*
X111480475Y-69192619D02*
X111480475Y-70049761D01*
X111480475Y-70049761D02*
X111432856Y-70145000D01*
X111432856Y-70145000D02*
X111337618Y-70192619D01*
X111337618Y-70192619D02*
X111242380Y-70192619D01*
X111051903Y-69525952D02*
X110670951Y-69525952D01*
X110909046Y-69192619D02*
X110909046Y-70049761D01*
X110909046Y-70049761D02*
X110861427Y-70145000D01*
X110861427Y-70145000D02*
X110766189Y-70192619D01*
X110766189Y-70192619D02*
X110670951Y-70192619D01*
X109956665Y-70145000D02*
X110051903Y-70192619D01*
X110051903Y-70192619D02*
X110242379Y-70192619D01*
X110242379Y-70192619D02*
X110337617Y-70145000D01*
X110337617Y-70145000D02*
X110385236Y-70049761D01*
X110385236Y-70049761D02*
X110385236Y-69668809D01*
X110385236Y-69668809D02*
X110337617Y-69573571D01*
X110337617Y-69573571D02*
X110242379Y-69525952D01*
X110242379Y-69525952D02*
X110051903Y-69525952D01*
X110051903Y-69525952D02*
X109956665Y-69573571D01*
X109956665Y-69573571D02*
X109909046Y-69668809D01*
X109909046Y-69668809D02*
X109909046Y-69764047D01*
X109909046Y-69764047D02*
X110385236Y-69859285D01*
X109480474Y-70192619D02*
X109480474Y-69525952D01*
X109480474Y-69716428D02*
X109432855Y-69621190D01*
X109432855Y-69621190D02*
X109385236Y-69573571D01*
X109385236Y-69573571D02*
X109289998Y-69525952D01*
X109289998Y-69525952D02*
X109194760Y-69525952D01*
X108956664Y-69525952D02*
X108718569Y-70192619D01*
X108480474Y-69525952D02*
X108718569Y-70192619D01*
X108718569Y-70192619D02*
X108813807Y-70430714D01*
X108813807Y-70430714D02*
X108861426Y-70478333D01*
X108861426Y-70478333D02*
X108956664Y-70525952D01*
X107385235Y-69906904D02*
X106909045Y-69906904D01*
X107480473Y-70192619D02*
X107147140Y-69192619D01*
X107147140Y-69192619D02*
X106813807Y-70192619D01*
X106051902Y-70192619D02*
X106051902Y-69192619D01*
X106051902Y-70145000D02*
X106147140Y-70192619D01*
X106147140Y-70192619D02*
X106337616Y-70192619D01*
X106337616Y-70192619D02*
X106432854Y-70145000D01*
X106432854Y-70145000D02*
X106480473Y-70097380D01*
X106480473Y-70097380D02*
X106528092Y-70002142D01*
X106528092Y-70002142D02*
X106528092Y-69716428D01*
X106528092Y-69716428D02*
X106480473Y-69621190D01*
X106480473Y-69621190D02*
X106432854Y-69573571D01*
X106432854Y-69573571D02*
X106337616Y-69525952D01*
X106337616Y-69525952D02*
X106147140Y-69525952D01*
X106147140Y-69525952D02*
X106051902Y-69573571D01*
X105147140Y-70192619D02*
X105147140Y-69668809D01*
X105147140Y-69668809D02*
X105194759Y-69573571D01*
X105194759Y-69573571D02*
X105289997Y-69525952D01*
X105289997Y-69525952D02*
X105480473Y-69525952D01*
X105480473Y-69525952D02*
X105575711Y-69573571D01*
X105147140Y-70145000D02*
X105242378Y-70192619D01*
X105242378Y-70192619D02*
X105480473Y-70192619D01*
X105480473Y-70192619D02*
X105575711Y-70145000D01*
X105575711Y-70145000D02*
X105623330Y-70049761D01*
X105623330Y-70049761D02*
X105623330Y-69954523D01*
X105623330Y-69954523D02*
X105575711Y-69859285D01*
X105575711Y-69859285D02*
X105480473Y-69811666D01*
X105480473Y-69811666D02*
X105242378Y-69811666D01*
X105242378Y-69811666D02*
X105147140Y-69764047D01*
X104670949Y-69525952D02*
X104670949Y-70525952D01*
X104670949Y-69573571D02*
X104575711Y-69525952D01*
X104575711Y-69525952D02*
X104385235Y-69525952D01*
X104385235Y-69525952D02*
X104289997Y-69573571D01*
X104289997Y-69573571D02*
X104242378Y-69621190D01*
X104242378Y-69621190D02*
X104194759Y-69716428D01*
X104194759Y-69716428D02*
X104194759Y-70002142D01*
X104194759Y-70002142D02*
X104242378Y-70097380D01*
X104242378Y-70097380D02*
X104289997Y-70145000D01*
X104289997Y-70145000D02*
X104385235Y-70192619D01*
X104385235Y-70192619D02*
X104575711Y-70192619D01*
X104575711Y-70192619D02*
X104670949Y-70145000D01*
X103909044Y-69525952D02*
X103528092Y-69525952D01*
X103766187Y-69192619D02*
X103766187Y-70049761D01*
X103766187Y-70049761D02*
X103718568Y-70145000D01*
X103718568Y-70145000D02*
X103623330Y-70192619D01*
X103623330Y-70192619D02*
X103528092Y-70192619D01*
X102813806Y-70145000D02*
X102909044Y-70192619D01*
X102909044Y-70192619D02*
X103099520Y-70192619D01*
X103099520Y-70192619D02*
X103194758Y-70145000D01*
X103194758Y-70145000D02*
X103242377Y-70049761D01*
X103242377Y-70049761D02*
X103242377Y-69668809D01*
X103242377Y-69668809D02*
X103194758Y-69573571D01*
X103194758Y-69573571D02*
X103099520Y-69525952D01*
X103099520Y-69525952D02*
X102909044Y-69525952D01*
X102909044Y-69525952D02*
X102813806Y-69573571D01*
X102813806Y-69573571D02*
X102766187Y-69668809D01*
X102766187Y-69668809D02*
X102766187Y-69764047D01*
X102766187Y-69764047D02*
X103242377Y-69859285D01*
X102337615Y-70192619D02*
X102337615Y-69525952D01*
X102337615Y-69716428D02*
X102289996Y-69621190D01*
X102289996Y-69621190D02*
X102242377Y-69573571D01*
X102242377Y-69573571D02*
X102147139Y-69525952D01*
X102147139Y-69525952D02*
X102051901Y-69525952D01*
X117194761Y-70812619D02*
X116861428Y-71812619D01*
X116861428Y-71812619D02*
X116528095Y-70812619D01*
X115813809Y-71765000D02*
X115909047Y-71812619D01*
X115909047Y-71812619D02*
X116099523Y-71812619D01*
X116099523Y-71812619D02*
X116194761Y-71765000D01*
X116194761Y-71765000D02*
X116242380Y-71669761D01*
X116242380Y-71669761D02*
X116242380Y-71288809D01*
X116242380Y-71288809D02*
X116194761Y-71193571D01*
X116194761Y-71193571D02*
X116099523Y-71145952D01*
X116099523Y-71145952D02*
X115909047Y-71145952D01*
X115909047Y-71145952D02*
X115813809Y-71193571D01*
X115813809Y-71193571D02*
X115766190Y-71288809D01*
X115766190Y-71288809D02*
X115766190Y-71384047D01*
X115766190Y-71384047D02*
X116242380Y-71479285D01*
X115337618Y-71812619D02*
X115337618Y-71145952D01*
X115337618Y-71336428D02*
X115289999Y-71241190D01*
X115289999Y-71241190D02*
X115242380Y-71193571D01*
X115242380Y-71193571D02*
X115147142Y-71145952D01*
X115147142Y-71145952D02*
X115051904Y-71145952D01*
X114766189Y-71765000D02*
X114670951Y-71812619D01*
X114670951Y-71812619D02*
X114480475Y-71812619D01*
X114480475Y-71812619D02*
X114385237Y-71765000D01*
X114385237Y-71765000D02*
X114337618Y-71669761D01*
X114337618Y-71669761D02*
X114337618Y-71622142D01*
X114337618Y-71622142D02*
X114385237Y-71526904D01*
X114385237Y-71526904D02*
X114480475Y-71479285D01*
X114480475Y-71479285D02*
X114623332Y-71479285D01*
X114623332Y-71479285D02*
X114718570Y-71431666D01*
X114718570Y-71431666D02*
X114766189Y-71336428D01*
X114766189Y-71336428D02*
X114766189Y-71288809D01*
X114766189Y-71288809D02*
X114718570Y-71193571D01*
X114718570Y-71193571D02*
X114623332Y-71145952D01*
X114623332Y-71145952D02*
X114480475Y-71145952D01*
X114480475Y-71145952D02*
X114385237Y-71193571D01*
X113909046Y-71812619D02*
X113909046Y-71145952D01*
X113909046Y-70812619D02*
X113956665Y-70860238D01*
X113956665Y-70860238D02*
X113909046Y-70907857D01*
X113909046Y-70907857D02*
X113861427Y-70860238D01*
X113861427Y-70860238D02*
X113909046Y-70812619D01*
X113909046Y-70812619D02*
X113909046Y-70907857D01*
X113289999Y-71812619D02*
X113385237Y-71765000D01*
X113385237Y-71765000D02*
X113432856Y-71717380D01*
X113432856Y-71717380D02*
X113480475Y-71622142D01*
X113480475Y-71622142D02*
X113480475Y-71336428D01*
X113480475Y-71336428D02*
X113432856Y-71241190D01*
X113432856Y-71241190D02*
X113385237Y-71193571D01*
X113385237Y-71193571D02*
X113289999Y-71145952D01*
X113289999Y-71145952D02*
X113147142Y-71145952D01*
X113147142Y-71145952D02*
X113051904Y-71193571D01*
X113051904Y-71193571D02*
X113004285Y-71241190D01*
X113004285Y-71241190D02*
X112956666Y-71336428D01*
X112956666Y-71336428D02*
X112956666Y-71622142D01*
X112956666Y-71622142D02*
X113004285Y-71717380D01*
X113004285Y-71717380D02*
X113051904Y-71765000D01*
X113051904Y-71765000D02*
X113147142Y-71812619D01*
X113147142Y-71812619D02*
X113289999Y-71812619D01*
X112528094Y-71145952D02*
X112528094Y-71812619D01*
X112528094Y-71241190D02*
X112480475Y-71193571D01*
X112480475Y-71193571D02*
X112385237Y-71145952D01*
X112385237Y-71145952D02*
X112242380Y-71145952D01*
X112242380Y-71145952D02*
X112147142Y-71193571D01*
X112147142Y-71193571D02*
X112099523Y-71288809D01*
X112099523Y-71288809D02*
X112099523Y-71812619D01*
X110337618Y-71812619D02*
X110909046Y-71812619D01*
X110623332Y-71812619D02*
X110623332Y-70812619D01*
X110623332Y-70812619D02*
X110718570Y-70955476D01*
X110718570Y-70955476D02*
X110813808Y-71050714D01*
X110813808Y-71050714D02*
X110909046Y-71098333D01*
X109909046Y-71717380D02*
X109861427Y-71765000D01*
X109861427Y-71765000D02*
X109909046Y-71812619D01*
X109909046Y-71812619D02*
X109956665Y-71765000D01*
X109956665Y-71765000D02*
X109909046Y-71717380D01*
X109909046Y-71717380D02*
X109909046Y-71812619D01*
X109242380Y-70812619D02*
X109147142Y-70812619D01*
X109147142Y-70812619D02*
X109051904Y-70860238D01*
X109051904Y-70860238D02*
X109004285Y-70907857D01*
X109004285Y-70907857D02*
X108956666Y-71003095D01*
X108956666Y-71003095D02*
X108909047Y-71193571D01*
X108909047Y-71193571D02*
X108909047Y-71431666D01*
X108909047Y-71431666D02*
X108956666Y-71622142D01*
X108956666Y-71622142D02*
X109004285Y-71717380D01*
X109004285Y-71717380D02*
X109051904Y-71765000D01*
X109051904Y-71765000D02*
X109147142Y-71812619D01*
X109147142Y-71812619D02*
X109242380Y-71812619D01*
X109242380Y-71812619D02*
X109337618Y-71765000D01*
X109337618Y-71765000D02*
X109385237Y-71717380D01*
X109385237Y-71717380D02*
X109432856Y-71622142D01*
X109432856Y-71622142D02*
X109480475Y-71431666D01*
X109480475Y-71431666D02*
X109480475Y-71193571D01*
X109480475Y-71193571D02*
X109432856Y-71003095D01*
X109432856Y-71003095D02*
X109385237Y-70907857D01*
X109385237Y-70907857D02*
X109337618Y-70860238D01*
X109337618Y-70860238D02*
X109242380Y-70812619D01*
X108480475Y-71717380D02*
X108432856Y-71765000D01*
X108432856Y-71765000D02*
X108480475Y-71812619D01*
X108480475Y-71812619D02*
X108528094Y-71765000D01*
X108528094Y-71765000D02*
X108480475Y-71717380D01*
X108480475Y-71717380D02*
X108480475Y-71812619D01*
X107813809Y-70812619D02*
X107718571Y-70812619D01*
X107718571Y-70812619D02*
X107623333Y-70860238D01*
X107623333Y-70860238D02*
X107575714Y-70907857D01*
X107575714Y-70907857D02*
X107528095Y-71003095D01*
X107528095Y-71003095D02*
X107480476Y-71193571D01*
X107480476Y-71193571D02*
X107480476Y-71431666D01*
X107480476Y-71431666D02*
X107528095Y-71622142D01*
X107528095Y-71622142D02*
X107575714Y-71717380D01*
X107575714Y-71717380D02*
X107623333Y-71765000D01*
X107623333Y-71765000D02*
X107718571Y-71812619D01*
X107718571Y-71812619D02*
X107813809Y-71812619D01*
X107813809Y-71812619D02*
X107909047Y-71765000D01*
X107909047Y-71765000D02*
X107956666Y-71717380D01*
X107956666Y-71717380D02*
X108004285Y-71622142D01*
X108004285Y-71622142D02*
X108051904Y-71431666D01*
X108051904Y-71431666D02*
X108051904Y-71193571D01*
X108051904Y-71193571D02*
X108004285Y-71003095D01*
X108004285Y-71003095D02*
X107956666Y-70907857D01*
X107956666Y-70907857D02*
X107909047Y-70860238D01*
X107909047Y-70860238D02*
X107813809Y-70812619D01*
X117147142Y-72432619D02*
X116528095Y-72432619D01*
X116528095Y-72432619D02*
X116861428Y-72813571D01*
X116861428Y-72813571D02*
X116718571Y-72813571D01*
X116718571Y-72813571D02*
X116623333Y-72861190D01*
X116623333Y-72861190D02*
X116575714Y-72908809D01*
X116575714Y-72908809D02*
X116528095Y-73004047D01*
X116528095Y-73004047D02*
X116528095Y-73242142D01*
X116528095Y-73242142D02*
X116575714Y-73337380D01*
X116575714Y-73337380D02*
X116623333Y-73385000D01*
X116623333Y-73385000D02*
X116718571Y-73432619D01*
X116718571Y-73432619D02*
X117004285Y-73432619D01*
X117004285Y-73432619D02*
X117099523Y-73385000D01*
X117099523Y-73385000D02*
X117147142Y-73337380D01*
X115385238Y-72385000D02*
X116242380Y-73670714D01*
X114909047Y-72861190D02*
X115004285Y-72813571D01*
X115004285Y-72813571D02*
X115051904Y-72765952D01*
X115051904Y-72765952D02*
X115099523Y-72670714D01*
X115099523Y-72670714D02*
X115099523Y-72623095D01*
X115099523Y-72623095D02*
X115051904Y-72527857D01*
X115051904Y-72527857D02*
X115004285Y-72480238D01*
X115004285Y-72480238D02*
X114909047Y-72432619D01*
X114909047Y-72432619D02*
X114718571Y-72432619D01*
X114718571Y-72432619D02*
X114623333Y-72480238D01*
X114623333Y-72480238D02*
X114575714Y-72527857D01*
X114575714Y-72527857D02*
X114528095Y-72623095D01*
X114528095Y-72623095D02*
X114528095Y-72670714D01*
X114528095Y-72670714D02*
X114575714Y-72765952D01*
X114575714Y-72765952D02*
X114623333Y-72813571D01*
X114623333Y-72813571D02*
X114718571Y-72861190D01*
X114718571Y-72861190D02*
X114909047Y-72861190D01*
X114909047Y-72861190D02*
X115004285Y-72908809D01*
X115004285Y-72908809D02*
X115051904Y-72956428D01*
X115051904Y-72956428D02*
X115099523Y-73051666D01*
X115099523Y-73051666D02*
X115099523Y-73242142D01*
X115099523Y-73242142D02*
X115051904Y-73337380D01*
X115051904Y-73337380D02*
X115004285Y-73385000D01*
X115004285Y-73385000D02*
X114909047Y-73432619D01*
X114909047Y-73432619D02*
X114718571Y-73432619D01*
X114718571Y-73432619D02*
X114623333Y-73385000D01*
X114623333Y-73385000D02*
X114575714Y-73337380D01*
X114575714Y-73337380D02*
X114528095Y-73242142D01*
X114528095Y-73242142D02*
X114528095Y-73051666D01*
X114528095Y-73051666D02*
X114575714Y-72956428D01*
X114575714Y-72956428D02*
X114623333Y-72908809D01*
X114623333Y-72908809D02*
X114718571Y-72861190D01*
X113385238Y-72385000D02*
X114242380Y-73670714D01*
X113099523Y-72527857D02*
X113051904Y-72480238D01*
X113051904Y-72480238D02*
X112956666Y-72432619D01*
X112956666Y-72432619D02*
X112718571Y-72432619D01*
X112718571Y-72432619D02*
X112623333Y-72480238D01*
X112623333Y-72480238D02*
X112575714Y-72527857D01*
X112575714Y-72527857D02*
X112528095Y-72623095D01*
X112528095Y-72623095D02*
X112528095Y-72718333D01*
X112528095Y-72718333D02*
X112575714Y-72861190D01*
X112575714Y-72861190D02*
X113147142Y-73432619D01*
X113147142Y-73432619D02*
X112528095Y-73432619D01*
X112194761Y-72432619D02*
X111575714Y-72432619D01*
X111575714Y-72432619D02*
X111909047Y-72813571D01*
X111909047Y-72813571D02*
X111766190Y-72813571D01*
X111766190Y-72813571D02*
X111670952Y-72861190D01*
X111670952Y-72861190D02*
X111623333Y-72908809D01*
X111623333Y-72908809D02*
X111575714Y-73004047D01*
X111575714Y-73004047D02*
X111575714Y-73242142D01*
X111575714Y-73242142D02*
X111623333Y-73337380D01*
X111623333Y-73337380D02*
X111670952Y-73385000D01*
X111670952Y-73385000D02*
X111766190Y-73432619D01*
X111766190Y-73432619D02*
X112051904Y-73432619D01*
X112051904Y-73432619D02*
X112147142Y-73385000D01*
X112147142Y-73385000D02*
X112194761Y-73337380D01*
X89426904Y-68904762D02*
X89426904Y-69380952D01*
X89712619Y-68809524D02*
X88712619Y-69142857D01*
X88712619Y-69142857D02*
X89712619Y-69476190D01*
X89426904Y-69761905D02*
X89426904Y-70238095D01*
X89712619Y-69666667D02*
X88712619Y-70000000D01*
X88712619Y-70000000D02*
X89712619Y-70333333D01*
X89426904Y-70619048D02*
X89426904Y-71095238D01*
X89712619Y-70523810D02*
X88712619Y-70857143D01*
X88712619Y-70857143D02*
X89712619Y-71190476D01*
X117320952Y-68252619D02*
X117797142Y-68252619D01*
X117797142Y-68252619D02*
X117797142Y-67252619D01*
X116987618Y-68252619D02*
X116987618Y-67585952D01*
X116987618Y-67252619D02*
X117035237Y-67300238D01*
X117035237Y-67300238D02*
X116987618Y-67347857D01*
X116987618Y-67347857D02*
X116939999Y-67300238D01*
X116939999Y-67300238D02*
X116987618Y-67252619D01*
X116987618Y-67252619D02*
X116987618Y-67347857D01*
X116511428Y-68252619D02*
X116511428Y-67252619D01*
X116511428Y-67252619D02*
X116130476Y-67252619D01*
X116130476Y-67252619D02*
X116035238Y-67300238D01*
X116035238Y-67300238D02*
X115987619Y-67347857D01*
X115987619Y-67347857D02*
X115940000Y-67443095D01*
X115940000Y-67443095D02*
X115940000Y-67585952D01*
X115940000Y-67585952D02*
X115987619Y-67681190D01*
X115987619Y-67681190D02*
X116035238Y-67728809D01*
X116035238Y-67728809D02*
X116130476Y-67776428D01*
X116130476Y-67776428D02*
X116511428Y-67776428D01*
X115368571Y-68252619D02*
X115463809Y-68205000D01*
X115463809Y-68205000D02*
X115511428Y-68157380D01*
X115511428Y-68157380D02*
X115559047Y-68062142D01*
X115559047Y-68062142D02*
X115559047Y-67776428D01*
X115559047Y-67776428D02*
X115511428Y-67681190D01*
X115511428Y-67681190D02*
X115463809Y-67633571D01*
X115463809Y-67633571D02*
X115368571Y-67585952D01*
X115368571Y-67585952D02*
X115225714Y-67585952D01*
X115225714Y-67585952D02*
X115130476Y-67633571D01*
X115130476Y-67633571D02*
X115082857Y-67681190D01*
X115082857Y-67681190D02*
X115035238Y-67776428D01*
X115035238Y-67776428D02*
X115035238Y-68062142D01*
X115035238Y-68062142D02*
X115082857Y-68157380D01*
X115082857Y-68157380D02*
X115130476Y-68205000D01*
X115130476Y-68205000D02*
X115225714Y-68252619D01*
X115225714Y-68252619D02*
X115368571Y-68252619D01*
%LPC*%
D12*
%TO.C,H1*%
X84000000Y-70000000D03*
%TD*%
%TO.C,H2*%
X121000000Y-70000000D03*
%TD*%
D13*
%TO.C,J3*%
X87500000Y-71275000D03*
D14*
X87500000Y-68735000D03*
%TD*%
D15*
%TO.C,SW1*%
X78750000Y-72250000D03*
X78750000Y-67750000D03*
D16*
X81250000Y-73500000D03*
X81250000Y-66500000D03*
%TD*%
D13*
%TO.C,J2*%
X115285000Y-66160000D03*
D14*
X117825000Y-66160000D03*
%TD*%
M02*
