%TF.GenerationSoftware,KiCad,Pcbnew,7.0.1*%
%TF.CreationDate,2023-03-13T18:15:26-04:00*%
%TF.ProjectId,ctm_battery b,63746d5f-6261-4747-9465-727920622e6b,1.0.0*%
%TF.SameCoordinates,Original*%
%TF.FileFunction,Soldermask,Top*%
%TF.FilePolarity,Negative*%
%FSLAX46Y46*%
G04 Gerber Fmt 4.6, Leading zero omitted, Abs format (unit mm)*
G04 Created by KiCad (PCBNEW 7.0.1) date 2023-03-13 18:15:26*
%MOMM*%
%LPD*%
G01*
G04 APERTURE LIST*
G04 Aperture macros list*
%AMRoundRect*
0 Rectangle with rounded corners*
0 $1 Rounding radius*
0 $2 $3 $4 $5 $6 $7 $8 $9 X,Y pos of 4 corners*
0 Add a 4 corners polygon primitive as box body*
4,1,4,$2,$3,$4,$5,$6,$7,$8,$9,$2,$3,0*
0 Add four circle primitives for the rounded corners*
1,1,$1+$1,$2,$3*
1,1,$1+$1,$4,$5*
1,1,$1+$1,$6,$7*
1,1,$1+$1,$8,$9*
0 Add four rect primitives between the rounded corners*
20,1,$1+$1,$2,$3,$4,$5,0*
20,1,$1+$1,$4,$5,$6,$7,0*
20,1,$1+$1,$6,$7,$8,$9,0*
20,1,$1+$1,$8,$9,$2,$3,0*%
G04 Aperture macros list end*
%ADD10RoundRect,0.125000X-0.125000X0.125000X-0.125000X-0.125000X0.125000X-0.125000X0.125000X0.125000X0*%
%ADD11RoundRect,0.225000X-0.250000X0.225000X-0.250000X-0.225000X0.250000X-0.225000X0.250000X0.225000X0*%
%ADD12C,3.200000*%
%ADD13RoundRect,0.184782X-0.240218X-0.715218X0.240218X-0.715218X0.240218X0.715218X-0.240218X0.715218X0*%
%ADD14RoundRect,0.135000X0.185000X-0.135000X0.185000X0.135000X-0.185000X0.135000X-0.185000X-0.135000X0*%
%ADD15RoundRect,0.225000X-0.225000X-0.250000X0.225000X-0.250000X0.225000X0.250000X-0.225000X0.250000X0*%
%ADD16RoundRect,0.135000X-0.135000X-0.185000X0.135000X-0.185000X0.135000X0.185000X-0.135000X0.185000X0*%
%ADD17R,1.700000X1.700000*%
%ADD18O,1.700000X1.700000*%
%ADD19RoundRect,0.225000X0.225000X0.250000X-0.225000X0.250000X-0.225000X-0.250000X0.225000X-0.250000X0*%
%ADD20R,1.300000X0.700000*%
%ADD21R,2.400000X3.400000*%
%ADD22C,1.700000*%
%ADD23C,2.200000*%
%ADD24RoundRect,0.225000X0.250000X-0.225000X0.250000X0.225000X-0.250000X0.225000X-0.250000X-0.225000X0*%
%ADD25RoundRect,0.184782X-0.715218X0.240218X-0.715218X-0.240218X0.715218X-0.240218X0.715218X0.240218X0*%
%ADD26R,0.400000X1.350000*%
%ADD27R,1.800000X1.900000*%
%ADD28R,2.100000X1.600000*%
%ADD29R,1.900000X1.900000*%
%ADD30RoundRect,0.050000X0.100000X-0.175000X0.100000X0.175000X-0.100000X0.175000X-0.100000X-0.175000X0*%
%ADD31RoundRect,0.050000X0.750000X-0.450000X0.750000X0.450000X-0.750000X0.450000X-0.750000X-0.450000X0*%
%ADD32RoundRect,0.200000X-0.200000X-0.275000X0.200000X-0.275000X0.200000X0.275000X-0.200000X0.275000X0*%
%ADD33RoundRect,0.087500X0.312500X0.087500X-0.312500X0.087500X-0.312500X-0.087500X0.312500X-0.087500X0*%
%ADD34R,0.800000X1.400000*%
G04 APERTURE END LIST*
D10*
%TO.C,D1*%
X125250000Y-72275000D03*
X125250000Y-73275000D03*
%TD*%
%TO.C,D2*%
X125250000Y-71425000D03*
X125250000Y-70425000D03*
%TD*%
%TO.C,D3*%
X125250000Y-68575000D03*
X125250000Y-69575000D03*
%TD*%
%TO.C,D4*%
X125250000Y-67725000D03*
X125250000Y-66725000D03*
%TD*%
D11*
%TO.C,C6*%
X95370000Y-67025000D03*
X95370000Y-68575000D03*
%TD*%
D12*
%TO.C,H1*%
X84000000Y-70000000D03*
%TD*%
D13*
%TO.C,L1*%
X113905000Y-68390000D03*
X115255000Y-68390000D03*
%TD*%
D14*
%TO.C,R4*%
X124330000Y-67735000D03*
X124330000Y-66715000D03*
%TD*%
D15*
%TO.C,C1*%
X113725000Y-71750000D03*
X115275000Y-71750000D03*
%TD*%
D12*
%TO.C,H2*%
X121000000Y-70000000D03*
%TD*%
D16*
%TO.C,R1*%
X113440000Y-73000000D03*
X114460000Y-73000000D03*
%TD*%
D17*
%TO.C,J3*%
X87500000Y-71275000D03*
D18*
X87500000Y-68735000D03*
%TD*%
D19*
%TO.C,C5*%
X111955000Y-67090000D03*
X110405000Y-67090000D03*
%TD*%
D20*
%TO.C,U1*%
X106450000Y-68625000D03*
X106450000Y-69895000D03*
X106450000Y-71165000D03*
X106450000Y-72435000D03*
X111950000Y-72435000D03*
X111950000Y-71165000D03*
X111950000Y-69895000D03*
X111950000Y-68625000D03*
D21*
X109200000Y-70530000D03*
%TD*%
D22*
%TO.C,SW1*%
X78750000Y-72250000D03*
X78750000Y-67750000D03*
D23*
X81250000Y-73500000D03*
X81250000Y-66500000D03*
%TD*%
D24*
%TO.C,C4*%
X116750000Y-70275000D03*
X116750000Y-68725000D03*
%TD*%
D25*
%TO.C,L2*%
X90490000Y-67045000D03*
X90490000Y-68395000D03*
%TD*%
D15*
%TO.C,C2*%
X106450000Y-67090000D03*
X108000000Y-67090000D03*
%TD*%
D26*
%TO.C,J1*%
X98700000Y-70825000D03*
X99350000Y-70825000D03*
X100000000Y-70825000D03*
X100650000Y-70825000D03*
X101300000Y-70825000D03*
D27*
X96200000Y-73500000D03*
D28*
X96900000Y-70950000D03*
D29*
X98800000Y-73500000D03*
X101200000Y-73500000D03*
D28*
X103100000Y-70950000D03*
D27*
X103800000Y-73500000D03*
%TD*%
D15*
%TO.C,C7*%
X92345000Y-69550000D03*
X93895000Y-69550000D03*
%TD*%
D30*
%TO.C,U3*%
X89740000Y-71365000D03*
X90390000Y-71365000D03*
X91040000Y-71365000D03*
X91040000Y-69415000D03*
X90390000Y-69415000D03*
X89740000Y-69415000D03*
D31*
X90390000Y-70390000D03*
%TD*%
D14*
%TO.C,R3*%
X124330000Y-73285000D03*
X124330000Y-72265000D03*
%TD*%
D32*
%TO.C,R2*%
X113624000Y-70275000D03*
X115274000Y-70275000D03*
%TD*%
D15*
%TO.C,C8*%
X89615000Y-72440000D03*
X91165000Y-72440000D03*
%TD*%
D19*
%TO.C,C3*%
X99265000Y-68580000D03*
X97715000Y-68580000D03*
%TD*%
D18*
%TO.C,J2*%
X117825000Y-66160000D03*
D17*
X115285000Y-66160000D03*
%TD*%
D33*
%TO.C,U2*%
X94140000Y-68220000D03*
X94140000Y-67570000D03*
X94140000Y-66920000D03*
X92140000Y-66920000D03*
X92140000Y-67570000D03*
X92140000Y-68220000D03*
D34*
X93140000Y-67570000D03*
%TD*%
M02*
