%TF.GenerationSoftware,KiCad,Pcbnew,7.0.1*%
%TF.CreationDate,2023-03-13T23:28:55-04:00*%
%TF.ProjectId,ctm_battery,63746d5f-6261-4747-9465-72792e6b6963,1.0.0*%
%TF.SameCoordinates,Original*%
%TF.FileFunction,Copper,L1,Top*%
%TF.FilePolarity,Positive*%
%FSLAX46Y46*%
G04 Gerber Fmt 4.6, Leading zero omitted, Abs format (unit mm)*
G04 Created by KiCad (PCBNEW 7.0.1) date 2023-03-13 23:28:55*
%MOMM*%
%LPD*%
G01*
G04 APERTURE LIST*
G04 Aperture macros list*
%AMRoundRect*
0 Rectangle with rounded corners*
0 $1 Rounding radius*
0 $2 $3 $4 $5 $6 $7 $8 $9 X,Y pos of 4 corners*
0 Add a 4 corners polygon primitive as box body*
4,1,4,$2,$3,$4,$5,$6,$7,$8,$9,$2,$3,0*
0 Add four circle primitives for the rounded corners*
1,1,$1+$1,$2,$3*
1,1,$1+$1,$4,$5*
1,1,$1+$1,$6,$7*
1,1,$1+$1,$8,$9*
0 Add four rect primitives between the rounded corners*
20,1,$1+$1,$2,$3,$4,$5,0*
20,1,$1+$1,$4,$5,$6,$7,0*
20,1,$1+$1,$6,$7,$8,$9,0*
20,1,$1+$1,$8,$9,$2,$3,0*%
G04 Aperture macros list end*
%TA.AperFunction,SMDPad,CuDef*%
%ADD10RoundRect,0.225000X-0.250000X0.225000X-0.250000X-0.225000X0.250000X-0.225000X0.250000X0.225000X0*%
%TD*%
%TA.AperFunction,SMDPad,CuDef*%
%ADD11RoundRect,0.184782X-0.240218X-0.715218X0.240218X-0.715218X0.240218X0.715218X-0.240218X0.715218X0*%
%TD*%
%TA.AperFunction,SMDPad,CuDef*%
%ADD12RoundRect,0.135000X-0.185000X0.135000X-0.185000X-0.135000X0.185000X-0.135000X0.185000X0.135000X0*%
%TD*%
%TA.AperFunction,SMDPad,CuDef*%
%ADD13RoundRect,0.225000X-0.225000X-0.250000X0.225000X-0.250000X0.225000X0.250000X-0.225000X0.250000X0*%
%TD*%
%TA.AperFunction,SMDPad,CuDef*%
%ADD14RoundRect,0.135000X-0.135000X-0.185000X0.135000X-0.185000X0.135000X0.185000X-0.135000X0.185000X0*%
%TD*%
%TA.AperFunction,ComponentPad*%
%ADD15R,1.700000X1.700000*%
%TD*%
%TA.AperFunction,ComponentPad*%
%ADD16O,1.700000X1.700000*%
%TD*%
%TA.AperFunction,SMDPad,CuDef*%
%ADD17RoundRect,0.225000X0.225000X0.250000X-0.225000X0.250000X-0.225000X-0.250000X0.225000X-0.250000X0*%
%TD*%
%TA.AperFunction,SMDPad,CuDef*%
%ADD18RoundRect,0.125000X-0.125000X0.125000X-0.125000X-0.125000X0.125000X-0.125000X0.125000X0.125000X0*%
%TD*%
%TA.AperFunction,SMDPad,CuDef*%
%ADD19R,1.300000X0.700000*%
%TD*%
%TA.AperFunction,SMDPad,CuDef*%
%ADD20R,2.400000X3.400000*%
%TD*%
%TA.AperFunction,ComponentPad*%
%ADD21C,1.700000*%
%TD*%
%TA.AperFunction,ComponentPad*%
%ADD22C,2.200000*%
%TD*%
%TA.AperFunction,SMDPad,CuDef*%
%ADD23RoundRect,0.225000X0.250000X-0.225000X0.250000X0.225000X-0.250000X0.225000X-0.250000X-0.225000X0*%
%TD*%
%TA.AperFunction,SMDPad,CuDef*%
%ADD24RoundRect,0.184782X-0.715218X0.240218X-0.715218X-0.240218X0.715218X-0.240218X0.715218X0.240218X0*%
%TD*%
%TA.AperFunction,SMDPad,CuDef*%
%ADD25R,0.400000X1.350000*%
%TD*%
%TA.AperFunction,SMDPad,CuDef*%
%ADD26R,1.800000X1.900000*%
%TD*%
%TA.AperFunction,SMDPad,CuDef*%
%ADD27R,2.100000X1.600000*%
%TD*%
%TA.AperFunction,SMDPad,CuDef*%
%ADD28R,1.900000X1.900000*%
%TD*%
%TA.AperFunction,SMDPad,CuDef*%
%ADD29RoundRect,0.050000X0.100000X-0.175000X0.100000X0.175000X-0.100000X0.175000X-0.100000X-0.175000X0*%
%TD*%
%TA.AperFunction,SMDPad,CuDef*%
%ADD30RoundRect,0.050000X0.750000X-0.450000X0.750000X0.450000X-0.750000X0.450000X-0.750000X-0.450000X0*%
%TD*%
%TA.AperFunction,SMDPad,CuDef*%
%ADD31RoundRect,0.135000X0.185000X-0.135000X0.185000X0.135000X-0.185000X0.135000X-0.185000X-0.135000X0*%
%TD*%
%TA.AperFunction,SMDPad,CuDef*%
%ADD32RoundRect,0.200000X-0.200000X-0.275000X0.200000X-0.275000X0.200000X0.275000X-0.200000X0.275000X0*%
%TD*%
%TA.AperFunction,SMDPad,CuDef*%
%ADD33RoundRect,0.087500X0.312500X0.087500X-0.312500X0.087500X-0.312500X-0.087500X0.312500X-0.087500X0*%
%TD*%
%TA.AperFunction,SMDPad,CuDef*%
%ADD34R,0.800000X1.400000*%
%TD*%
%TA.AperFunction,ViaPad*%
%ADD35C,0.800000*%
%TD*%
%TA.AperFunction,ViaPad*%
%ADD36C,0.550000*%
%TD*%
%TA.AperFunction,Conductor*%
%ADD37C,0.400000*%
%TD*%
%TA.AperFunction,Conductor*%
%ADD38C,0.250000*%
%TD*%
%TA.AperFunction,Conductor*%
%ADD39C,0.500000*%
%TD*%
%TA.AperFunction,Conductor*%
%ADD40C,0.600000*%
%TD*%
%TA.AperFunction,Conductor*%
%ADD41C,0.700000*%
%TD*%
%TA.AperFunction,Conductor*%
%ADD42C,0.550000*%
%TD*%
G04 APERTURE END LIST*
D10*
%TO.P,C6,1*%
%TO.N,+5V*%
X95370000Y-67025000D03*
%TO.P,C6,2*%
%TO.N,GND*%
X95370000Y-68575000D03*
%TD*%
D11*
%TO.P,L1,1,1*%
%TO.N,Net-(U1-SW)*%
X113905000Y-68390000D03*
%TO.P,L1,2,2*%
%TO.N,+BATT*%
X115255000Y-68390000D03*
%TD*%
D12*
%TO.P,R4,1*%
%TO.N,Net-(U1-LED2)*%
X124330000Y-66715000D03*
%TO.P,R4,2*%
%TO.N,Net-(D3-A)*%
X124330000Y-67735000D03*
%TD*%
D13*
%TO.P,C1,1*%
%TO.N,Net-(U1-BAT)*%
X113725000Y-71750000D03*
%TO.P,C1,2*%
%TO.N,GND*%
X115275000Y-71750000D03*
%TD*%
D14*
%TO.P,R1,1*%
%TO.N,Net-(U1-KEY)*%
X113440000Y-73000000D03*
%TO.P,R1,2*%
%TO.N,Net-(SW1-A)*%
X114460000Y-73000000D03*
%TD*%
D15*
%TO.P,J3,1,Pin_1*%
%TO.N,+3V0*%
X87500000Y-71275000D03*
D16*
%TO.P,J3,2,Pin_2*%
%TO.N,GND*%
X87500000Y-68735000D03*
%TD*%
D17*
%TO.P,C5,1*%
%TO.N,+5V*%
X111955000Y-67090000D03*
%TO.P,C5,2*%
%TO.N,GND*%
X110405000Y-67090000D03*
%TD*%
D18*
%TO.P,D1,1,K*%
%TO.N,Net-(D1-K)*%
X125250000Y-72275000D03*
%TO.P,D1,2,A*%
%TO.N,Net-(D1-A)*%
X125250000Y-73275000D03*
%TD*%
%TO.P,D4,1,K*%
%TO.N,Net-(D3-A)*%
X125250000Y-66725000D03*
%TO.P,D4,2,A*%
%TO.N,Net-(D1-K)*%
X125250000Y-67725000D03*
%TD*%
D19*
%TO.P,U1,1,VIN*%
%TO.N,VBUS*%
X106450000Y-68625000D03*
%TO.P,U1,2,LED1*%
%TO.N,Net-(U1-LED1)*%
X106450000Y-69895000D03*
%TO.P,U1,3,LED2*%
%TO.N,Net-(U1-LED2)*%
X106450000Y-71165000D03*
%TO.P,U1,4,LED3*%
%TO.N,Net-(D1-K)*%
X106450000Y-72435000D03*
%TO.P,U1,5,KEY*%
%TO.N,Net-(U1-KEY)*%
X111950000Y-72435000D03*
%TO.P,U1,6,BAT*%
%TO.N,Net-(U1-BAT)*%
X111950000Y-71165000D03*
%TO.P,U1,7,SW*%
%TO.N,Net-(U1-SW)*%
X111950000Y-69895000D03*
%TO.P,U1,8,VOUT*%
%TO.N,+5V*%
X111950000Y-68625000D03*
D20*
%TO.P,U1,9,GND*%
%TO.N,GND*%
X109200000Y-70530000D03*
%TD*%
D21*
%TO.P,SW1,1,A*%
%TO.N,Net-(SW1-A)*%
X78750000Y-72250000D03*
%TO.P,SW1,2,B*%
%TO.N,GND*%
X78750000Y-67750000D03*
D22*
%TO.P,SW1,3,SH1*%
X81250000Y-73500000D03*
%TO.P,SW1,4,SH2*%
X81250000Y-66500000D03*
%TD*%
D23*
%TO.P,C4,1*%
%TO.N,+BATT*%
X116750000Y-70275000D03*
%TO.P,C4,2*%
%TO.N,GND*%
X116750000Y-68725000D03*
%TD*%
D24*
%TO.P,L2,1,1*%
%TO.N,Net-(U2-LX)*%
X90490000Y-67045000D03*
%TO.P,L2,2,2*%
%TO.N,+3V3*%
X90490000Y-68395000D03*
%TD*%
D13*
%TO.P,C2,1*%
%TO.N,VBUS*%
X106450000Y-67090000D03*
%TO.P,C2,2*%
%TO.N,GND*%
X108000000Y-67090000D03*
%TD*%
D18*
%TO.P,D3,1,K*%
%TO.N,Net-(D1-K)*%
X125250000Y-68575000D03*
%TO.P,D3,2,A*%
%TO.N,Net-(D3-A)*%
X125250000Y-69575000D03*
%TD*%
D25*
%TO.P,J1,1,VBUS*%
%TO.N,VBUS*%
X98700000Y-70825000D03*
%TO.P,J1,2,D-*%
%TO.N,unconnected-(J1-D--Pad2)*%
X99350000Y-70825000D03*
%TO.P,J1,3,D+*%
%TO.N,unconnected-(J1-D+-Pad3)*%
X100000000Y-70825000D03*
%TO.P,J1,4,ID*%
%TO.N,unconnected-(J1-ID-Pad4)*%
X100650000Y-70825000D03*
%TO.P,J1,5,GND*%
%TO.N,GND*%
X101300000Y-70825000D03*
D26*
%TO.P,J1,6,Shield*%
X96200000Y-73500000D03*
D27*
X96900000Y-70950000D03*
D28*
X98800000Y-73500000D03*
X101200000Y-73500000D03*
D27*
X103100000Y-70950000D03*
D26*
X103800000Y-73500000D03*
%TD*%
D13*
%TO.P,C7,1*%
%TO.N,+3V3*%
X92345000Y-69550000D03*
%TO.P,C7,2*%
%TO.N,GND*%
X93895000Y-69550000D03*
%TD*%
D18*
%TO.P,D2,1,K*%
%TO.N,Net-(D1-A)*%
X125250000Y-70425000D03*
%TO.P,D2,2,A*%
%TO.N,Net-(D1-K)*%
X125250000Y-71425000D03*
%TD*%
D29*
%TO.P,U3,1,OUT*%
%TO.N,+3V0*%
X89740000Y-71365000D03*
%TO.P,U3,2,NC*%
%TO.N,unconnected-(U3-NC-Pad2)*%
X90390000Y-71365000D03*
%TO.P,U3,3,GND*%
%TO.N,GND*%
X91040000Y-71365000D03*
%TO.P,U3,4,EN*%
%TO.N,+3V3*%
X91040000Y-69415000D03*
%TO.P,U3,5,NC*%
%TO.N,unconnected-(U3-NC-Pad5)*%
X90390000Y-69415000D03*
%TO.P,U3,6,IN*%
%TO.N,+3V3*%
X89740000Y-69415000D03*
D30*
%TO.P,U3,7,GND*%
%TO.N,GND*%
X90390000Y-70390000D03*
%TD*%
D31*
%TO.P,R3,1*%
%TO.N,Net-(U1-LED1)*%
X124330000Y-73285000D03*
%TO.P,R3,2*%
%TO.N,Net-(D1-A)*%
X124330000Y-72265000D03*
%TD*%
D32*
%TO.P,R2,1*%
%TO.N,Net-(U1-BAT)*%
X113624000Y-70275000D03*
%TO.P,R2,2*%
%TO.N,+BATT*%
X115274000Y-70275000D03*
%TD*%
D13*
%TO.P,C8,1*%
%TO.N,+3V0*%
X89615000Y-72440000D03*
%TO.P,C8,2*%
%TO.N,GND*%
X91165000Y-72440000D03*
%TD*%
D17*
%TO.P,C3,1*%
%TO.N,VBUS*%
X99265000Y-68580000D03*
%TO.P,C3,2*%
%TO.N,GND*%
X97715000Y-68580000D03*
%TD*%
D15*
%TO.P,J2,1,Pin_1*%
%TO.N,+BATT*%
X115285000Y-66160000D03*
D16*
%TO.P,J2,2,Pin_2*%
%TO.N,GND*%
X117825000Y-66160000D03*
%TD*%
D33*
%TO.P,U2,1,IC*%
%TO.N,unconnected-(U2-IC-Pad1)*%
X94140000Y-68220000D03*
%TO.P,U2,2,EN*%
%TO.N,+5V*%
X94140000Y-67570000D03*
%TO.P,U2,3,VIN*%
X94140000Y-66920000D03*
%TO.P,U2,4,LX*%
%TO.N,Net-(U2-LX)*%
X92140000Y-66920000D03*
%TO.P,U2,5,GND*%
%TO.N,GND*%
X92140000Y-67570000D03*
%TO.P,U2,6,VOUT*%
%TO.N,+3V3*%
X92140000Y-68220000D03*
D34*
%TO.P,U2,7,EPAD*%
%TO.N,GND*%
X93140000Y-67570000D03*
%TD*%
D35*
%TO.N,GND*%
X117280000Y-73340000D03*
X118720000Y-70180000D03*
X83510000Y-72210000D03*
X81950000Y-70970000D03*
X119555000Y-65810000D03*
X93140000Y-68650000D03*
X79925000Y-68925000D03*
X101200000Y-73500000D03*
X87660000Y-72780000D03*
X103800000Y-73500000D03*
X93050000Y-73730000D03*
X122760000Y-67120000D03*
X81600000Y-69230000D03*
X123900000Y-69995000D03*
X85100000Y-73800000D03*
X122920000Y-71185000D03*
X120430000Y-66915000D03*
X90780000Y-65750000D03*
D36*
X109200000Y-69817500D03*
D35*
X109195000Y-68070000D03*
X121075000Y-73325000D03*
X78250000Y-70825000D03*
X86670000Y-73770000D03*
X86000000Y-71050000D03*
D36*
X93140000Y-67450000D03*
D35*
X122710000Y-73135000D03*
D36*
X91000000Y-70390000D03*
D35*
X118255000Y-71890000D03*
X108720000Y-72870000D03*
D36*
X110125000Y-71950000D03*
D35*
X79920000Y-71300000D03*
D36*
X109200000Y-71242500D03*
D35*
X93900000Y-70840000D03*
X93140000Y-66250000D03*
X119190000Y-73340000D03*
X78250000Y-69450000D03*
X122925000Y-68820000D03*
X110650000Y-72870000D03*
X124800000Y-65795000D03*
X121820000Y-72105000D03*
X82600000Y-67850000D03*
X83125000Y-65750000D03*
X98800000Y-73500000D03*
X88750000Y-73720000D03*
X94490000Y-73500000D03*
X96560000Y-69240000D03*
X121190000Y-65770000D03*
D36*
X108275000Y-71950000D03*
D35*
X121535000Y-67800000D03*
X115380000Y-73105000D03*
X91160000Y-73730000D03*
X120015000Y-72035000D03*
X93905000Y-72135000D03*
X88370000Y-65750000D03*
D36*
X110100000Y-70530000D03*
D35*
X96200000Y-73500000D03*
X85860000Y-68730000D03*
D36*
X108275000Y-70530000D03*
D35*
X116750000Y-67455000D03*
X126170000Y-67895000D03*
D36*
X89800000Y-70390000D03*
D35*
X85760000Y-65750000D03*
X126695000Y-69925000D03*
D36*
X110125000Y-69100000D03*
D35*
X96900000Y-70950000D03*
X92430000Y-72440000D03*
X109210000Y-67090000D03*
X118040000Y-68725000D03*
X126095000Y-71850000D03*
X116545000Y-71745000D03*
X96540000Y-67910000D03*
X92095000Y-70855000D03*
X122850000Y-65805000D03*
D36*
X108275000Y-69100000D03*
D35*
X87500000Y-67090000D03*
X126730000Y-65790000D03*
X109690000Y-72870000D03*
X95040000Y-70950000D03*
X88940000Y-67720000D03*
X85350000Y-72430000D03*
X119655000Y-68165000D03*
X103100000Y-70950000D03*
X84600000Y-67130000D03*
X126600000Y-73320000D03*
%TO.N,Net-(D1-K)*%
X124400000Y-74300000D03*
X106625000Y-73370000D03*
%TO.N,Net-(SW1-A)*%
X107662972Y-73065176D03*
%TD*%
D37*
%TO.N,GND*%
X101300000Y-70825000D02*
X101300000Y-73400000D01*
D38*
X97695000Y-69510000D02*
X96975000Y-69510000D01*
D39*
X93140000Y-67570000D02*
X93140000Y-68702245D01*
D40*
X93895000Y-69459311D02*
X93138967Y-68703278D01*
D38*
X101425000Y-70950000D02*
X101300000Y-70825000D01*
X93140000Y-68702245D02*
X93138967Y-68703278D01*
D40*
X103095000Y-70910000D02*
X101420000Y-70910000D01*
D38*
X96220000Y-69515000D02*
X95500000Y-69515000D01*
D39*
X97715000Y-69385000D02*
X97715000Y-68485000D01*
D37*
%TO.N,VBUS*%
X98700000Y-70035000D02*
X99250000Y-69485000D01*
X99177500Y-69550000D02*
X100502500Y-69550000D01*
X99250000Y-68595000D02*
X99265000Y-68580000D01*
D41*
X106450000Y-67090000D02*
X106450000Y-68625000D01*
X106450000Y-68625000D02*
X105250000Y-68625000D01*
D37*
X98700000Y-70825000D02*
X98700000Y-70035000D01*
X99250000Y-69485000D02*
X99250000Y-68595000D01*
D41*
%TO.N,+5V*%
X111950000Y-68625000D02*
X111950000Y-65930000D01*
D38*
X111790000Y-68580000D02*
X111885000Y-68485000D01*
D42*
X95142500Y-66990000D02*
X94017500Y-66990000D01*
X94140000Y-65980000D02*
X94140000Y-67470000D01*
D40*
%TO.N,+3V3*%
X91040000Y-69390000D02*
X91040000Y-68765000D01*
D38*
X90645000Y-68395000D02*
X90490000Y-68395000D01*
D40*
X89740000Y-69390000D02*
X89740000Y-68270000D01*
X92140000Y-68345000D02*
X92140000Y-69725000D01*
X92240000Y-68345000D02*
X89740000Y-68345000D01*
%TO.N,+3V0*%
X89740000Y-71390000D02*
X87590000Y-71390000D01*
X89740000Y-71390000D02*
X89740000Y-72340000D01*
D38*
X89740000Y-72315000D02*
X89615000Y-72440000D01*
D40*
X89615000Y-72440000D02*
X88665000Y-72440000D01*
X88665000Y-72440000D02*
X87500000Y-71275000D01*
X88160000Y-71885000D02*
X88160000Y-71480000D01*
D41*
%TO.N,+BATT*%
X115261250Y-68788750D02*
X115261250Y-70016250D01*
X115260000Y-68230000D02*
X115260000Y-66645000D01*
D38*
X115260000Y-66645000D02*
X115675000Y-66230000D01*
D41*
X116750000Y-70275000D02*
X115265000Y-70270000D01*
%TO.N,Net-(U1-BAT)*%
X111950000Y-71165000D02*
X112735000Y-71165000D01*
X113700000Y-71750000D02*
X113115000Y-71165000D01*
X112735000Y-71165000D02*
X113615000Y-70285000D01*
X113115000Y-71165000D02*
X112735000Y-71165000D01*
%TO.N,Net-(D1-K)*%
X106625000Y-72600000D02*
X106625000Y-73370000D01*
D38*
X125825000Y-69150000D02*
X125250000Y-68575000D01*
X125825000Y-73590000D02*
X125115000Y-74300000D01*
X125825000Y-70850000D02*
X125825000Y-69150000D01*
X125115000Y-74300000D02*
X124400000Y-74300000D01*
X125825000Y-72850000D02*
X125825000Y-73590000D01*
X106820000Y-72405000D02*
X106625000Y-72600000D01*
X125250000Y-72275000D02*
X125825000Y-72850000D01*
X125250000Y-67725000D02*
X125250000Y-68575000D01*
X125250000Y-71425000D02*
X125825000Y-70850000D01*
X125250000Y-71425000D02*
X125250000Y-72275000D01*
%TO.N,Net-(D1-A)*%
X124330000Y-71345000D02*
X125250000Y-70425000D01*
X125250000Y-73185000D02*
X124330000Y-72265000D01*
X124330000Y-72265000D02*
X124330000Y-71345000D01*
%TO.N,Net-(D3-A)*%
X125250000Y-69512500D02*
X125231104Y-69512500D01*
X124330000Y-67735000D02*
X124330000Y-68655000D01*
X124330000Y-68655000D02*
X125250000Y-69575000D01*
X125250000Y-66815000D02*
X124330000Y-67735000D01*
D41*
%TO.N,Net-(U1-SW)*%
X112520000Y-69838000D02*
X113980000Y-68378000D01*
X111952500Y-69893750D02*
X112457500Y-69893750D01*
D40*
%TO.N,Net-(U2-LX)*%
X92240000Y-66795000D02*
X89890000Y-66795000D01*
D38*
%TO.N,Net-(U1-KEY)*%
X112235000Y-72435000D02*
X112800000Y-73000000D01*
X112800000Y-73000000D02*
X113330000Y-73000000D01*
%TO.N,Net-(SW1-A)*%
X113815000Y-73645000D02*
X114460000Y-73000000D01*
X108325000Y-73645000D02*
X108242796Y-73645000D01*
X108242796Y-73645000D02*
X107662972Y-73065176D01*
X108325000Y-73645000D02*
X113815000Y-73645000D01*
%TO.N,Net-(U1-LED1)*%
X105025000Y-71005000D02*
X105025000Y-73525000D01*
X105025000Y-73525000D02*
X106075000Y-74575000D01*
X106075000Y-74575000D02*
X123035000Y-74575000D01*
X123035000Y-74575000D02*
X124330000Y-73280000D01*
X106165000Y-69865000D02*
X105025000Y-71005000D01*
%TO.N,Net-(U1-LED2)*%
X124675000Y-70363604D02*
X124675000Y-69636396D01*
X124675000Y-69636396D02*
X123685000Y-68646396D01*
X105475000Y-73305000D02*
X106295000Y-74125000D01*
X123685000Y-73265000D02*
X123685000Y-71353604D01*
X106295000Y-74125000D02*
X122825000Y-74125000D01*
X122825000Y-74125000D02*
X123685000Y-73265000D01*
X105475000Y-71825000D02*
X105475000Y-73305000D01*
X106165000Y-71135000D02*
X105475000Y-71825000D01*
X123685000Y-67360000D02*
X124330000Y-66715000D01*
X123685000Y-71353604D02*
X124675000Y-70363604D01*
X123685000Y-68646396D02*
X123685000Y-67360000D01*
%TD*%
%TA.AperFunction,Conductor*%
%TO.N,+5V*%
G36*
X111800930Y-65309921D02*
G01*
X111841586Y-65336775D01*
X112172461Y-65662990D01*
X112200237Y-65704084D01*
X112210000Y-65752715D01*
X112210000Y-66053809D01*
X112209000Y-66058836D01*
X112209000Y-68055809D01*
X112204000Y-68080946D01*
X112204000Y-68753000D01*
X112187119Y-68816000D01*
X112141000Y-68862119D01*
X112078000Y-68879000D01*
X111822000Y-68879000D01*
X111759000Y-68862119D01*
X111712881Y-68816000D01*
X111700000Y-68767928D01*
X111700000Y-67764081D01*
X111701000Y-67759054D01*
X111701000Y-66107000D01*
X111681161Y-66107000D01*
X111580760Y-66117256D01*
X111418114Y-66171152D01*
X111272271Y-66261109D01*
X111195287Y-66338095D01*
X111154409Y-66365409D01*
X111106191Y-66375000D01*
X110766675Y-66375000D01*
X110747920Y-66371616D01*
X110747849Y-66372280D01*
X110732115Y-66370588D01*
X110732114Y-66370588D01*
X110675484Y-66364500D01*
X110134512Y-66364500D01*
X110062149Y-66372279D01*
X110062077Y-66371616D01*
X110043323Y-66375000D01*
X108361675Y-66375000D01*
X108342920Y-66371616D01*
X108342849Y-66372280D01*
X108327115Y-66370588D01*
X108327114Y-66370588D01*
X108270484Y-66364500D01*
X107729512Y-66364500D01*
X107657149Y-66372279D01*
X107657077Y-66371616D01*
X107638323Y-66375000D01*
X106811675Y-66375000D01*
X106792920Y-66371616D01*
X106792849Y-66372280D01*
X106777115Y-66370588D01*
X106777114Y-66370588D01*
X106720484Y-66364500D01*
X106179512Y-66364500D01*
X106122885Y-66370587D01*
X105994775Y-66418370D01*
X105885314Y-66500311D01*
X105848486Y-66549509D01*
X105804017Y-66586672D01*
X105747617Y-66600000D01*
X99150000Y-66600000D01*
X98536902Y-67213097D01*
X98496028Y-67240409D01*
X98447810Y-67250000D01*
X94397881Y-67250000D01*
X94363881Y-67216000D01*
X94347000Y-67153000D01*
X94347000Y-67095000D01*
X94315000Y-67095000D01*
X94315000Y-67619000D01*
X94298119Y-67682000D01*
X94252000Y-67728119D01*
X94189000Y-67745000D01*
X94091000Y-67745000D01*
X94028000Y-67728119D01*
X94000000Y-67700119D01*
X94000000Y-66745000D01*
X94315000Y-66745000D01*
X95009809Y-66745000D01*
X95058027Y-66754591D01*
X95082584Y-66771000D01*
X95116000Y-66771000D01*
X95116000Y-66067000D01*
X95624000Y-66067000D01*
X95624000Y-66771000D01*
X96353000Y-66771000D01*
X96353000Y-66751161D01*
X96342743Y-66650760D01*
X96288847Y-66488114D01*
X96198888Y-66342268D01*
X96077731Y-66221111D01*
X95931885Y-66131152D01*
X95769239Y-66077256D01*
X95668839Y-66067000D01*
X95624000Y-66067000D01*
X95116000Y-66067000D01*
X95071161Y-66067000D01*
X94970760Y-66077256D01*
X94808112Y-66131153D01*
X94649737Y-66228840D01*
X94648078Y-66226151D01*
X94623632Y-66241320D01*
X94566763Y-66246903D01*
X94491537Y-66237000D01*
X94315000Y-66237000D01*
X94315000Y-66745000D01*
X94000000Y-66745000D01*
X94000000Y-65799664D01*
X94008778Y-65753459D01*
X94033887Y-65713692D01*
X94042855Y-65704084D01*
X94382173Y-65340528D01*
X94424070Y-65310939D01*
X94474287Y-65300500D01*
X111753125Y-65300500D01*
X111800930Y-65309921D01*
G37*
%TD.AperFunction*%
%TD*%
%TA.AperFunction,Conductor*%
%TO.N,VBUS*%
G36*
X106641000Y-66852881D02*
G01*
X106687119Y-66899000D01*
X106704000Y-66962000D01*
X106704000Y-68753000D01*
X106687119Y-68816000D01*
X106641000Y-68862119D01*
X106592928Y-68875000D01*
X105275000Y-68875000D01*
X105271114Y-68879000D01*
X105271112Y-68879000D01*
X104462113Y-69711795D01*
X104420796Y-69740056D01*
X104371736Y-69750000D01*
X99824773Y-69750000D01*
X99757383Y-69730464D01*
X99710890Y-69677914D01*
X99699712Y-69608645D01*
X99727315Y-69544138D01*
X99785140Y-69504396D01*
X99801884Y-69498847D01*
X99947731Y-69408888D01*
X100068888Y-69287731D01*
X100158847Y-69141885D01*
X100212743Y-68979239D01*
X100223000Y-68878839D01*
X100223000Y-68834000D01*
X99137000Y-68834000D01*
X99074000Y-68817119D01*
X99027881Y-68771000D01*
X99025000Y-68760248D01*
X99025000Y-68371000D01*
X105292000Y-68371000D01*
X106196000Y-68371000D01*
X106196000Y-67344000D01*
X105492000Y-67344000D01*
X105492000Y-67388839D01*
X105502256Y-67489239D01*
X105556153Y-67651886D01*
X105567894Y-67670922D01*
X105586432Y-67729631D01*
X105574940Y-67790116D01*
X105536162Y-67837935D01*
X105437094Y-67912096D01*
X105349554Y-68029037D01*
X105298505Y-68165906D01*
X105292000Y-68226411D01*
X105292000Y-68371000D01*
X99025000Y-68371000D01*
X99025000Y-67597000D01*
X99519000Y-67597000D01*
X99519000Y-68326000D01*
X100223000Y-68326000D01*
X100223000Y-68281161D01*
X100212743Y-68180760D01*
X100158847Y-68018114D01*
X100068888Y-67872268D01*
X99947731Y-67751111D01*
X99801885Y-67661152D01*
X99639239Y-67607256D01*
X99538839Y-67597000D01*
X99519000Y-67597000D01*
X99025000Y-67597000D01*
X99025000Y-67155738D01*
X99035771Y-67104764D01*
X99066243Y-67062506D01*
X99257905Y-66888268D01*
X99297227Y-66863977D01*
X99342662Y-66855500D01*
X105747617Y-66855500D01*
X105794810Y-66850000D01*
X106630248Y-66850000D01*
X106641000Y-66852881D01*
G37*
%TD.AperFunction*%
%TD*%
%TA.AperFunction,Conductor*%
%TO.N,GND*%
G36*
X93836513Y-65313842D02*
G01*
X93880992Y-65351042D01*
X93904100Y-65404223D01*
X93900945Y-65462121D01*
X93872194Y-65512476D01*
X93860938Y-65524535D01*
X93844114Y-65537297D01*
X93728530Y-65645244D01*
X93653475Y-65768669D01*
X93653474Y-65768671D01*
X93653474Y-65768672D01*
X93614500Y-65907772D01*
X93614500Y-65907774D01*
X93614500Y-66515307D01*
X93604909Y-66563526D01*
X93577597Y-66604399D01*
X93558369Y-66623628D01*
X93546356Y-66635641D01*
X93495980Y-66743670D01*
X93489500Y-66792896D01*
X93489500Y-67004279D01*
X93489207Y-67012871D01*
X93488008Y-67030409D01*
X93489501Y-67044934D01*
X93489501Y-67047102D01*
X93495980Y-67096328D01*
X93495981Y-67096330D01*
X93501301Y-67107740D01*
X93502217Y-67109703D01*
X93511384Y-67137312D01*
X93517685Y-67167632D01*
X93533220Y-67197614D01*
X93547319Y-67252953D01*
X93535541Y-67308832D01*
X93495980Y-67393670D01*
X93489500Y-67442896D01*
X93489500Y-67697104D01*
X93495980Y-67746328D01*
X93495981Y-67746330D01*
X93536994Y-67834283D01*
X93540476Y-67841749D01*
X93552281Y-67894999D01*
X93540476Y-67948249D01*
X93495980Y-68043670D01*
X93489500Y-68092896D01*
X93489500Y-68347104D01*
X93495980Y-68396330D01*
X93512537Y-68431836D01*
X93523342Y-68500926D01*
X93495645Y-68565136D01*
X93437976Y-68604689D01*
X93358114Y-68631153D01*
X93212268Y-68721111D01*
X93091110Y-68842269D01*
X93056369Y-68898593D01*
X93005578Y-68945093D01*
X92937926Y-68957946D01*
X92873621Y-68933314D01*
X92800226Y-68878372D01*
X92792483Y-68875484D01*
X92772466Y-68868018D01*
X92729550Y-68841154D01*
X92700673Y-68799563D01*
X92690500Y-68749963D01*
X92690500Y-68701380D01*
X92696404Y-68663263D01*
X92713560Y-68628720D01*
X92733377Y-68600647D01*
X92784054Y-68458056D01*
X92794381Y-68307079D01*
X92793135Y-68301083D01*
X92790499Y-68275445D01*
X92790499Y-68210893D01*
X92803493Y-68155165D01*
X92839794Y-68110931D01*
X92877215Y-68082215D01*
X92972669Y-67957819D01*
X93032673Y-67812957D01*
X93041620Y-67745000D01*
X92091000Y-67745000D01*
X92028000Y-67728119D01*
X91981881Y-67682000D01*
X91965000Y-67619000D01*
X91965000Y-67521000D01*
X91981881Y-67458000D01*
X92028000Y-67411881D01*
X92091000Y-67395000D01*
X93041619Y-67395000D01*
X93041619Y-67394999D01*
X93032673Y-67327043D01*
X92972669Y-67182180D01*
X92877215Y-67057784D01*
X92839794Y-67029069D01*
X92803493Y-66984835D01*
X92790499Y-66929107D01*
X92790499Y-66818132D01*
X92790793Y-66809533D01*
X92791931Y-66792896D01*
X92794381Y-66757079D01*
X92763592Y-66608915D01*
X92747134Y-66577152D01*
X92693972Y-66474554D01*
X92590680Y-66363955D01*
X92461384Y-66285328D01*
X92364237Y-66258109D01*
X92315665Y-66244500D01*
X89852342Y-66244500D01*
X89852339Y-66244500D01*
X89740083Y-66259929D01*
X89740081Y-66259929D01*
X89740080Y-66259930D01*
X89716036Y-66270374D01*
X89601279Y-66320220D01*
X89483891Y-66415723D01*
X89396623Y-66539352D01*
X89345945Y-66681945D01*
X89344515Y-66702853D01*
X89343537Y-66707620D01*
X89343693Y-66707635D01*
X89339500Y-66752350D01*
X89339500Y-66771882D01*
X89339206Y-66780481D01*
X89335618Y-66832920D01*
X89336864Y-66838912D01*
X89339500Y-66864549D01*
X89339500Y-67337652D01*
X89342257Y-67367058D01*
X89385594Y-67490909D01*
X89474791Y-67611767D01*
X89473940Y-67612394D01*
X89497147Y-67641000D01*
X89508127Y-67703231D01*
X89487512Y-67762967D01*
X89440488Y-67805181D01*
X89419552Y-67816029D01*
X89308955Y-67919319D01*
X89230328Y-68048615D01*
X89189500Y-68194336D01*
X89189500Y-68321882D01*
X89189206Y-68330481D01*
X89185618Y-68382920D01*
X89186864Y-68388912D01*
X89189500Y-68414549D01*
X89189500Y-69427661D01*
X89204630Y-69537743D01*
X89204930Y-69539920D01*
X89265220Y-69678720D01*
X89360722Y-69796108D01*
X89484353Y-69883377D01*
X89626944Y-69934054D01*
X89777921Y-69944381D01*
X89926085Y-69913592D01*
X90034796Y-69857262D01*
X90088839Y-69843197D01*
X90143656Y-69853872D01*
X90220009Y-69887585D01*
X90245135Y-69890500D01*
X90534864Y-69890499D01*
X90534865Y-69890499D01*
X90541145Y-69889770D01*
X90559991Y-69887585D01*
X90636417Y-69853839D01*
X90699816Y-69843726D01*
X90759970Y-69866166D01*
X90772372Y-69874920D01*
X90784353Y-69883377D01*
X90926944Y-69934054D01*
X91077921Y-69944381D01*
X91226085Y-69913592D01*
X91360447Y-69843971D01*
X91395630Y-69811111D01*
X91455995Y-69779833D01*
X91523824Y-69784471D01*
X91579369Y-69823677D01*
X91595253Y-69860241D01*
X91598031Y-69859035D01*
X91604929Y-69874917D01*
X91604930Y-69874920D01*
X91665220Y-70013720D01*
X91760722Y-70131108D01*
X91869746Y-70208066D01*
X91888045Y-70220983D01*
X91889773Y-70221627D01*
X91889774Y-70221628D01*
X92017886Y-70269412D01*
X92074515Y-70275500D01*
X92116877Y-70275499D01*
X92125476Y-70275792D01*
X92177921Y-70279381D01*
X92183919Y-70278134D01*
X92209552Y-70275499D01*
X92615487Y-70275499D01*
X92672114Y-70269412D01*
X92800224Y-70221629D01*
X92800224Y-70221628D01*
X92800226Y-70221628D01*
X92873620Y-70166685D01*
X92937926Y-70142053D01*
X93005578Y-70154906D01*
X93056370Y-70201407D01*
X93091111Y-70257731D01*
X93212268Y-70378888D01*
X93358114Y-70468847D01*
X93520760Y-70522743D01*
X93621161Y-70533000D01*
X93641000Y-70533000D01*
X93641000Y-69422000D01*
X93657881Y-69359000D01*
X93704000Y-69312881D01*
X93767000Y-69296000D01*
X94023000Y-69296000D01*
X94086000Y-69312881D01*
X94132119Y-69359000D01*
X94149000Y-69422000D01*
X94149000Y-70533000D01*
X94168839Y-70533000D01*
X94269239Y-70522743D01*
X94431885Y-70468847D01*
X94577731Y-70378888D01*
X94698888Y-70257731D01*
X94788847Y-70111885D01*
X94842743Y-69949239D01*
X94853000Y-69848839D01*
X94853000Y-69650241D01*
X94872081Y-69583575D01*
X94923546Y-69537100D01*
X94991806Y-69524893D01*
X95071161Y-69533000D01*
X95116000Y-69533000D01*
X95116000Y-68447000D01*
X95132881Y-68384000D01*
X95179000Y-68337881D01*
X95242000Y-68321000D01*
X96353000Y-68321000D01*
X96353000Y-68301161D01*
X96342743Y-68200760D01*
X96288847Y-68038114D01*
X96198888Y-67892268D01*
X96077731Y-67771111D01*
X96025251Y-67738741D01*
X95980842Y-67691944D01*
X95965417Y-67629301D01*
X95983019Y-67567235D01*
X96029034Y-67522016D01*
X96091398Y-67505500D01*
X96986177Y-67505500D01*
X97048541Y-67522016D01*
X97094556Y-67567235D01*
X97112158Y-67629301D01*
X97096733Y-67691944D01*
X97052324Y-67738741D01*
X97032268Y-67751111D01*
X96911111Y-67872268D01*
X96821152Y-68018114D01*
X96767256Y-68180760D01*
X96757000Y-68281161D01*
X96757000Y-68326000D01*
X97843000Y-68326000D01*
X97906000Y-68342881D01*
X97952119Y-68389000D01*
X97969000Y-68452000D01*
X97969000Y-68708000D01*
X97952119Y-68771000D01*
X97906000Y-68817119D01*
X97843000Y-68834000D01*
X96757000Y-68834000D01*
X96757000Y-68878839D01*
X96767256Y-68979239D01*
X96821152Y-69141885D01*
X96911111Y-69287731D01*
X97032268Y-69408888D01*
X97116111Y-69460603D01*
X97156231Y-69500143D01*
X97175112Y-69553215D01*
X97168980Y-69609210D01*
X97154000Y-69633106D01*
X97154000Y-71078000D01*
X97137119Y-71141000D01*
X97091000Y-71187119D01*
X97028000Y-71204000D01*
X95342000Y-71204000D01*
X95342000Y-71798589D01*
X95348505Y-71859095D01*
X95353670Y-71872943D01*
X95361006Y-71929324D01*
X95342809Y-71983191D01*
X95302785Y-72023574D01*
X95249083Y-72042250D01*
X95190906Y-72048505D01*
X95054037Y-72099554D01*
X94937095Y-72187095D01*
X94849554Y-72304037D01*
X94798505Y-72440906D01*
X94792000Y-72501411D01*
X94792000Y-73246000D01*
X98546000Y-73246000D01*
X98546000Y-72676000D01*
X98562881Y-72613000D01*
X98609000Y-72566881D01*
X98672000Y-72550000D01*
X98928000Y-72550000D01*
X98991000Y-72566881D01*
X99037119Y-72613000D01*
X99054000Y-72676000D01*
X99054000Y-73246000D01*
X100946000Y-73246000D01*
X100946000Y-72128000D01*
X100962881Y-72065000D01*
X101009000Y-72018881D01*
X101072000Y-72002000D01*
X101100000Y-72002000D01*
X101100000Y-71539596D01*
X101100500Y-71534518D01*
X101100500Y-70751000D01*
X101117381Y-70688000D01*
X101163500Y-70641881D01*
X101226500Y-70625000D01*
X101924809Y-70625000D01*
X101973027Y-70634591D01*
X102013904Y-70661905D01*
X102047999Y-70696000D01*
X103228000Y-70696000D01*
X103291000Y-70712881D01*
X103337119Y-70759000D01*
X103354000Y-70822000D01*
X103354000Y-71078000D01*
X103337119Y-71141000D01*
X103291000Y-71187119D01*
X103228000Y-71204000D01*
X101628000Y-71204000D01*
X101565000Y-71187119D01*
X101518881Y-71141000D01*
X101502000Y-71078000D01*
X101502000Y-71025000D01*
X101500000Y-71025000D01*
X101500000Y-71949809D01*
X101490409Y-71998027D01*
X101463095Y-72038904D01*
X101454000Y-72047999D01*
X101454000Y-73246000D01*
X103928000Y-73246000D01*
X103991000Y-73262881D01*
X104037119Y-73309000D01*
X104054000Y-73372000D01*
X104054000Y-73628000D01*
X104037119Y-73691000D01*
X103991000Y-73737119D01*
X103928000Y-73754000D01*
X94792000Y-73754000D01*
X94792000Y-74498589D01*
X94798606Y-74560030D01*
X94786664Y-74628554D01*
X94740183Y-74680301D01*
X94673328Y-74699500D01*
X82613505Y-74699500D01*
X82545574Y-74679619D01*
X82499079Y-74626251D01*
X82488693Y-74556237D01*
X82517694Y-74491670D01*
X82554922Y-74448081D01*
X82687167Y-74232277D01*
X82784027Y-73998437D01*
X82843113Y-73752324D01*
X82862971Y-73500000D01*
X82843113Y-73247675D01*
X82784027Y-73001562D01*
X82687169Y-72767727D01*
X82555822Y-72553387D01*
X82555820Y-72553387D01*
X81339094Y-73770114D01*
X81282610Y-73802726D01*
X81217388Y-73802726D01*
X81160904Y-73770114D01*
X79935115Y-72544324D01*
X79925107Y-72543271D01*
X79877676Y-72514186D01*
X79847396Y-72467508D01*
X79840172Y-72412341D01*
X79855215Y-72250005D01*
X79855215Y-72250000D01*
X79850042Y-72194178D01*
X80303387Y-72194178D01*
X81249999Y-73140790D01*
X81250001Y-73140790D01*
X82196611Y-72194178D01*
X82196611Y-72194176D01*
X81982272Y-72062830D01*
X81748437Y-71965972D01*
X81502324Y-71906886D01*
X81250000Y-71887028D01*
X80997675Y-71906886D01*
X80751562Y-71965972D01*
X80517725Y-72062831D01*
X80303387Y-72194176D01*
X80303387Y-72194178D01*
X79850042Y-72194178D01*
X79836397Y-72046917D01*
X79780582Y-71850750D01*
X79689673Y-71668179D01*
X79566764Y-71505421D01*
X79416041Y-71368019D01*
X79416038Y-71368017D01*
X79416037Y-71368016D01*
X79242640Y-71260653D01*
X79052456Y-71186976D01*
X79049401Y-71186405D01*
X78851976Y-71149500D01*
X78648024Y-71149500D01*
X78525439Y-71172415D01*
X78447543Y-71186976D01*
X78257359Y-71260653D01*
X78083958Y-71368018D01*
X78011385Y-71434178D01*
X77960981Y-71462253D01*
X77903347Y-71464918D01*
X77850568Y-71441613D01*
X77813709Y-71397226D01*
X77800500Y-71341063D01*
X77800500Y-70067766D01*
X82145787Y-70067766D01*
X82175413Y-70337015D01*
X82206386Y-70455490D01*
X82243928Y-70599088D01*
X82281712Y-70688000D01*
X82346171Y-70839687D01*
X82349870Y-70848390D01*
X82490982Y-71079610D01*
X82664255Y-71287820D01*
X82664256Y-71287821D01*
X82664258Y-71287823D01*
X82865993Y-71468578D01*
X82865995Y-71468579D01*
X82865998Y-71468582D01*
X83091910Y-71618044D01*
X83198858Y-71668179D01*
X83337171Y-71733018D01*
X83337173Y-71733018D01*
X83337176Y-71733020D01*
X83596569Y-71811060D01*
X83596572Y-71811060D01*
X83596574Y-71811061D01*
X83864558Y-71850500D01*
X83864561Y-71850500D01*
X84067630Y-71850500D01*
X84067631Y-71850500D01*
X84270156Y-71835677D01*
X84534553Y-71776780D01*
X84787558Y-71680014D01*
X85023777Y-71547441D01*
X85238177Y-71381888D01*
X85426186Y-71186881D01*
X85583799Y-70966579D01*
X85707656Y-70725675D01*
X85795118Y-70469305D01*
X85844319Y-70202933D01*
X85854212Y-69932235D01*
X85852348Y-69915298D01*
X85826686Y-69682072D01*
X85824586Y-69662982D01*
X85756072Y-69400912D01*
X85650130Y-69151610D01*
X85550890Y-68989000D01*
X86163455Y-68989000D01*
X86211177Y-69177451D01*
X86301580Y-69383548D01*
X86379483Y-69502787D01*
X86394762Y-69535751D01*
X86400000Y-69571703D01*
X86400000Y-70385404D01*
X86399500Y-70390482D01*
X86399500Y-70400326D01*
X86399500Y-72149674D01*
X86414034Y-72222740D01*
X86469399Y-72305601D01*
X86552260Y-72360966D01*
X86625326Y-72375500D01*
X87769785Y-72375500D01*
X87818003Y-72385091D01*
X87858880Y-72412405D01*
X88267559Y-72821084D01*
X88270549Y-72824177D01*
X88314320Y-72871044D01*
X88349332Y-72892335D01*
X88359997Y-72899594D01*
X88392658Y-72924361D01*
X88409189Y-72930880D01*
X88428429Y-72940435D01*
X88443618Y-72949672D01*
X88461065Y-72954560D01*
X88483087Y-72960731D01*
X88495305Y-72964839D01*
X88533436Y-72979876D01*
X88550132Y-72981592D01*
X88551110Y-72981693D01*
X88572217Y-72985704D01*
X88589335Y-72990500D01*
X88630320Y-72990500D01*
X88643205Y-72991161D01*
X88645942Y-72991442D01*
X88683972Y-72995352D01*
X88698545Y-72992839D01*
X88701489Y-72992332D01*
X88722896Y-72990500D01*
X88957906Y-72990500D01*
X89014303Y-73003826D01*
X89034442Y-73020655D01*
X89035809Y-73018830D01*
X89159772Y-73111627D01*
X89159773Y-73111627D01*
X89159774Y-73111628D01*
X89287886Y-73159412D01*
X89344515Y-73165500D01*
X89885484Y-73165499D01*
X89885487Y-73165499D01*
X89942114Y-73159412D01*
X90070224Y-73111629D01*
X90070224Y-73111628D01*
X90070226Y-73111628D01*
X90143620Y-73056685D01*
X90207926Y-73032053D01*
X90275578Y-73044906D01*
X90326370Y-73091407D01*
X90361111Y-73147731D01*
X90482268Y-73268888D01*
X90628114Y-73358847D01*
X90790760Y-73412743D01*
X90891161Y-73423000D01*
X90911000Y-73423000D01*
X90911000Y-72694000D01*
X91419000Y-72694000D01*
X91419000Y-73423000D01*
X91438839Y-73423000D01*
X91539239Y-73412743D01*
X91701885Y-73358847D01*
X91847731Y-73268888D01*
X91968888Y-73147731D01*
X92058847Y-73001885D01*
X92112743Y-72839239D01*
X92123000Y-72738839D01*
X92123000Y-72694000D01*
X91419000Y-72694000D01*
X90911000Y-72694000D01*
X90911000Y-71457000D01*
X91419000Y-71457000D01*
X91419000Y-72186000D01*
X92123000Y-72186000D01*
X92123000Y-72141161D01*
X92112743Y-72040760D01*
X92058847Y-71878114D01*
X91968888Y-71732268D01*
X91847731Y-71611111D01*
X91701885Y-71521152D01*
X91539239Y-71467256D01*
X91438839Y-71457000D01*
X91419000Y-71457000D01*
X90911000Y-71457000D01*
X90911000Y-71456999D01*
X90908988Y-71454987D01*
X90853499Y-71440119D01*
X90807380Y-71394000D01*
X90790499Y-71331000D01*
X90790499Y-71145134D01*
X90787585Y-71120009D01*
X90769747Y-71079609D01*
X90742206Y-71017235D01*
X90742205Y-71017234D01*
X90742205Y-71017233D01*
X90662766Y-70937794D01*
X90559992Y-70892415D01*
X90554965Y-70891831D01*
X90534865Y-70889500D01*
X90534861Y-70889500D01*
X90245134Y-70889500D01*
X90220007Y-70892414D01*
X90143583Y-70926159D01*
X90080182Y-70936273D01*
X90020029Y-70913834D01*
X90018366Y-70912660D01*
X89995647Y-70896623D01*
X89995645Y-70896622D01*
X89989876Y-70894572D01*
X89966604Y-70883503D01*
X89961382Y-70880327D01*
X89910784Y-70866150D01*
X89902587Y-70863548D01*
X89853057Y-70845946D01*
X89846947Y-70845528D01*
X89821556Y-70841150D01*
X89815665Y-70839500D01*
X89815664Y-70839500D01*
X89763118Y-70839500D01*
X89754520Y-70839206D01*
X89751758Y-70839017D01*
X89702079Y-70835618D01*
X89696088Y-70836864D01*
X89670451Y-70839500D01*
X88726500Y-70839500D01*
X88663500Y-70822619D01*
X88617381Y-70776500D01*
X88600500Y-70713500D01*
X88600500Y-70696000D01*
X95342000Y-70696000D01*
X96646000Y-70696000D01*
X96646000Y-69642000D01*
X96095451Y-69642000D01*
X96033087Y-69625484D01*
X95987072Y-69580265D01*
X95969470Y-69518199D01*
X95984895Y-69455556D01*
X96029304Y-69408759D01*
X96077731Y-69378888D01*
X96198888Y-69257731D01*
X96288847Y-69111885D01*
X96342743Y-68949239D01*
X96353000Y-68848839D01*
X96353000Y-68829000D01*
X95624000Y-68829000D01*
X95624000Y-69546401D01*
X95641907Y-69579195D01*
X95636843Y-69650010D01*
X95594296Y-69706846D01*
X95487095Y-69787095D01*
X95399554Y-69904037D01*
X95348505Y-70040906D01*
X95342000Y-70101411D01*
X95342000Y-70696000D01*
X88600500Y-70696000D01*
X88600500Y-70390482D01*
X88600000Y-70385404D01*
X88600000Y-69571703D01*
X88605238Y-69535751D01*
X88620517Y-69502787D01*
X88698419Y-69383548D01*
X88788822Y-69177451D01*
X88836544Y-68989000D01*
X86163455Y-68989000D01*
X85550890Y-68989000D01*
X85509018Y-68920390D01*
X85335745Y-68712180D01*
X85331080Y-68708000D01*
X85134006Y-68531421D01*
X85134003Y-68531419D01*
X85134002Y-68531418D01*
X85057794Y-68480999D01*
X86163455Y-68480999D01*
X86163456Y-68481000D01*
X87246000Y-68481000D01*
X87246000Y-67400609D01*
X87754000Y-67400609D01*
X87754000Y-68481000D01*
X88836544Y-68481000D01*
X88836544Y-68480999D01*
X88788822Y-68292548D01*
X88698419Y-68086451D01*
X88575321Y-67898037D01*
X88422903Y-67732466D01*
X88245302Y-67594233D01*
X88047368Y-67487116D01*
X87834514Y-67414044D01*
X87754000Y-67400609D01*
X87246000Y-67400609D01*
X87165485Y-67414044D01*
X86952631Y-67487116D01*
X86754697Y-67594233D01*
X86577096Y-67732466D01*
X86424678Y-67898037D01*
X86301580Y-68086451D01*
X86211177Y-68292548D01*
X86163455Y-68480999D01*
X85057794Y-68480999D01*
X84908090Y-68381956D01*
X84908086Y-68381954D01*
X84662828Y-68266981D01*
X84403425Y-68188938D01*
X84135442Y-68149500D01*
X84135439Y-68149500D01*
X83932369Y-68149500D01*
X83898614Y-68151970D01*
X83729839Y-68164323D01*
X83465449Y-68223219D01*
X83212441Y-68319985D01*
X82976225Y-68452557D01*
X82761820Y-68618114D01*
X82573815Y-68813117D01*
X82416200Y-69033422D01*
X82292342Y-69274328D01*
X82204882Y-69530693D01*
X82155681Y-69797065D01*
X82145787Y-70067766D01*
X77800500Y-70067766D01*
X77800500Y-68989570D01*
X77819616Y-68922848D01*
X77871163Y-68876372D01*
X77939501Y-68864243D01*
X77995084Y-68886597D01*
X77995517Y-68885798D01*
X78002523Y-68889589D01*
X78003894Y-68890141D01*
X78004696Y-68890765D01*
X78202631Y-68997883D01*
X78415491Y-69070957D01*
X78637470Y-69108000D01*
X78862530Y-69108000D01*
X79084508Y-69070957D01*
X79297368Y-68997883D01*
X79495305Y-68890764D01*
X79515688Y-68874899D01*
X79515689Y-68874898D01*
X78479885Y-67839094D01*
X78447273Y-67782610D01*
X78447273Y-67717388D01*
X78479885Y-67660904D01*
X78660904Y-67479885D01*
X78717388Y-67447273D01*
X78782610Y-67447273D01*
X78839094Y-67479885D01*
X79873076Y-68513867D01*
X79873077Y-68513866D01*
X79948418Y-68398551D01*
X80038819Y-68192457D01*
X80094068Y-67974284D01*
X80100595Y-67895517D01*
X80124463Y-67831539D01*
X80178202Y-67789408D01*
X80246027Y-67781497D01*
X80291712Y-67802599D01*
X80293464Y-67799741D01*
X80517722Y-67937167D01*
X80751562Y-68034027D01*
X80997675Y-68093113D01*
X81249999Y-68112971D01*
X81502324Y-68093113D01*
X81748437Y-68034027D01*
X81982277Y-67937167D01*
X82196611Y-67805822D01*
X82196611Y-67805820D01*
X80979885Y-66589094D01*
X80947273Y-66532610D01*
X80947273Y-66467388D01*
X80979885Y-66410904D01*
X81160904Y-66229885D01*
X81217388Y-66197273D01*
X81282610Y-66197273D01*
X81339094Y-66229885D01*
X82555820Y-67446611D01*
X82555822Y-67446611D01*
X82687167Y-67232277D01*
X82784027Y-66998437D01*
X82843113Y-66752324D01*
X82862971Y-66499999D01*
X82843113Y-66247675D01*
X82784027Y-66001562D01*
X82687167Y-65767722D01*
X82554922Y-65551918D01*
X82517694Y-65508330D01*
X82488693Y-65443763D01*
X82499079Y-65373749D01*
X82545574Y-65320381D01*
X82613505Y-65300500D01*
X93780085Y-65300500D01*
X93836513Y-65313842D01*
G37*
%TD.AperFunction*%
%TA.AperFunction,Conductor*%
G36*
X127136500Y-65317381D02*
G01*
X127182619Y-65363500D01*
X127199500Y-65426500D01*
X127199500Y-72496194D01*
X127199270Y-72503802D01*
X127183923Y-72757513D01*
X127182089Y-72772617D01*
X127136961Y-73018874D01*
X127133320Y-73033648D01*
X127058833Y-73272682D01*
X127053437Y-73286908D01*
X126994904Y-73416963D01*
X126959022Y-73463396D01*
X126906000Y-73488540D01*
X126847340Y-73486943D01*
X126293835Y-73338371D01*
X126245480Y-73313177D01*
X126212297Y-73269912D01*
X126200500Y-73216679D01*
X126200500Y-72902010D01*
X126203182Y-72876152D01*
X126205367Y-72865731D01*
X126201468Y-72834453D01*
X126200502Y-72818900D01*
X126199365Y-72812086D01*
X126197083Y-72798417D01*
X126196336Y-72793286D01*
X126193760Y-72772617D01*
X126189866Y-72741374D01*
X126189864Y-72741371D01*
X126188875Y-72733432D01*
X126185065Y-72726392D01*
X126185065Y-72726390D01*
X126160176Y-72680399D01*
X126157803Y-72675788D01*
X126144829Y-72649250D01*
X126134826Y-72628789D01*
X126134825Y-72628788D01*
X126131309Y-72621596D01*
X126086942Y-72580753D01*
X126083184Y-72577147D01*
X125787404Y-72281366D01*
X125760091Y-72240489D01*
X125750500Y-72192271D01*
X125750500Y-72114366D01*
X125750500Y-72114364D01*
X125739866Y-72041375D01*
X125728869Y-72018881D01*
X125675592Y-71909900D01*
X125677685Y-71908876D01*
X125662522Y-71882616D01*
X125662522Y-71817384D01*
X125677685Y-71791123D01*
X125675592Y-71790100D01*
X125710961Y-71717751D01*
X125739866Y-71658625D01*
X125750500Y-71585636D01*
X125750500Y-71507727D01*
X125760091Y-71459509D01*
X125787401Y-71418635D01*
X126053749Y-71152287D01*
X126073919Y-71135909D01*
X126082836Y-71130084D01*
X126102198Y-71105206D01*
X126112508Y-71093532D01*
X126112512Y-71093525D01*
X126112520Y-71093518D01*
X126124605Y-71076588D01*
X126127674Y-71072474D01*
X126159809Y-71031189D01*
X126159809Y-71031187D01*
X126164726Y-71024871D01*
X126167010Y-71017199D01*
X126181937Y-70967056D01*
X126183512Y-70962142D01*
X126184965Y-70957912D01*
X126200500Y-70912660D01*
X126200500Y-70912659D01*
X126203099Y-70905089D01*
X126200608Y-70844856D01*
X126200500Y-70839649D01*
X126200500Y-69202010D01*
X126203182Y-69176152D01*
X126205367Y-69165731D01*
X126203529Y-69150991D01*
X126201467Y-69134450D01*
X126200502Y-69118900D01*
X126200500Y-69118886D01*
X126197083Y-69098417D01*
X126196336Y-69093286D01*
X126193553Y-69070957D01*
X126189866Y-69041374D01*
X126189864Y-69041371D01*
X126188875Y-69033432D01*
X126185065Y-69026392D01*
X126185065Y-69026390D01*
X126160176Y-68980399D01*
X126157803Y-68975788D01*
X126151120Y-68962119D01*
X126134826Y-68928789D01*
X126134825Y-68928788D01*
X126131309Y-68921596D01*
X126086942Y-68880753D01*
X126083184Y-68877147D01*
X125787404Y-68581366D01*
X125760091Y-68540489D01*
X125750500Y-68492271D01*
X125750500Y-68414366D01*
X125748196Y-68398551D01*
X125739866Y-68341375D01*
X125707635Y-68275445D01*
X125675592Y-68209900D01*
X125677685Y-68208876D01*
X125662522Y-68182616D01*
X125662522Y-68117384D01*
X125677685Y-68091123D01*
X125675592Y-68090100D01*
X125707662Y-68024500D01*
X125739866Y-67958625D01*
X125750500Y-67885636D01*
X125750500Y-67564364D01*
X125739866Y-67491375D01*
X125684826Y-67378789D01*
X125684825Y-67378788D01*
X125684825Y-67378787D01*
X125620133Y-67314095D01*
X125587521Y-67257611D01*
X125587521Y-67192389D01*
X125620133Y-67135905D01*
X125684825Y-67071212D01*
X125684825Y-67071211D01*
X125684826Y-67071211D01*
X125739866Y-66958625D01*
X125750500Y-66885636D01*
X125750500Y-66564364D01*
X125739866Y-66491375D01*
X125684826Y-66378789D01*
X125684825Y-66378788D01*
X125684825Y-66378787D01*
X125596212Y-66290174D01*
X125483626Y-66235134D01*
X125447597Y-66229885D01*
X125410636Y-66224500D01*
X125089364Y-66224500D01*
X125065034Y-66228044D01*
X125016371Y-66235134D01*
X124894986Y-66294476D01*
X124844855Y-66307171D01*
X124793846Y-66298659D01*
X124750553Y-66270374D01*
X124742103Y-66261924D01*
X124626519Y-66205418D01*
X124607783Y-66202688D01*
X124551582Y-66194500D01*
X124108418Y-66194500D01*
X124063456Y-66201050D01*
X124033480Y-66205418D01*
X123917896Y-66261924D01*
X123826924Y-66352896D01*
X123770418Y-66468480D01*
X123766050Y-66498456D01*
X123759784Y-66541475D01*
X123759500Y-66543421D01*
X123759500Y-66702272D01*
X123749909Y-66750490D01*
X123722595Y-66791367D01*
X123677962Y-66836000D01*
X123456252Y-67057708D01*
X123436077Y-67074092D01*
X123427162Y-67079916D01*
X123407797Y-67104796D01*
X123397483Y-67116477D01*
X123385417Y-67133376D01*
X123382308Y-67137545D01*
X123345274Y-67185127D01*
X123328075Y-67242895D01*
X123326488Y-67247848D01*
X123306900Y-67304909D01*
X123309392Y-67365144D01*
X123309500Y-67370351D01*
X123309500Y-68594385D01*
X123306818Y-68620243D01*
X123304632Y-68630663D01*
X123308532Y-68661943D01*
X123309498Y-68677500D01*
X123312915Y-68697979D01*
X123313665Y-68703129D01*
X123321123Y-68762963D01*
X123349813Y-68815978D01*
X123352195Y-68820605D01*
X123378690Y-68874799D01*
X123423069Y-68915654D01*
X123426826Y-68919259D01*
X124262595Y-69755028D01*
X124289909Y-69795905D01*
X124299500Y-69844123D01*
X124299500Y-70155875D01*
X124289909Y-70204093D01*
X124262595Y-70244971D01*
X123456252Y-71051312D01*
X123436077Y-71067696D01*
X123427162Y-71073520D01*
X123407797Y-71098400D01*
X123397483Y-71110081D01*
X123385417Y-71126980D01*
X123382308Y-71131149D01*
X123345274Y-71178731D01*
X123328075Y-71236499D01*
X123326488Y-71241452D01*
X123306900Y-71298513D01*
X123309392Y-71358748D01*
X123309500Y-71363955D01*
X123309500Y-73057272D01*
X123299909Y-73105490D01*
X123272595Y-73146368D01*
X122706366Y-73712596D01*
X122665489Y-73739909D01*
X122617271Y-73749500D01*
X114862659Y-73749500D01*
X114798162Y-73731741D01*
X114751845Y-73683470D01*
X114736767Y-73618294D01*
X114757176Y-73554585D01*
X114807320Y-73510303D01*
X114814371Y-73506855D01*
X114822102Y-73503076D01*
X114913076Y-73412102D01*
X114969582Y-73296518D01*
X114980500Y-73221582D01*
X114980500Y-72825691D01*
X114990091Y-72777473D01*
X115017405Y-72736596D01*
X115021000Y-72733001D01*
X115021000Y-72004000D01*
X115529000Y-72004000D01*
X115529000Y-72733000D01*
X115548839Y-72733000D01*
X115649239Y-72722743D01*
X115811885Y-72668847D01*
X115957731Y-72578888D01*
X116078888Y-72457731D01*
X116168847Y-72311885D01*
X116222743Y-72149239D01*
X116233000Y-72048839D01*
X116233000Y-72004000D01*
X115529000Y-72004000D01*
X115021000Y-72004000D01*
X115021000Y-71622000D01*
X115037881Y-71559000D01*
X115084000Y-71512881D01*
X115147000Y-71496000D01*
X116233000Y-71496000D01*
X116233000Y-71451161D01*
X116222743Y-71350760D01*
X116168847Y-71188115D01*
X116117972Y-71105634D01*
X116099415Y-71046614D01*
X116111188Y-70985875D01*
X116150453Y-70938063D01*
X116207743Y-70914704D01*
X116269245Y-70921431D01*
X116290654Y-70929416D01*
X116397886Y-70969412D01*
X116454515Y-70975500D01*
X117045484Y-70975499D01*
X117045487Y-70975499D01*
X117102114Y-70969412D01*
X117230224Y-70921629D01*
X117230224Y-70921628D01*
X117230226Y-70921628D01*
X117339687Y-70839687D01*
X117421628Y-70730226D01*
X117469412Y-70602114D01*
X117475500Y-70545485D01*
X117475499Y-70067766D01*
X119145787Y-70067766D01*
X119175413Y-70337015D01*
X119206386Y-70455490D01*
X119243928Y-70599088D01*
X119281712Y-70688000D01*
X119346171Y-70839687D01*
X119349870Y-70848390D01*
X119490982Y-71079610D01*
X119664255Y-71287820D01*
X119664256Y-71287821D01*
X119664258Y-71287823D01*
X119865993Y-71468578D01*
X119865995Y-71468579D01*
X119865998Y-71468582D01*
X120091910Y-71618044D01*
X120198858Y-71668179D01*
X120337171Y-71733018D01*
X120337173Y-71733018D01*
X120337176Y-71733020D01*
X120596569Y-71811060D01*
X120596572Y-71811060D01*
X120596574Y-71811061D01*
X120864558Y-71850500D01*
X120864561Y-71850500D01*
X121067630Y-71850500D01*
X121067631Y-71850500D01*
X121270156Y-71835677D01*
X121534553Y-71776780D01*
X121787558Y-71680014D01*
X122023777Y-71547441D01*
X122238177Y-71381888D01*
X122426186Y-71186881D01*
X122583799Y-70966579D01*
X122707656Y-70725675D01*
X122795118Y-70469305D01*
X122844319Y-70202933D01*
X122854212Y-69932235D01*
X122852348Y-69915298D01*
X122826686Y-69682072D01*
X122824586Y-69662982D01*
X122756072Y-69400912D01*
X122650130Y-69151610D01*
X122509018Y-68920390D01*
X122335745Y-68712180D01*
X122331080Y-68708000D01*
X122134006Y-68531421D01*
X122134003Y-68531419D01*
X122134002Y-68531418D01*
X121908090Y-68381956D01*
X121908086Y-68381954D01*
X121662828Y-68266981D01*
X121403425Y-68188938D01*
X121135442Y-68149500D01*
X121135439Y-68149500D01*
X120932369Y-68149500D01*
X120898614Y-68151970D01*
X120729839Y-68164323D01*
X120465449Y-68223219D01*
X120212441Y-68319985D01*
X119976225Y-68452557D01*
X119761820Y-68618114D01*
X119573815Y-68813117D01*
X119416200Y-69033422D01*
X119292342Y-69274328D01*
X119204882Y-69530693D01*
X119155681Y-69797065D01*
X119145787Y-70067766D01*
X117475499Y-70067766D01*
X117475499Y-70004516D01*
X117475057Y-70000408D01*
X117469412Y-69947885D01*
X117421630Y-69819777D01*
X117421628Y-69819774D01*
X117366684Y-69746377D01*
X117342053Y-69682072D01*
X117354907Y-69614420D01*
X117401408Y-69563629D01*
X117457730Y-69528889D01*
X117578888Y-69407731D01*
X117668847Y-69261885D01*
X117722743Y-69099239D01*
X117733000Y-68998839D01*
X117733000Y-68979000D01*
X116622000Y-68979000D01*
X116559000Y-68962119D01*
X116512881Y-68916000D01*
X116496000Y-68853000D01*
X116496000Y-67767000D01*
X117004000Y-67767000D01*
X117004000Y-68471000D01*
X117733000Y-68471000D01*
X117733000Y-68451161D01*
X117722743Y-68350760D01*
X117668847Y-68188114D01*
X117578888Y-68042268D01*
X117457731Y-67921111D01*
X117311885Y-67831152D01*
X117149239Y-67777256D01*
X117048839Y-67767000D01*
X117004000Y-67767000D01*
X116496000Y-67767000D01*
X116496000Y-67738974D01*
X116490000Y-67708809D01*
X116490000Y-67386000D01*
X116506881Y-67323000D01*
X116553000Y-67276881D01*
X116616000Y-67260000D01*
X116984063Y-67260000D01*
X117024975Y-67266827D01*
X117061453Y-67286568D01*
X117079696Y-67300767D01*
X117277628Y-67407882D01*
X117490485Y-67480955D01*
X117571000Y-67494391D01*
X117571000Y-66414000D01*
X118079000Y-66414000D01*
X118079000Y-67494391D01*
X118159514Y-67480955D01*
X118372368Y-67407883D01*
X118570302Y-67300766D01*
X118747903Y-67162533D01*
X118900321Y-66996962D01*
X119023419Y-66808548D01*
X119113822Y-66602451D01*
X119161544Y-66414000D01*
X118079000Y-66414000D01*
X117571000Y-66414000D01*
X117571000Y-66032000D01*
X117587881Y-65969000D01*
X117634000Y-65922881D01*
X117697000Y-65906000D01*
X119161544Y-65906000D01*
X119161544Y-65905999D01*
X119113822Y-65717548D01*
X119023417Y-65511447D01*
X119012943Y-65495415D01*
X118992534Y-65431707D01*
X119007612Y-65366531D01*
X119053928Y-65318259D01*
X119118426Y-65300500D01*
X127073500Y-65300500D01*
X127136500Y-65317381D01*
G37*
%TD.AperFunction*%
%TA.AperFunction,Conductor*%
G36*
X109390551Y-66649581D02*
G01*
X109437026Y-66701046D01*
X109449232Y-66769307D01*
X109447000Y-66791153D01*
X109447000Y-66836000D01*
X110533000Y-66836000D01*
X110596000Y-66852881D01*
X110642119Y-66899000D01*
X110659000Y-66962000D01*
X110659000Y-68073000D01*
X110678839Y-68073000D01*
X110779237Y-68062743D01*
X110903083Y-68021704D01*
X110967971Y-68017865D01*
X111026138Y-68046879D01*
X111062104Y-68101024D01*
X111066296Y-68165890D01*
X111064034Y-68177259D01*
X111064034Y-68177260D01*
X111049500Y-68250326D01*
X111049500Y-68999674D01*
X111064034Y-69072740D01*
X111116732Y-69151610D01*
X111120007Y-69156511D01*
X111159971Y-69200604D01*
X111174849Y-69260000D01*
X111159971Y-69319396D01*
X111120007Y-69363488D01*
X111090446Y-69407731D01*
X111064034Y-69447260D01*
X111049500Y-69520326D01*
X111049500Y-70269674D01*
X111064034Y-70342740D01*
X111102511Y-70400326D01*
X111120007Y-70426511D01*
X111159971Y-70470604D01*
X111174849Y-70530000D01*
X111159971Y-70589396D01*
X111120007Y-70633488D01*
X111078239Y-70696000D01*
X111064034Y-70717260D01*
X111049500Y-70790326D01*
X111049500Y-71539674D01*
X111064034Y-71612740D01*
X111114263Y-71687914D01*
X111120007Y-71696511D01*
X111159971Y-71740604D01*
X111174849Y-71800000D01*
X111159971Y-71859396D01*
X111120007Y-71903488D01*
X111078258Y-71965972D01*
X111064034Y-71987260D01*
X111049500Y-72060326D01*
X111049500Y-72809674D01*
X111064034Y-72882740D01*
X111119399Y-72965601D01*
X111202260Y-73020966D01*
X111202261Y-73020966D01*
X111209632Y-73025891D01*
X111252361Y-73046101D01*
X111288836Y-73095283D01*
X111297820Y-73155851D01*
X111277192Y-73213502D01*
X111231823Y-73254622D01*
X111172427Y-73269500D01*
X108450523Y-73269500D01*
X108402305Y-73259909D01*
X108361428Y-73232595D01*
X108348178Y-73219345D01*
X108318165Y-73171351D01*
X108312192Y-73115061D01*
X108312872Y-73109463D01*
X108318250Y-73065176D01*
X108299209Y-72908358D01*
X108243192Y-72760653D01*
X108153455Y-72630646D01*
X108095032Y-72578888D01*
X108035210Y-72525891D01*
X107895340Y-72452481D01*
X107895337Y-72452480D01*
X107741957Y-72414676D01*
X107583987Y-72414676D01*
X107506651Y-72433737D01*
X107450055Y-72434592D01*
X107398793Y-72410583D01*
X107363215Y-72366557D01*
X107350500Y-72311398D01*
X107350500Y-72060327D01*
X107348215Y-72048839D01*
X107335966Y-71987260D01*
X107280601Y-71904399D01*
X107280598Y-71904397D01*
X107279991Y-71903488D01*
X107240029Y-71859397D01*
X107225150Y-71800000D01*
X107240029Y-71740603D01*
X107279991Y-71696511D01*
X107280597Y-71695603D01*
X107280601Y-71695601D01*
X107335966Y-71612740D01*
X107350500Y-71539674D01*
X107350500Y-70790326D01*
X107335966Y-70717260D01*
X107280601Y-70634399D01*
X107280598Y-70634397D01*
X107279991Y-70633488D01*
X107240029Y-70589397D01*
X107225150Y-70530000D01*
X107240029Y-70470603D01*
X107279991Y-70426511D01*
X107280597Y-70425603D01*
X107280601Y-70425601D01*
X107335966Y-70342740D01*
X107350500Y-70269674D01*
X107350500Y-69520326D01*
X107335966Y-69447260D01*
X107280601Y-69364399D01*
X107280598Y-69364397D01*
X107279991Y-69363488D01*
X107240029Y-69319397D01*
X107225150Y-69260000D01*
X107240029Y-69200603D01*
X107279991Y-69156511D01*
X107280597Y-69155603D01*
X107280601Y-69155601D01*
X107335966Y-69072740D01*
X107350500Y-68999674D01*
X107350500Y-68250326D01*
X107335966Y-68177260D01*
X107335965Y-68177259D01*
X107333351Y-68164116D01*
X107337543Y-68099250D01*
X107373509Y-68045105D01*
X107431676Y-68016091D01*
X107496564Y-68019930D01*
X107625762Y-68062743D01*
X107726161Y-68073000D01*
X107746000Y-68073000D01*
X107746000Y-67344000D01*
X108254000Y-67344000D01*
X108254000Y-68073000D01*
X108273839Y-68073000D01*
X108374239Y-68062743D01*
X108536885Y-68008847D01*
X108682731Y-67918888D01*
X108803888Y-67797731D01*
X108893847Y-67651885D01*
X108947743Y-67489239D01*
X108958000Y-67388839D01*
X108958000Y-67344000D01*
X109447000Y-67344000D01*
X109447000Y-67388839D01*
X109457256Y-67489239D01*
X109511152Y-67651885D01*
X109601111Y-67797731D01*
X109722268Y-67918888D01*
X109868114Y-68008847D01*
X110030760Y-68062743D01*
X110131161Y-68073000D01*
X110151000Y-68073000D01*
X110151000Y-67344000D01*
X109447000Y-67344000D01*
X108958000Y-67344000D01*
X108254000Y-67344000D01*
X107746000Y-67344000D01*
X107746000Y-66962000D01*
X107762881Y-66899000D01*
X107809000Y-66852881D01*
X107872000Y-66836000D01*
X108958000Y-66836000D01*
X108958000Y-66791153D01*
X108955768Y-66769307D01*
X108967974Y-66701046D01*
X109014449Y-66649581D01*
X109081115Y-66630500D01*
X109323885Y-66630500D01*
X109390551Y-66649581D01*
G37*
%TD.AperFunction*%
%TD*%
M02*
