M48
; DRILL file {KiCad 7.0.1} date Mon Mar 13 18:15:34 2023
; FORMAT={-:-/ absolute / inch / decimal}
; #@! TF.CreationDate,2023-03-13T18:15:34-04:00
; #@! TF.GenerationSoftware,Kicad,Pcbnew,7.0.1
; #@! TF.FileFunction,Plated,1,2,PTH
FMAT,2
INCH
; #@! TA.AperFunction,Plated,PTH,ViaDrill
T1C0.0157
; #@! TA.AperFunction,Plated,PTH,ViaDrill
T2C0.0256
; #@! TA.AperFunction,Plated,PTH,ComponentDrill
T3C0.0394
; #@! TA.AperFunction,Plated,PTH,ComponentDrill
T4C0.0512
%
G90
G05
T1
X3.0807Y-2.7343
X3.0807Y-2.7884
X3.1465Y-2.8071
X3.1467Y-2.7136
X3.2126Y-2.7256
X3.2264Y-2.7941
X3.252Y-2.6713
X3.2726Y-2.5886
X3.2878Y-2.8429
X3.3307Y-2.6429
X3.3504Y-2.9055
X3.3602Y-2.8516
X3.3764Y-2.5886
X3.3803Y-2.7059
X3.3858Y-2.7972
X3.4122Y-2.9043
X3.4449Y-2.6413
X3.4512Y-2.8654
X3.4791Y-2.5886
X3.4941Y-2.9024
X3.5016Y-2.6661
X3.574Y-2.5886
X3.589Y-2.9028
X3.6258Y-2.7896
X3.639Y-2.852
X3.6634Y-2.9028
X3.6669Y-2.6083
X3.6669Y-2.7028
X3.6969Y-2.789
X3.697Y-2.84
X3.7201Y-2.8937
X3.7417Y-2.7933
X3.7874Y-2.8937
X3.8008Y-2.6736
X3.8016Y-2.726
X3.815Y-2.7933
X4.0591Y-2.7933
X4.0866Y-2.8937
X4.1978Y-2.8886
X4.2387Y-2.8766
X4.2803Y-2.8689
X4.299Y-2.6799
X4.2996Y-2.6413
X4.3185Y-2.8689
X4.3563Y-2.8689
X4.5425Y-2.8781
X4.5884Y-2.8246
X4.5965Y-2.6557
X4.6173Y-2.8874
X4.6472Y-2.7057
X4.6557Y-2.8303
X4.674Y-2.763
X4.6925Y-2.8874
X4.7069Y-2.5909
X4.7108Y-2.6837
X4.725Y-2.836
X4.7413Y-2.6344
X4.7667Y-2.8868
X4.7713Y-2.5894
X4.7965Y-2.6717
X4.8213Y-2.824
X4.8311Y-2.8793
X4.8366Y-2.5907
X4.852Y-2.7413
X4.8602Y-2.6469
X4.878Y-2.7016
X4.878Y-2.7807
X4.8931Y-2.9252
X4.9134Y-2.5904
X4.9394Y-2.9224
X4.9642Y-2.7559
X4.9886Y-2.6776
X4.9886Y-2.8461
X4.9894Y-2.5902
T2
X3.5406Y-2.7713
X3.5776Y-2.7713
X3.6618Y-2.6602
X3.8898Y-2.8937
X3.9843Y-2.8937
X4.2628Y-2.7205
X4.2628Y-2.7768
X4.2628Y-2.8327
X4.2992Y-2.7487
X4.2992Y-2.8048
X4.3346Y-2.7768
X4.335Y-2.7205
X4.335Y-2.8327
T3
X3.1004Y-2.6673
X3.1004Y-2.8445
X3.4449Y-2.7061
X3.4449Y-2.8061
X4.5388Y-2.6047
X4.6388Y-2.6047
T4
X3.1988Y-2.6181
X3.1988Y-2.8937
T0
M30
