%TF.GenerationSoftware,KiCad,Pcbnew,7.0.1*%
%TF.CreationDate,2023-03-15T21:10:10-04:00*%
%TF.ProjectId,ctm_battery c,63746d5f-6261-4747-9465-727920632e6b,1.0.0*%
%TF.SameCoordinates,PX49e8e60PY47868c0*%
%TF.FileFunction,Copper,L1,Top*%
%TF.FilePolarity,Positive*%
%FSLAX46Y46*%
G04 Gerber Fmt 4.6, Leading zero omitted, Abs format (unit mm)*
G04 Created by KiCad (PCBNEW 7.0.1) date 2023-03-15 21:10:10*
%MOMM*%
%LPD*%
G01*
G04 APERTURE LIST*
G04 Aperture macros list*
%AMRoundRect*
0 Rectangle with rounded corners*
0 $1 Rounding radius*
0 $2 $3 $4 $5 $6 $7 $8 $9 X,Y pos of 4 corners*
0 Add a 4 corners polygon primitive as box body*
4,1,4,$2,$3,$4,$5,$6,$7,$8,$9,$2,$3,0*
0 Add four circle primitives for the rounded corners*
1,1,$1+$1,$2,$3*
1,1,$1+$1,$4,$5*
1,1,$1+$1,$6,$7*
1,1,$1+$1,$8,$9*
0 Add four rect primitives between the rounded corners*
20,1,$1+$1,$2,$3,$4,$5,0*
20,1,$1+$1,$4,$5,$6,$7,0*
20,1,$1+$1,$6,$7,$8,$9,0*
20,1,$1+$1,$8,$9,$2,$3,0*%
G04 Aperture macros list end*
%TA.AperFunction,SMDPad,CuDef*%
%ADD10RoundRect,0.225000X-0.250000X0.225000X-0.250000X-0.225000X0.250000X-0.225000X0.250000X0.225000X0*%
%TD*%
%TA.AperFunction,SMDPad,CuDef*%
%ADD11RoundRect,0.150000X0.512500X0.150000X-0.512500X0.150000X-0.512500X-0.150000X0.512500X-0.150000X0*%
%TD*%
%TA.AperFunction,SMDPad,CuDef*%
%ADD12RoundRect,0.184782X-0.240218X-0.715218X0.240218X-0.715218X0.240218X0.715218X-0.240218X0.715218X0*%
%TD*%
%TA.AperFunction,SMDPad,CuDef*%
%ADD13RoundRect,0.135000X0.185000X-0.135000X0.185000X0.135000X-0.185000X0.135000X-0.185000X-0.135000X0*%
%TD*%
%TA.AperFunction,SMDPad,CuDef*%
%ADD14RoundRect,0.225000X-0.225000X-0.250000X0.225000X-0.250000X0.225000X0.250000X-0.225000X0.250000X0*%
%TD*%
%TA.AperFunction,SMDPad,CuDef*%
%ADD15RoundRect,0.135000X-0.135000X-0.185000X0.135000X-0.185000X0.135000X0.185000X-0.135000X0.185000X0*%
%TD*%
%TA.AperFunction,ComponentPad*%
%ADD16R,1.700000X1.700000*%
%TD*%
%TA.AperFunction,ComponentPad*%
%ADD17O,1.700000X1.700000*%
%TD*%
%TA.AperFunction,SMDPad,CuDef*%
%ADD18RoundRect,0.225000X0.225000X0.250000X-0.225000X0.250000X-0.225000X-0.250000X0.225000X-0.250000X0*%
%TD*%
%TA.AperFunction,SMDPad,CuDef*%
%ADD19RoundRect,0.100000X-0.150000X0.100000X-0.150000X-0.100000X0.150000X-0.100000X0.150000X0.100000X0*%
%TD*%
%TA.AperFunction,SMDPad,CuDef*%
%ADD20R,1.300000X0.700000*%
%TD*%
%TA.AperFunction,SMDPad,CuDef*%
%ADD21R,2.400000X3.400000*%
%TD*%
%TA.AperFunction,ComponentPad*%
%ADD22C,1.700000*%
%TD*%
%TA.AperFunction,ComponentPad*%
%ADD23C,2.200000*%
%TD*%
%TA.AperFunction,SMDPad,CuDef*%
%ADD24RoundRect,0.225000X0.250000X-0.225000X0.250000X0.225000X-0.250000X0.225000X-0.250000X-0.225000X0*%
%TD*%
%TA.AperFunction,SMDPad,CuDef*%
%ADD25RoundRect,0.184782X-0.715218X0.240218X-0.715218X-0.240218X0.715218X-0.240218X0.715218X0.240218X0*%
%TD*%
%TA.AperFunction,SMDPad,CuDef*%
%ADD26R,0.400000X1.350000*%
%TD*%
%TA.AperFunction,SMDPad,CuDef*%
%ADD27R,1.800000X1.900000*%
%TD*%
%TA.AperFunction,SMDPad,CuDef*%
%ADD28R,2.100000X1.600000*%
%TD*%
%TA.AperFunction,SMDPad,CuDef*%
%ADD29R,1.900000X1.900000*%
%TD*%
%TA.AperFunction,SMDPad,CuDef*%
%ADD30RoundRect,0.200000X-0.200000X-0.275000X0.200000X-0.275000X0.200000X0.275000X-0.200000X0.275000X0*%
%TD*%
%TA.AperFunction,SMDPad,CuDef*%
%ADD31RoundRect,0.140000X0.170000X-0.140000X0.170000X0.140000X-0.170000X0.140000X-0.170000X-0.140000X0*%
%TD*%
%TA.AperFunction,ViaPad*%
%ADD32C,0.800000*%
%TD*%
%TA.AperFunction,ViaPad*%
%ADD33C,1.050000*%
%TD*%
%TA.AperFunction,Conductor*%
%ADD34C,0.400000*%
%TD*%
%TA.AperFunction,Conductor*%
%ADD35C,0.800000*%
%TD*%
%TA.AperFunction,Conductor*%
%ADD36C,0.650000*%
%TD*%
%TA.AperFunction,Conductor*%
%ADD37C,0.900000*%
%TD*%
%TA.AperFunction,Conductor*%
%ADD38C,0.500000*%
%TD*%
%TA.AperFunction,Conductor*%
%ADD39C,0.250000*%
%TD*%
%TA.AperFunction,Conductor*%
%ADD40C,0.600000*%
%TD*%
%TA.AperFunction,Conductor*%
%ADD41C,0.700000*%
%TD*%
%TA.AperFunction,Conductor*%
%ADD42C,1.000000*%
%TD*%
%TA.AperFunction,Conductor*%
%ADD43C,0.300000*%
%TD*%
%TA.AperFunction,Conductor*%
%ADD44C,0.465000*%
%TD*%
G04 APERTURE END LIST*
D10*
%TO.P,C6,1*%
%TO.N,+5V*%
X18860000Y7830000D03*
%TO.P,C6,2*%
%TO.N,GND*%
X18860000Y6280000D03*
%TD*%
D11*
%TO.P,U3,1,IN*%
%TO.N,+3V3*%
X15445000Y1620000D03*
%TO.P,U3,2,GND*%
%TO.N,GND*%
X15445000Y2570000D03*
%TO.P,U3,3,EN*%
%TO.N,+3V3*%
X15445000Y3520000D03*
%TO.P,U3,4,NC*%
%TO.N,unconnected-(U3-NC-Pad4)*%
X13170000Y3520000D03*
%TO.P,U3,5,OUT*%
%TO.N,+3V0*%
X13170000Y1620000D03*
%TD*%
D12*
%TO.P,L1,1,1*%
%TO.N,Net-(U1-SW)*%
X36405000Y6610000D03*
%TO.P,L1,2,2*%
%TO.N,+BATT*%
X37755000Y6610000D03*
%TD*%
D13*
%TO.P,R2,1*%
%TO.N,Net-(U1-LED2)*%
X46830000Y7265000D03*
%TO.P,R2,2*%
%TO.N,Net-(D3-A)*%
X46830000Y8285000D03*
%TD*%
D14*
%TO.P,C1,1*%
%TO.N,Net-(U1-BAT)*%
X36225000Y3250000D03*
%TO.P,C1,2*%
%TO.N,GND*%
X37775000Y3250000D03*
%TD*%
D15*
%TO.P,R3,1*%
%TO.N,Net-(U1-KEY)*%
X35940000Y2000000D03*
%TO.P,R3,2*%
%TO.N,Net-(SW1-A)*%
X36960000Y2000000D03*
%TD*%
D16*
%TO.P,J3,1,Pin_1*%
%TO.N,+3V0*%
X10000000Y3725000D03*
D17*
%TO.P,J3,2,Pin_2*%
%TO.N,GND*%
X10000000Y6265000D03*
%TD*%
D18*
%TO.P,C5,1*%
%TO.N,+5V*%
X34455000Y7910000D03*
%TO.P,C5,2*%
%TO.N,GND*%
X32905000Y7910000D03*
%TD*%
D19*
%TO.P,D1,1,K*%
%TO.N,Net-(D1-K)*%
X47750000Y1725000D03*
%TO.P,D1,2,A*%
%TO.N,Net-(D1-A)*%
X47750000Y2725000D03*
%TD*%
%TO.P,D4,1,K*%
%TO.N,Net-(D3-A)*%
X47750000Y7275000D03*
%TO.P,D4,2,A*%
%TO.N,Net-(D1-K)*%
X47750000Y8275000D03*
%TD*%
D20*
%TO.P,U1,1,VIN*%
%TO.N,VBUS*%
X28950000Y6375000D03*
%TO.P,U1,2,LED1*%
%TO.N,Net-(U1-LED1)*%
X28950000Y5105000D03*
%TO.P,U1,3,LED2*%
%TO.N,Net-(U1-LED2)*%
X28950000Y3835000D03*
%TO.P,U1,4,LED3*%
%TO.N,Net-(D1-K)*%
X28950000Y2565000D03*
%TO.P,U1,5,KEY*%
%TO.N,Net-(U1-KEY)*%
X34450000Y2565000D03*
%TO.P,U1,6,BAT*%
%TO.N,Net-(U1-BAT)*%
X34450000Y3835000D03*
%TO.P,U1,7,SW*%
%TO.N,Net-(U1-SW)*%
X34450000Y5105000D03*
%TO.P,U1,8,VOUT*%
%TO.N,+5V*%
X34450000Y6375000D03*
D21*
%TO.P,U1,9,GND*%
%TO.N,GND*%
X31700000Y4470000D03*
%TD*%
D22*
%TO.P,SW1,1,A*%
%TO.N,Net-(SW1-A)*%
X1250000Y2750000D03*
%TO.P,SW1,2,B*%
%TO.N,GND*%
X1250000Y7250000D03*
D23*
%TO.P,SW1,3,SH1*%
X3750000Y1500000D03*
%TO.P,SW1,4,SH2*%
X3750000Y8500000D03*
%TD*%
D24*
%TO.P,C4,1*%
%TO.N,+BATT*%
X39250000Y4725000D03*
%TO.P,C4,2*%
%TO.N,GND*%
X39250000Y6275000D03*
%TD*%
D25*
%TO.P,L2,1,1*%
%TO.N,Net-(U2-SW)*%
X11950000Y6410000D03*
%TO.P,L2,2,2*%
%TO.N,+3V3*%
X11950000Y5060000D03*
%TD*%
D14*
%TO.P,C2,1*%
%TO.N,VBUS*%
X28950000Y7910000D03*
%TO.P,C2,2*%
%TO.N,GND*%
X30500000Y7910000D03*
%TD*%
D11*
%TO.P,U2,1,FB*%
%TO.N,+3V3*%
X17217500Y6485000D03*
%TO.P,U2,2,EN*%
%TO.N,+5V*%
X17217500Y7435000D03*
%TO.P,U2,3,IN*%
X17217500Y8385000D03*
%TO.P,U2,4,GND*%
%TO.N,GND*%
X14942500Y8385000D03*
%TO.P,U2,5,SW*%
%TO.N,Net-(U2-SW)*%
X14942500Y7435000D03*
%TO.P,U2,6,BST*%
%TO.N,Net-(U2-BST)*%
X14942500Y6485000D03*
%TD*%
D19*
%TO.P,D3,1,K*%
%TO.N,Net-(D1-K)*%
X47750000Y5425000D03*
%TO.P,D3,2,A*%
%TO.N,Net-(D3-A)*%
X47750000Y6425000D03*
%TD*%
D26*
%TO.P,J1,1,VBUS*%
%TO.N,VBUS*%
X21200000Y4175000D03*
%TO.P,J1,2,D-*%
%TO.N,unconnected-(J1-D--Pad2)*%
X21850000Y4175000D03*
%TO.P,J1,3,D+*%
%TO.N,unconnected-(J1-D+-Pad3)*%
X22500000Y4175000D03*
%TO.P,J1,4,ID*%
%TO.N,unconnected-(J1-ID-Pad4)*%
X23150000Y4175000D03*
%TO.P,J1,5,GND*%
%TO.N,GND*%
X23800000Y4175000D03*
D27*
%TO.P,J1,6,Shield*%
X18700000Y1500000D03*
D28*
X19400000Y4050000D03*
D29*
X21300000Y1500000D03*
X23700000Y1500000D03*
D28*
X25600000Y4050000D03*
D27*
X26300000Y1500000D03*
%TD*%
D14*
%TO.P,C7,1*%
%TO.N,+3V3*%
X13810000Y5005000D03*
%TO.P,C7,2*%
%TO.N,GND*%
X15360000Y5005000D03*
%TD*%
D19*
%TO.P,D2,1,K*%
%TO.N,Net-(D1-A)*%
X47750000Y3575000D03*
%TO.P,D2,2,A*%
%TO.N,Net-(D1-K)*%
X47750000Y4575000D03*
%TD*%
D13*
%TO.P,R1,1*%
%TO.N,Net-(U1-LED1)*%
X46830000Y1715000D03*
%TO.P,R1,2*%
%TO.N,Net-(D1-A)*%
X46830000Y2735000D03*
%TD*%
D30*
%TO.P,R4,1*%
%TO.N,Net-(U1-BAT)*%
X36124000Y4725000D03*
%TO.P,R4,2*%
%TO.N,+BATT*%
X37774000Y4725000D03*
%TD*%
D10*
%TO.P,C8,1*%
%TO.N,+3V0*%
X11525000Y3325000D03*
%TO.P,C8,2*%
%TO.N,GND*%
X11525000Y1775000D03*
%TD*%
D18*
%TO.P,C3,1*%
%TO.N,VBUS*%
X21845000Y6285000D03*
%TO.P,C3,2*%
%TO.N,GND*%
X20295000Y6285000D03*
%TD*%
D16*
%TO.P,J2,1,Pin_1*%
%TO.N,+BATT*%
X37785000Y8840000D03*
D17*
%TO.P,J2,2,Pin_2*%
%TO.N,GND*%
X40325000Y8840000D03*
%TD*%
D31*
%TO.P,C9,1*%
%TO.N,Net-(U2-BST)*%
X13565000Y6170000D03*
%TO.P,C9,2*%
%TO.N,Net-(U2-SW)*%
X13565000Y7130000D03*
%TD*%
D32*
%TO.N,GND*%
X39780000Y1660000D03*
X41220000Y4820000D03*
X6010000Y2790000D03*
X4450000Y4030000D03*
X42055000Y9190000D03*
X11720000Y9260000D03*
X9730000Y9240000D03*
X2425000Y6075000D03*
X20065000Y7955000D03*
X23700000Y1500000D03*
X10230000Y1775000D03*
X26300000Y1500000D03*
X45950000Y7770000D03*
X4100000Y5770000D03*
X8690000Y7915000D03*
X8625000Y1205000D03*
X42930000Y8085000D03*
X16630000Y5010000D03*
X16510000Y2575000D03*
D33*
X31700000Y5182500D03*
D32*
X31695000Y6930000D03*
X49210000Y6990000D03*
X43575000Y1675000D03*
X750000Y4175000D03*
X8500000Y3950000D03*
X45740000Y5370000D03*
X20865000Y7955000D03*
X45210000Y1865000D03*
X40755000Y3110000D03*
X31220000Y2130000D03*
D33*
X32610000Y3050000D03*
D32*
X2420000Y3700000D03*
D33*
X31700000Y3757500D03*
D32*
X49210000Y2710000D03*
X19600000Y5450000D03*
X15930000Y8385000D03*
X41690000Y1660000D03*
X750000Y5550000D03*
X46400000Y4370000D03*
X33150000Y2130000D03*
X47300000Y9205000D03*
X44960000Y3270000D03*
X5100000Y7150000D03*
X5625000Y9250000D03*
X21300000Y1500000D03*
X16990000Y1500000D03*
X13385000Y8545000D03*
X20065000Y7155000D03*
X43690000Y9230000D03*
D33*
X30775000Y3050000D03*
D32*
X44330000Y7140000D03*
X37880000Y1895000D03*
X42515000Y2965000D03*
D33*
X32600000Y4470000D03*
D32*
X18700000Y1500000D03*
X8360000Y6270000D03*
D33*
X30775000Y4470000D03*
D32*
X39250000Y7545000D03*
X17830000Y5590000D03*
X20865000Y7155000D03*
X7660000Y9230000D03*
X48590000Y5000000D03*
D33*
X32610000Y5900000D03*
D32*
X19400000Y4050000D03*
X31710000Y7910000D03*
X40540000Y6275000D03*
X46400000Y6380000D03*
X39045000Y3255000D03*
X45350000Y9195000D03*
D33*
X30775000Y5900000D03*
D32*
X10425000Y7975000D03*
X49230000Y9210000D03*
X32190000Y2130000D03*
X17540000Y4050000D03*
X7850000Y2570000D03*
X42155000Y6835000D03*
X25600000Y4050000D03*
X6895000Y7235000D03*
X47960000Y770000D03*
%TO.N,Net-(D1-K)*%
X46785000Y700000D03*
X29125000Y1630000D03*
%TO.N,Net-(SW1-A)*%
X30162972Y1934824D03*
%TD*%
D34*
%TO.N,GND*%
X23800000Y4175000D02*
X23800000Y1600000D01*
D35*
X20065000Y7155000D02*
X20865000Y7155000D01*
D36*
X17590000Y5235000D02*
X18640000Y6285000D01*
D37*
X19590000Y3922500D02*
X19590000Y6067500D01*
D38*
X15000000Y8385000D02*
X16080000Y8385000D01*
D35*
X20065000Y7955000D02*
X20865000Y7955000D01*
D37*
X20295000Y6425000D02*
X20295000Y7095000D01*
D35*
X16575000Y2570000D02*
X15130000Y2570000D01*
X20865000Y7150000D02*
X20865000Y7950000D01*
D39*
X23925000Y4050000D02*
X23800000Y4175000D01*
D40*
X25595000Y4090000D02*
X23920000Y4090000D01*
D35*
X20065000Y7155000D02*
X20065000Y7955000D01*
D38*
X16080000Y8385000D02*
X16080000Y9450000D01*
D41*
%TO.N,VBUS*%
X28950000Y6375000D02*
X27700000Y6375000D01*
X27700000Y6375000D02*
X27700000Y5450000D01*
X28950000Y7910000D02*
X28950000Y6375000D01*
D34*
X21200000Y4420000D02*
X21200000Y5445000D01*
D42*
%TO.N,+5V*%
X17055000Y7650000D02*
X17055000Y9200000D01*
D39*
X19210000Y7435000D02*
X19210000Y8015000D01*
D40*
X17445000Y7435000D02*
X19035000Y7435000D01*
D35*
X17205000Y8465000D02*
X18695000Y8465000D01*
D39*
X34290000Y6420000D02*
X34385000Y6515000D01*
D41*
X34450000Y6375000D02*
X34455000Y7910000D01*
D39*
X18280000Y8650000D02*
X18280000Y9230000D01*
D43*
%TO.N,+3V3*%
X16780000Y6485000D02*
X16130000Y5835000D01*
X16130000Y5835000D02*
X14901827Y5835000D01*
X14901827Y5835000D02*
X14071827Y5005000D01*
D37*
%TO.N,+3V0*%
X11525000Y3325000D02*
X10400000Y3325000D01*
D41*
%TO.N,+BATT*%
X37761250Y6211250D02*
X37761250Y4983750D01*
X37760000Y6770000D02*
X37760000Y8355000D01*
D39*
X37760000Y8355000D02*
X38175000Y8770000D01*
D41*
X39250000Y4725000D02*
X37765000Y4730000D01*
%TO.N,Net-(U1-BAT)*%
X34450000Y3835000D02*
X35235000Y3835000D01*
X36200000Y3250000D02*
X35615000Y3835000D01*
X35235000Y3835000D02*
X36115000Y4715000D01*
X35615000Y3835000D02*
X35235000Y3835000D01*
%TO.N,Net-(D1-K)*%
X29125000Y2400000D02*
X29125000Y1630000D01*
D39*
X48325000Y2300000D02*
X48325000Y4000000D01*
X48325000Y6000000D02*
X48325000Y7700000D01*
X48325000Y7700000D02*
X47750000Y8275000D01*
X48325000Y4000000D02*
X47750000Y4575000D01*
X47750000Y1725000D02*
X48325000Y2300000D01*
X29320000Y2595000D02*
X29125000Y2400000D01*
X47750000Y4575000D02*
X47750000Y5425000D01*
X47750000Y1664462D02*
X47750000Y1725000D01*
X47750000Y5425000D02*
X48325000Y6000000D01*
X46785538Y700000D02*
X47750000Y1664462D01*
%TO.N,Net-(D1-A)*%
X47750000Y3575000D02*
X47750000Y2725000D01*
X47740000Y2735000D02*
X47750000Y2725000D01*
X46830000Y2735000D02*
X47740000Y2735000D01*
%TO.N,Net-(D3-A)*%
X47750000Y7275000D02*
X47750000Y7365000D01*
X47750000Y7365000D02*
X46830000Y8285000D01*
X47750000Y7275000D02*
X47750000Y6425000D01*
D41*
%TO.N,Net-(U1-SW)*%
X35020000Y5162000D02*
X36480000Y6622000D01*
X34452500Y5106250D02*
X34957500Y5106250D01*
D39*
%TO.N,Net-(U1-KEY)*%
X34735000Y2565000D02*
X35300000Y2000000D01*
X35300000Y2000000D02*
X35830000Y2000000D01*
%TO.N,Net-(SW1-A)*%
X36315000Y1355000D02*
X36960000Y2000000D01*
X30825000Y1355000D02*
X30742796Y1355000D01*
X30742796Y1355000D02*
X30162972Y1934824D01*
X30825000Y1355000D02*
X36315000Y1355000D01*
%TO.N,Net-(U1-LED1)*%
X27525000Y3995000D02*
X27525000Y1475000D01*
X45484695Y425000D02*
X46774695Y1715000D01*
X46774695Y1715000D02*
X46830000Y1715000D01*
X28575000Y425000D02*
X45484695Y425000D01*
X27525000Y1475000D02*
X28575000Y425000D01*
X28665000Y5135000D02*
X27525000Y3995000D01*
%TO.N,Net-(U1-LED2)*%
X47175000Y6920000D02*
X46830000Y7265000D01*
X27975000Y3175000D02*
X27975000Y1695000D01*
X46185000Y1775000D02*
X46185000Y3060538D01*
X45285000Y875000D02*
X46185000Y1775000D01*
X27975000Y1695000D02*
X28795000Y875000D01*
X28665000Y3865000D02*
X27975000Y3175000D01*
X47175000Y4050538D02*
X47175000Y6920000D01*
X46185000Y3060538D02*
X47175000Y4050538D01*
X28795000Y875000D02*
X45285000Y875000D01*
D44*
%TO.N,Net-(U2-BST)*%
X14551250Y6417500D02*
X13488750Y6417500D01*
X13488750Y6246250D02*
X13488750Y6417500D01*
%TD*%
%TA.AperFunction,Conductor*%
%TO.N,+5V*%
G36*
X36621500Y9682619D02*
G01*
X36667619Y9636500D01*
X36684500Y9573500D01*
X36684500Y7955482D01*
X36685000Y7950404D01*
X36685000Y7886500D01*
X36668119Y7823500D01*
X36622000Y7777381D01*
X36559000Y7760500D01*
X36112346Y7760500D01*
X36100585Y7759398D01*
X36082941Y7757743D01*
X35959092Y7714407D01*
X35927871Y7691364D01*
X35911958Y7679620D01*
X35876523Y7661313D01*
X35837139Y7655000D01*
X35466191Y7655000D01*
X35461164Y7656000D01*
X34709000Y7656000D01*
X34709000Y6944191D01*
X34704000Y6919054D01*
X34704000Y6247000D01*
X34687119Y6184000D01*
X34641000Y6137881D01*
X34578000Y6121000D01*
X34322000Y6121000D01*
X34259000Y6137881D01*
X34212881Y6184000D01*
X34200000Y6232072D01*
X34200000Y7235919D01*
X34201000Y7240946D01*
X34201000Y8893000D01*
X34709000Y8893000D01*
X34709000Y8164000D01*
X35413000Y8164000D01*
X35413000Y8208839D01*
X35402743Y8309240D01*
X35348847Y8471886D01*
X35258888Y8617732D01*
X35137731Y8738889D01*
X34991885Y8828848D01*
X34829239Y8882744D01*
X34728839Y8893000D01*
X34709000Y8893000D01*
X34201000Y8893000D01*
X34181161Y8893000D01*
X34080760Y8882744D01*
X33918114Y8828848D01*
X33772271Y8738891D01*
X33695287Y8661905D01*
X33654409Y8634591D01*
X33606191Y8625000D01*
X33266675Y8625000D01*
X33247920Y8628384D01*
X33247849Y8627720D01*
X33232115Y8629412D01*
X33232114Y8629412D01*
X33175484Y8635500D01*
X32634512Y8635500D01*
X32562149Y8627721D01*
X32562077Y8628384D01*
X32543323Y8625000D01*
X30861675Y8625000D01*
X30842920Y8628384D01*
X30842849Y8627720D01*
X30827115Y8629412D01*
X30827114Y8629412D01*
X30770484Y8635500D01*
X30229512Y8635500D01*
X30157149Y8627721D01*
X30157077Y8628384D01*
X30138323Y8625000D01*
X29311675Y8625000D01*
X29292920Y8628384D01*
X29292849Y8627720D01*
X29277115Y8629412D01*
X29277114Y8629412D01*
X29220484Y8635500D01*
X28679512Y8635500D01*
X28622885Y8629413D01*
X28494775Y8581630D01*
X28385314Y8499689D01*
X28348486Y8450491D01*
X28304017Y8413328D01*
X28247617Y8400000D01*
X21391450Y8400000D01*
X21346771Y8408188D01*
X21307900Y8431685D01*
X21304753Y8434473D01*
X21302087Y8436905D01*
X21247787Y8487896D01*
X21243049Y8491234D01*
X21173921Y8527517D01*
X21171779Y8528668D01*
X21103567Y8566167D01*
X21097366Y8567696D01*
X21097365Y8567696D01*
X21024266Y8585714D01*
X21023095Y8586008D01*
X20997171Y8592664D01*
X20947177Y8605500D01*
X20947176Y8605500D01*
X20138399Y8605500D01*
X20114788Y8607732D01*
X20106168Y8609377D01*
X20048520Y8605749D01*
X20040608Y8605500D01*
X19986013Y8605500D01*
X19976912Y8603257D01*
X19954673Y8599845D01*
X19942139Y8599057D01*
X19933788Y8596343D01*
X19910649Y8591171D01*
X19901940Y8590071D01*
X19874466Y8579194D01*
X19858245Y8574010D01*
X19832637Y8567698D01*
X19820985Y8561582D01*
X19801370Y8553318D01*
X19770692Y8543350D01*
X19770478Y8544007D01*
X19736979Y8532145D01*
X19681062Y8538319D01*
X19633405Y8568215D01*
X19567731Y8633889D01*
X19421885Y8723848D01*
X19259239Y8777744D01*
X19158839Y8788000D01*
X19114000Y8788000D01*
X19114000Y8291000D01*
X19097119Y8228000D01*
X19051000Y8181881D01*
X18988000Y8165000D01*
X18732000Y8165000D01*
X18669000Y8181881D01*
X18622881Y8228000D01*
X18606000Y8291000D01*
X18606000Y8788000D01*
X18561161Y8788000D01*
X18447038Y8776341D01*
X18446918Y8777515D01*
X18409035Y8773952D01*
X18356133Y8793770D01*
X18317207Y8834712D01*
X18254053Y8941501D01*
X18136501Y9059053D01*
X17993399Y9143682D01*
X17833752Y9190065D01*
X17796453Y9193000D01*
X17471500Y9193000D01*
X17471500Y7307000D01*
X17454619Y7244000D01*
X17408500Y7197881D01*
X17345500Y7181000D01*
X17089500Y7181000D01*
X17026500Y7197881D01*
X16980381Y7244000D01*
X16963500Y7307000D01*
X16963500Y9192999D01*
X16876000Y9192999D01*
X16813000Y9209880D01*
X16766881Y9255999D01*
X16750000Y9318999D01*
X16750000Y9573500D01*
X16766881Y9636500D01*
X16813000Y9682619D01*
X16876000Y9699500D01*
X36558500Y9699500D01*
X36621500Y9682619D01*
G37*
%TD.AperFunction*%
%TD*%
%TA.AperFunction,Conductor*%
%TO.N,VBUS*%
G36*
X22100000Y6025000D02*
G01*
X22100000Y5174500D01*
X22083387Y5112500D01*
X22038000Y5067113D01*
X21976000Y5050500D01*
X21630251Y5050500D01*
X21571769Y5038868D01*
X21505447Y4994553D01*
X21461132Y4928231D01*
X21451810Y4881364D01*
X21439551Y4847103D01*
X21417875Y4817876D01*
X21400000Y4800002D01*
X21400000Y4224000D01*
X21383387Y4162000D01*
X21338000Y4116613D01*
X21276000Y4100000D01*
X21124000Y4100000D01*
X21062000Y4116613D01*
X21016613Y4162000D01*
X21000000Y4224000D01*
X21000000Y6426000D01*
X21016613Y6488000D01*
X21062000Y6533387D01*
X21124000Y6550000D01*
X21590000Y6550000D01*
X22100000Y6550000D01*
X22100000Y6025000D01*
G37*
%TD.AperFunction*%
%TD*%
%TA.AperFunction,Conductor*%
%TO.N,Net-(U2-SW)*%
G36*
X14391222Y7884500D02*
G01*
X15481000Y7884500D01*
X15543000Y7867887D01*
X15588387Y7822500D01*
X15605000Y7760500D01*
X15605000Y7109500D01*
X15588387Y7047500D01*
X15543000Y7002113D01*
X15481000Y6985500D01*
X14396737Y6985500D01*
X14328609Y6975574D01*
X14223515Y6924198D01*
X14186139Y6886820D01*
X14145910Y6859939D01*
X14098457Y6850500D01*
X13551512Y6850500D01*
X13523920Y6853609D01*
X13521474Y6854168D01*
X13477174Y6850847D01*
X13467907Y6850500D01*
X13456300Y6850500D01*
X13444811Y6848769D01*
X13435606Y6847733D01*
X13425799Y6846998D01*
X13391308Y6844412D01*
X13388975Y6843496D01*
X13362164Y6836313D01*
X13359679Y6835939D01*
X13319635Y6816656D01*
X13311143Y6812951D01*
X13269804Y6796726D01*
X13267837Y6795157D01*
X13244344Y6780395D01*
X13242075Y6779303D01*
X13209510Y6749088D01*
X13202489Y6743045D01*
X13167750Y6715340D01*
X13166338Y6713268D01*
X13148232Y6692228D01*
X13146393Y6690522D01*
X13124177Y6652044D01*
X13119246Y6644197D01*
X13094223Y6607495D01*
X13093483Y6605093D01*
X13082386Y6579659D01*
X13081129Y6577482D01*
X13071239Y6534156D01*
X13068840Y6525204D01*
X13055750Y6482765D01*
X13055750Y6480262D01*
X13052641Y6452670D01*
X13052082Y6450225D01*
X13055403Y6405924D01*
X13055750Y6396657D01*
X13055750Y6367522D01*
X13054689Y6351336D01*
X13054500Y6349901D01*
X13054500Y5990103D01*
X13055741Y5980682D01*
X13045182Y5912093D01*
X12999425Y5859919D01*
X12932801Y5840500D01*
X11174000Y5840500D01*
X11112000Y5857113D01*
X11066613Y5902500D01*
X11050000Y5964500D01*
X11050000Y6202223D01*
X11050597Y6214377D01*
X11052491Y6233607D01*
X11055583Y6265000D01*
X11050596Y6315624D01*
X11050000Y6327777D01*
X11050000Y7761000D01*
X11066613Y7823000D01*
X11112000Y7868387D01*
X11174000Y7885000D01*
X14384322Y7885000D01*
X14391222Y7884500D01*
G37*
%TD.AperFunction*%
%TD*%
%TA.AperFunction,Conductor*%
%TO.N,VBUS*%
G36*
X29141000Y8147119D02*
G01*
X29187119Y8101000D01*
X29204000Y8038000D01*
X29204000Y6247000D01*
X29187119Y6184000D01*
X29141000Y6137881D01*
X29078000Y6121000D01*
X27792000Y6121000D01*
X27792000Y5976411D01*
X27798505Y5915907D01*
X27849554Y5779038D01*
X27937094Y5662097D01*
X27999508Y5615375D01*
X28036672Y5570906D01*
X28050000Y5514506D01*
X28050000Y5494596D01*
X28049500Y5489518D01*
X28049500Y5226000D01*
X28032619Y5163000D01*
X27986500Y5116881D01*
X27923500Y5100000D01*
X26689596Y5100000D01*
X26684518Y5100500D01*
X26674674Y5100500D01*
X24525326Y5100500D01*
X24515482Y5100500D01*
X24510404Y5100000D01*
X24039596Y5100000D01*
X24034518Y5100500D01*
X24024674Y5100500D01*
X23575326Y5100500D01*
X23565482Y5100500D01*
X23560404Y5100000D01*
X23389596Y5100000D01*
X23384518Y5100500D01*
X23374674Y5100500D01*
X22996000Y5100500D01*
X22933000Y5117381D01*
X22886881Y5163500D01*
X22870000Y5226500D01*
X22870000Y6025000D01*
X22861191Y6025000D01*
X22831026Y6031000D01*
X22100000Y6031000D01*
X22100000Y6539000D01*
X22803000Y6539000D01*
X22803000Y6583839D01*
X22798386Y6629000D01*
X27792000Y6629000D01*
X28696000Y6629000D01*
X28696000Y7656000D01*
X27992000Y7656000D01*
X27992000Y7611161D01*
X28002256Y7510761D01*
X28056153Y7348114D01*
X28067894Y7329078D01*
X28086432Y7270369D01*
X28074940Y7209884D01*
X28036162Y7162065D01*
X27937094Y7087904D01*
X27849554Y6970963D01*
X27798505Y6834094D01*
X27792000Y6773589D01*
X27792000Y6629000D01*
X22798386Y6629000D01*
X22792743Y6684240D01*
X22738847Y6846886D01*
X22648888Y6992732D01*
X22527731Y7113889D01*
X22381885Y7203848D01*
X22219239Y7257744D01*
X22118839Y7268000D01*
X22099000Y7268000D01*
X22099000Y6550000D01*
X21591000Y6550000D01*
X21591000Y7316164D01*
X21590000Y7321191D01*
X21590000Y8018500D01*
X21606881Y8081500D01*
X21653000Y8127619D01*
X21716000Y8144500D01*
X28247617Y8144500D01*
X28294810Y8150000D01*
X29130248Y8150000D01*
X29141000Y8147119D01*
G37*
%TD.AperFunction*%
%TD*%
%TA.AperFunction,Conductor*%
%TO.N,GND*%
G36*
X16137000Y9682619D02*
G01*
X16183119Y9636500D01*
X16200000Y9573500D01*
X16200000Y9024744D01*
X16186267Y8967541D01*
X16148061Y8922808D01*
X16093711Y8900295D01*
X16035064Y8904911D01*
X15984905Y8935649D01*
X15861501Y9059053D01*
X15718399Y9143682D01*
X15558752Y9190065D01*
X15521453Y9193000D01*
X15196500Y9193000D01*
X15196500Y8266000D01*
X15179619Y8203000D01*
X15133500Y8156881D01*
X15070500Y8140000D01*
X14400431Y8140000D01*
X14395879Y8140082D01*
X14393201Y8140179D01*
X14384322Y8140500D01*
X11174000Y8140500D01*
X11107873Y8131795D01*
X11045872Y8115182D01*
X10984247Y8089655D01*
X10931331Y8049052D01*
X10885948Y8003669D01*
X10845345Y7950753D01*
X10819818Y7889128D01*
X10803205Y7827127D01*
X10794500Y7761000D01*
X10794500Y7590599D01*
X10778051Y7528352D01*
X10732998Y7482358D01*
X10671105Y7464626D01*
X10608531Y7479785D01*
X10547371Y7512883D01*
X10334514Y7585956D01*
X10254000Y7599391D01*
X10254000Y6137000D01*
X10237119Y6074000D01*
X10191000Y6027881D01*
X10128000Y6011000D01*
X8663455Y6011000D01*
X8711177Y5822549D01*
X8801580Y5616452D01*
X8879483Y5497213D01*
X8894762Y5464249D01*
X8900000Y5428297D01*
X8900000Y4614596D01*
X8899500Y4609518D01*
X8899500Y4599674D01*
X8899500Y2850326D01*
X8914034Y2777260D01*
X8969399Y2694399D01*
X9052260Y2639034D01*
X9125326Y2624500D01*
X10357628Y2624500D01*
X10573217Y2624500D01*
X10637009Y2607158D01*
X10683241Y2559907D01*
X10699187Y2495752D01*
X10680458Y2432353D01*
X10606152Y2311886D01*
X10552256Y2149240D01*
X10542000Y2048839D01*
X10542000Y2029000D01*
X11653000Y2029000D01*
X11716000Y2012119D01*
X11762119Y1966000D01*
X11779000Y1903000D01*
X11779000Y817000D01*
X11823839Y817000D01*
X11924239Y827257D01*
X12086885Y881153D01*
X12232728Y971110D01*
X12289870Y1028253D01*
X12336063Y1057629D01*
X12386229Y1064110D01*
X12386229Y1064500D01*
X12389247Y1064500D01*
X12390354Y1064643D01*
X12391930Y1064500D01*
X12391932Y1064500D01*
X13702030Y1064500D01*
X13702031Y1064500D01*
X13766617Y1072798D01*
X13766619Y1072799D01*
X13766622Y1072799D01*
X13827263Y1088643D01*
X13827262Y1088643D01*
X13827271Y1088645D01*
X13829139Y1089399D01*
X13831123Y1089652D01*
X13835068Y1090682D01*
X13835201Y1090172D01*
X13892571Y1097484D01*
X13940171Y1078121D01*
X13941440Y1080256D01*
X13994268Y1048869D01*
X14046144Y1031583D01*
X14046146Y1031583D01*
X14046148Y1031582D01*
X14097713Y1020352D01*
X14124897Y1017427D01*
X14152078Y1014500D01*
X14152082Y1014500D01*
X15981000Y1014500D01*
X16047129Y1023206D01*
X16109129Y1039819D01*
X16170750Y1065344D01*
X16223666Y1105947D01*
X16269053Y1151334D01*
X16309656Y1204250D01*
X16335181Y1265871D01*
X16351794Y1327871D01*
X16360500Y1394000D01*
X16360500Y1845500D01*
X16351794Y1911629D01*
X16335181Y1973629D01*
X16309656Y2035250D01*
X16302341Y2044783D01*
X16269051Y2088169D01*
X16223668Y2133552D01*
X16170752Y2174155D01*
X16170380Y2174309D01*
X16109129Y2199681D01*
X16109130Y2199681D01*
X16109127Y2199682D01*
X16047126Y2216295D01*
X15981000Y2225000D01*
X15115643Y2225000D01*
X15099197Y2226078D01*
X15076003Y2229132D01*
X15056382Y2231715D01*
X15024612Y2240228D01*
X14971335Y2262296D01*
X14942850Y2278742D01*
X14897106Y2313842D01*
X14873844Y2337104D01*
X14865235Y2348324D01*
X14854621Y2361257D01*
X14852015Y2364227D01*
X14843064Y2375706D01*
X14835658Y2386428D01*
X14822922Y2409819D01*
X14800224Y2464617D01*
X14791713Y2496384D01*
X14788011Y2524501D01*
X14784186Y2553558D01*
X14784186Y2586449D01*
X14791713Y2643620D01*
X14800222Y2675380D01*
X14822926Y2730193D01*
X14835666Y2753585D01*
X14843076Y2764312D01*
X14852006Y2775763D01*
X14854628Y2778752D01*
X14865227Y2791668D01*
X14873843Y2802898D01*
X14897097Y2826153D01*
X14942854Y2861264D01*
X14971327Y2877703D01*
X15024614Y2899775D01*
X15056383Y2908286D01*
X15099195Y2913922D01*
X15115640Y2915000D01*
X15981000Y2915000D01*
X16047129Y2923706D01*
X16109129Y2940319D01*
X16170750Y2965844D01*
X16223666Y3006447D01*
X16269053Y3051834D01*
X16309656Y3104750D01*
X16335181Y3166371D01*
X16351794Y3228371D01*
X16360500Y3294500D01*
X16360500Y4206000D01*
X16351794Y4272129D01*
X16335181Y4334129D01*
X16309656Y4395750D01*
X16309655Y4395751D01*
X16309654Y4395754D01*
X16300358Y4407869D01*
X16276079Y4463597D01*
X16280717Y4524206D01*
X16307743Y4605763D01*
X16318000Y4706161D01*
X16318000Y4751000D01*
X15232000Y4751000D01*
X15169000Y4767881D01*
X15122881Y4814000D01*
X15106000Y4877000D01*
X15106000Y5133000D01*
X15122881Y5196000D01*
X15169000Y5242119D01*
X15232000Y5259000D01*
X16318000Y5259000D01*
X16318000Y5303839D01*
X16309541Y5386638D01*
X16314467Y5436518D01*
X16338448Y5480531D01*
X16355375Y5493982D01*
X16368342Y5506950D01*
X16376442Y5515051D01*
X16376451Y5515056D01*
X16376450Y5515057D01*
X16566893Y5705500D01*
X16758988Y5897597D01*
X16799866Y5924910D01*
X16848084Y5934501D01*
X17761517Y5934501D01*
X17761518Y5934501D01*
X17766272Y5935254D01*
X17824687Y5930715D01*
X17874733Y5900247D01*
X17905589Y5850439D01*
X17941152Y5743115D01*
X18031111Y5597269D01*
X18129260Y5499120D01*
X18158221Y5454057D01*
X18165844Y5401036D01*
X18150753Y5349640D01*
X18115674Y5309157D01*
X17987095Y5212905D01*
X17899554Y5095963D01*
X17848505Y4959094D01*
X17842000Y4898589D01*
X17842000Y4304000D01*
X19528000Y4304000D01*
X19591000Y4287119D01*
X19637119Y4241000D01*
X19654000Y4178000D01*
X19654000Y3922000D01*
X19637119Y3859000D01*
X19591000Y3812881D01*
X19528000Y3796000D01*
X17842000Y3796000D01*
X17842000Y3201411D01*
X17848505Y3140905D01*
X17853670Y3127057D01*
X17861006Y3070676D01*
X17842809Y3016809D01*
X17802785Y2976426D01*
X17749083Y2957750D01*
X17690906Y2951495D01*
X17554037Y2900446D01*
X17437095Y2812905D01*
X17349554Y2695963D01*
X17298505Y2559094D01*
X17292000Y2498589D01*
X17292000Y1754000D01*
X21046000Y1754000D01*
X21046000Y2324000D01*
X21062881Y2387000D01*
X21109000Y2433119D01*
X21172000Y2450000D01*
X21428000Y2450000D01*
X21491000Y2433119D01*
X21537119Y2387000D01*
X21554000Y2324000D01*
X21554000Y1754000D01*
X23446000Y1754000D01*
X23446000Y2872000D01*
X23462881Y2935000D01*
X23509000Y2981119D01*
X23572000Y2998000D01*
X23600000Y2998000D01*
X23600000Y3460404D01*
X23600500Y3465482D01*
X23600500Y4249000D01*
X23617381Y4312000D01*
X23663500Y4358119D01*
X23726500Y4375000D01*
X24424809Y4375000D01*
X24473027Y4365409D01*
X24513904Y4338095D01*
X24547999Y4304000D01*
X25728000Y4304000D01*
X25791000Y4287119D01*
X25837119Y4241000D01*
X25854000Y4178000D01*
X25854000Y3922000D01*
X25837119Y3859000D01*
X25791000Y3812881D01*
X25728000Y3796000D01*
X24128000Y3796000D01*
X24065000Y3812881D01*
X24018881Y3859000D01*
X24002000Y3922000D01*
X24002000Y3975000D01*
X24000000Y3975000D01*
X24000000Y3050191D01*
X23990409Y3001973D01*
X23963095Y2961096D01*
X23954000Y2952001D01*
X23954000Y1754000D01*
X26428000Y1754000D01*
X26491000Y1737119D01*
X26537119Y1691000D01*
X26554000Y1628000D01*
X26554000Y1372000D01*
X26537119Y1309000D01*
X26491000Y1262881D01*
X26428000Y1246000D01*
X17292000Y1246000D01*
X17292000Y501411D01*
X17298606Y439970D01*
X17286664Y371446D01*
X17240183Y319699D01*
X17173328Y300500D01*
X5113505Y300500D01*
X5045574Y320381D01*
X4999079Y373749D01*
X4988693Y443763D01*
X5017694Y508330D01*
X5054922Y551919D01*
X5187167Y767723D01*
X5284027Y1001563D01*
X5343113Y1247676D01*
X5362971Y1500000D01*
X5361318Y1521000D01*
X10542000Y1521000D01*
X10542000Y1501161D01*
X10552256Y1400761D01*
X10606152Y1238115D01*
X10696111Y1092269D01*
X10817268Y971112D01*
X10963114Y881153D01*
X11125760Y827257D01*
X11226161Y817000D01*
X11271000Y817000D01*
X11271000Y1521000D01*
X10542000Y1521000D01*
X5361318Y1521000D01*
X5343113Y1752325D01*
X5284027Y1998438D01*
X5187169Y2232273D01*
X5055822Y2446613D01*
X5055820Y2446613D01*
X3839094Y1229886D01*
X3782610Y1197274D01*
X3717388Y1197274D01*
X3660904Y1229886D01*
X2435115Y2455676D01*
X2425107Y2456729D01*
X2377676Y2485814D01*
X2347396Y2532492D01*
X2340172Y2587659D01*
X2355215Y2749995D01*
X2355215Y2750000D01*
X2350042Y2805822D01*
X2803387Y2805822D01*
X3749999Y1859210D01*
X3750001Y1859210D01*
X4696611Y2805822D01*
X4696611Y2805824D01*
X4482272Y2937170D01*
X4248437Y3034028D01*
X4002324Y3093114D01*
X3750000Y3112972D01*
X3497675Y3093114D01*
X3251562Y3034028D01*
X3017725Y2937169D01*
X2803387Y2805824D01*
X2803387Y2805822D01*
X2350042Y2805822D01*
X2336397Y2953083D01*
X2280582Y3149250D01*
X2189673Y3331821D01*
X2066764Y3494579D01*
X1916041Y3631981D01*
X1916038Y3631983D01*
X1916037Y3631984D01*
X1742640Y3739347D01*
X1552456Y3813024D01*
X1551948Y3813119D01*
X1351976Y3850500D01*
X1148024Y3850500D01*
X1014370Y3825517D01*
X947543Y3813024D01*
X757359Y3739347D01*
X583958Y3631982D01*
X511385Y3565822D01*
X460981Y3537747D01*
X403347Y3535082D01*
X350568Y3558387D01*
X313709Y3602774D01*
X300500Y3658937D01*
X300500Y4932234D01*
X4645787Y4932234D01*
X4675413Y4662985D01*
X4700080Y4568634D01*
X4743928Y4400912D01*
X4772308Y4334129D01*
X4846171Y4160313D01*
X4849870Y4151610D01*
X4990982Y3920390D01*
X5164255Y3712180D01*
X5164256Y3712179D01*
X5164258Y3712177D01*
X5365993Y3531422D01*
X5365995Y3531421D01*
X5365998Y3531418D01*
X5591910Y3381956D01*
X5698858Y3331821D01*
X5837171Y3266982D01*
X5837173Y3266982D01*
X5837176Y3266980D01*
X6096569Y3188940D01*
X6096572Y3188940D01*
X6096574Y3188939D01*
X6364558Y3149500D01*
X6364561Y3149500D01*
X6567630Y3149500D01*
X6567631Y3149500D01*
X6770156Y3164323D01*
X7034553Y3223220D01*
X7287558Y3319986D01*
X7523777Y3452559D01*
X7738177Y3618112D01*
X7926186Y3813119D01*
X8083799Y4033421D01*
X8207656Y4274325D01*
X8295118Y4530695D01*
X8344319Y4797067D01*
X8354212Y5067765D01*
X8352348Y5084702D01*
X8329568Y5291740D01*
X8324586Y5337018D01*
X8256072Y5599088D01*
X8150130Y5848390D01*
X8009018Y6079610D01*
X7835745Y6287820D01*
X7835741Y6287824D01*
X7634006Y6468579D01*
X7634003Y6468581D01*
X7634002Y6468582D01*
X7557794Y6519001D01*
X8663455Y6519001D01*
X8663456Y6519000D01*
X9746000Y6519000D01*
X9746000Y7599391D01*
X9665485Y7585956D01*
X9452631Y7512884D01*
X9254697Y7405767D01*
X9077096Y7267534D01*
X8924678Y7101963D01*
X8801580Y6913549D01*
X8711177Y6707452D01*
X8663455Y6519001D01*
X7557794Y6519001D01*
X7408090Y6618044D01*
X7408086Y6618046D01*
X7162828Y6733019D01*
X6903425Y6811062D01*
X6635442Y6850500D01*
X6635439Y6850500D01*
X6432369Y6850500D01*
X6398614Y6848030D01*
X6229839Y6835677D01*
X5965449Y6776781D01*
X5712441Y6680015D01*
X5476225Y6547443D01*
X5261820Y6381886D01*
X5073815Y6186883D01*
X4916200Y5966578D01*
X4792342Y5725672D01*
X4704882Y5469307D01*
X4655681Y5202935D01*
X4645787Y4932234D01*
X300500Y4932234D01*
X300500Y6010430D01*
X319616Y6077152D01*
X371163Y6123628D01*
X439501Y6135757D01*
X495084Y6113403D01*
X495517Y6114202D01*
X502523Y6110411D01*
X503894Y6109859D01*
X504696Y6109235D01*
X702631Y6002117D01*
X915491Y5929043D01*
X1137470Y5892000D01*
X1362530Y5892000D01*
X1584508Y5929043D01*
X1797368Y6002117D01*
X1995305Y6109236D01*
X2015688Y6125101D01*
X2015689Y6125102D01*
X979885Y7160906D01*
X947273Y7217390D01*
X947273Y7282612D01*
X979885Y7339096D01*
X1160904Y7520115D01*
X1217388Y7552727D01*
X1282610Y7552727D01*
X1339094Y7520115D01*
X2373076Y6486133D01*
X2373077Y6486134D01*
X2448418Y6601449D01*
X2538819Y6807543D01*
X2594068Y7025716D01*
X2600595Y7104483D01*
X2624463Y7168461D01*
X2678202Y7210592D01*
X2746027Y7218503D01*
X2791712Y7197401D01*
X2793464Y7200259D01*
X3017722Y7062833D01*
X3251562Y6965973D01*
X3497675Y6906887D01*
X3749999Y6887029D01*
X4002324Y6906887D01*
X4248437Y6965973D01*
X4482277Y7062833D01*
X4696611Y7194178D01*
X4696611Y7194180D01*
X3479885Y8410906D01*
X3447273Y8467390D01*
X3447273Y8532612D01*
X3479885Y8589096D01*
X3660904Y8770115D01*
X3717388Y8802727D01*
X3782610Y8802727D01*
X3839094Y8770115D01*
X5055820Y7553389D01*
X5055822Y7553389D01*
X5187167Y7767723D01*
X5284027Y8001563D01*
X5343113Y8247676D01*
X5362971Y8500001D01*
X5352032Y8639000D01*
X13775007Y8639000D01*
X14688500Y8639000D01*
X14688500Y9192999D01*
X14363546Y9192999D01*
X14326247Y9190065D01*
X14166601Y9143683D01*
X14023498Y9059053D01*
X13905947Y8941502D01*
X13821318Y8798400D01*
X13775007Y8639000D01*
X5352032Y8639000D01*
X5343113Y8752325D01*
X5284027Y8998438D01*
X5187167Y9232278D01*
X5054922Y9448082D01*
X5017694Y9491670D01*
X4988693Y9556237D01*
X4999079Y9626251D01*
X5045574Y9679619D01*
X5113505Y9699500D01*
X16074000Y9699500D01*
X16137000Y9682619D01*
G37*
%TD.AperFunction*%
%TA.AperFunction,Conductor*%
G36*
X49636500Y9682619D02*
G01*
X49682619Y9636500D01*
X49699500Y9573500D01*
X49699500Y2503806D01*
X49699270Y2496198D01*
X49683923Y2242487D01*
X49682089Y2227383D01*
X49636961Y1981126D01*
X49633320Y1966352D01*
X49558835Y1727325D01*
X49553440Y1713099D01*
X49450686Y1484787D01*
X49443614Y1471314D01*
X49314097Y1257067D01*
X49305454Y1244545D01*
X49151045Y1047457D01*
X49140955Y1036069D01*
X48963931Y859045D01*
X48952543Y848955D01*
X48755455Y694546D01*
X48742933Y685903D01*
X48528686Y556386D01*
X48515213Y549314D01*
X48286901Y446560D01*
X48272675Y441165D01*
X48033648Y366680D01*
X48018874Y363039D01*
X47772617Y317911D01*
X47757513Y316077D01*
X47519715Y301693D01*
X47458665Y313358D01*
X47410620Y352788D01*
X47387269Y410388D01*
X47394294Y472141D01*
X47421237Y543182D01*
X47440278Y700000D01*
X47434278Y749411D01*
X47440251Y805696D01*
X47470262Y853689D01*
X47854323Y1237749D01*
X47886910Y1261270D01*
X47925250Y1273334D01*
X47933253Y1274500D01*
X47933260Y1274500D01*
X48001393Y1284427D01*
X48106483Y1335802D01*
X48189198Y1418517D01*
X48240573Y1523607D01*
X48250500Y1591740D01*
X48250500Y1642273D01*
X48260091Y1690491D01*
X48287401Y1731365D01*
X48553749Y1997713D01*
X48573919Y2014091D01*
X48582836Y2019916D01*
X48602198Y2044794D01*
X48612508Y2056468D01*
X48612512Y2056475D01*
X48612520Y2056482D01*
X48624605Y2073412D01*
X48627674Y2077526D01*
X48659809Y2118811D01*
X48659809Y2118813D01*
X48664726Y2125129D01*
X48667010Y2132801D01*
X48681937Y2182944D01*
X48683512Y2187858D01*
X48683532Y2187914D01*
X48700500Y2237340D01*
X48700500Y2237341D01*
X48703099Y2244911D01*
X48700608Y2305144D01*
X48700500Y2310351D01*
X48700500Y3947990D01*
X48703182Y3973848D01*
X48703424Y3975000D01*
X48705367Y3984268D01*
X48701467Y4015550D01*
X48700502Y4031100D01*
X48700115Y4033421D01*
X48697083Y4051583D01*
X48696336Y4056714D01*
X48695685Y4061937D01*
X48689866Y4108626D01*
X48689864Y4108629D01*
X48688875Y4116568D01*
X48685065Y4123608D01*
X48685065Y4123610D01*
X48660176Y4169601D01*
X48657803Y4174212D01*
X48642225Y4206076D01*
X48634826Y4221211D01*
X48634825Y4221212D01*
X48631309Y4228404D01*
X48586942Y4269247D01*
X48583184Y4272853D01*
X48287404Y4568634D01*
X48260091Y4609511D01*
X48250500Y4657729D01*
X48250500Y4708257D01*
X48249008Y4718500D01*
X48240573Y4776393D01*
X48189198Y4881483D01*
X48162403Y4908278D01*
X48135091Y4949152D01*
X48125500Y4997371D01*
X48125500Y5002629D01*
X48135091Y5050848D01*
X48162403Y5091723D01*
X48189198Y5118517D01*
X48240573Y5223607D01*
X48250500Y5291740D01*
X48250500Y5342273D01*
X48260091Y5390491D01*
X48287401Y5431365D01*
X48553749Y5697713D01*
X48573919Y5714091D01*
X48582836Y5719916D01*
X48602198Y5744794D01*
X48612508Y5756468D01*
X48612512Y5756475D01*
X48612520Y5756482D01*
X48624605Y5773412D01*
X48627674Y5777526D01*
X48659809Y5818811D01*
X48659809Y5818813D01*
X48664726Y5825129D01*
X48668264Y5837014D01*
X48681937Y5882944D01*
X48683512Y5887858D01*
X48686856Y5897596D01*
X48700500Y5937340D01*
X48700500Y5937341D01*
X48703099Y5944911D01*
X48700608Y6005144D01*
X48700500Y6010351D01*
X48700500Y7647990D01*
X48703182Y7673848D01*
X48705367Y7684269D01*
X48701468Y7715547D01*
X48700502Y7731100D01*
X48698618Y7742389D01*
X48697083Y7751583D01*
X48696336Y7756714D01*
X48694057Y7775000D01*
X48689866Y7808626D01*
X48689864Y7808629D01*
X48688875Y7816568D01*
X48685065Y7823608D01*
X48685065Y7823610D01*
X48660176Y7869601D01*
X48657803Y7874212D01*
X48650510Y7889129D01*
X48634826Y7921211D01*
X48634825Y7921212D01*
X48631309Y7928404D01*
X48586942Y7969247D01*
X48583184Y7972853D01*
X48287404Y8268634D01*
X48260091Y8309511D01*
X48250500Y8357729D01*
X48250500Y8408257D01*
X48248476Y8422151D01*
X48240573Y8476393D01*
X48189198Y8581483D01*
X48189197Y8581484D01*
X48189197Y8581485D01*
X48106484Y8664198D01*
X48001394Y8715573D01*
X47984359Y8718055D01*
X47933260Y8725500D01*
X47566740Y8725500D01*
X47525860Y8719544D01*
X47498605Y8715573D01*
X47422261Y8678250D01*
X47372129Y8665555D01*
X47321120Y8674067D01*
X47277827Y8702352D01*
X47242103Y8738076D01*
X47126519Y8794582D01*
X47100313Y8798400D01*
X47051582Y8805500D01*
X46608418Y8805500D01*
X46563456Y8798950D01*
X46533480Y8794582D01*
X46417896Y8738076D01*
X46326924Y8647104D01*
X46270418Y8531520D01*
X46270417Y8531518D01*
X46270418Y8531518D01*
X46259500Y8456582D01*
X46259500Y8113418D01*
X46262962Y8089656D01*
X46270418Y8038481D01*
X46326924Y7922897D01*
X46385726Y7864095D01*
X46418338Y7807611D01*
X46418338Y7742389D01*
X46385726Y7685905D01*
X46326924Y7627104D01*
X46270418Y7511520D01*
X46259500Y7436579D01*
X46259500Y7093421D01*
X46270418Y7018481D01*
X46326924Y6902897D01*
X46417896Y6811925D01*
X46417897Y6811925D01*
X46417898Y6811924D01*
X46533482Y6755418D01*
X46608418Y6744500D01*
X46673500Y6744500D01*
X46736500Y6727619D01*
X46782619Y6681500D01*
X46799500Y6618500D01*
X46799500Y4258267D01*
X46789909Y4210049D01*
X46762595Y4169171D01*
X45956252Y3362830D01*
X45936077Y3346446D01*
X45927162Y3340622D01*
X45907797Y3315742D01*
X45897483Y3304061D01*
X45885417Y3287162D01*
X45882308Y3282993D01*
X45845274Y3235411D01*
X45828075Y3177643D01*
X45826488Y3172690D01*
X45806900Y3115629D01*
X45809392Y3055394D01*
X45809500Y3050187D01*
X45809500Y1982728D01*
X45799909Y1934510D01*
X45772595Y1893632D01*
X45166366Y1287404D01*
X45125489Y1260091D01*
X45077271Y1250500D01*
X37362659Y1250500D01*
X37298162Y1268259D01*
X37251845Y1316530D01*
X37236767Y1381706D01*
X37257176Y1445415D01*
X37307320Y1489697D01*
X37314371Y1493145D01*
X37322102Y1496924D01*
X37413076Y1587898D01*
X37469582Y1703482D01*
X37480500Y1778418D01*
X37480500Y2174309D01*
X37490091Y2222527D01*
X37517405Y2263404D01*
X37521000Y2266999D01*
X37521000Y2996000D01*
X38029000Y2996000D01*
X38029000Y2267000D01*
X38048839Y2267000D01*
X38149239Y2277257D01*
X38311885Y2331153D01*
X38457731Y2421112D01*
X38578888Y2542269D01*
X38668847Y2688115D01*
X38722743Y2850761D01*
X38733000Y2951161D01*
X38733000Y2996000D01*
X38029000Y2996000D01*
X37521000Y2996000D01*
X37521000Y3378000D01*
X37537881Y3441000D01*
X37584000Y3487119D01*
X37647000Y3504000D01*
X38733000Y3504000D01*
X38733000Y3548839D01*
X38722743Y3649240D01*
X38668847Y3811885D01*
X38617972Y3894366D01*
X38599415Y3953386D01*
X38611188Y4014125D01*
X38650453Y4061937D01*
X38707743Y4085296D01*
X38769245Y4078569D01*
X38799661Y4067225D01*
X38897886Y4030588D01*
X38954515Y4024500D01*
X39545484Y4024501D01*
X39545487Y4024501D01*
X39602114Y4030588D01*
X39730224Y4078371D01*
X39730224Y4078372D01*
X39730226Y4078372D01*
X39839687Y4160313D01*
X39921628Y4269774D01*
X39969412Y4397886D01*
X39975500Y4454515D01*
X39975499Y4932234D01*
X41645787Y4932234D01*
X41675413Y4662985D01*
X41700080Y4568634D01*
X41743928Y4400912D01*
X41772308Y4334129D01*
X41846171Y4160313D01*
X41849870Y4151610D01*
X41990982Y3920390D01*
X42164255Y3712180D01*
X42164256Y3712179D01*
X42164258Y3712177D01*
X42365993Y3531422D01*
X42365995Y3531421D01*
X42365998Y3531418D01*
X42591910Y3381956D01*
X42698858Y3331821D01*
X42837171Y3266982D01*
X42837173Y3266982D01*
X42837176Y3266980D01*
X43096569Y3188940D01*
X43096572Y3188940D01*
X43096574Y3188939D01*
X43364558Y3149500D01*
X43364561Y3149500D01*
X43567630Y3149500D01*
X43567631Y3149500D01*
X43770156Y3164323D01*
X44034553Y3223220D01*
X44287558Y3319986D01*
X44523777Y3452559D01*
X44738177Y3618112D01*
X44926186Y3813119D01*
X45083799Y4033421D01*
X45207656Y4274325D01*
X45295118Y4530695D01*
X45344319Y4797067D01*
X45354212Y5067765D01*
X45352348Y5084702D01*
X45329568Y5291740D01*
X45324586Y5337018D01*
X45256072Y5599088D01*
X45150130Y5848390D01*
X45009018Y6079610D01*
X44835745Y6287820D01*
X44835741Y6287824D01*
X44634006Y6468579D01*
X44634003Y6468581D01*
X44634002Y6468582D01*
X44408090Y6618044D01*
X44408086Y6618046D01*
X44162828Y6733019D01*
X43903425Y6811062D01*
X43635442Y6850500D01*
X43635439Y6850500D01*
X43432369Y6850500D01*
X43398614Y6848030D01*
X43229839Y6835677D01*
X42965449Y6776781D01*
X42712441Y6680015D01*
X42476225Y6547443D01*
X42261820Y6381886D01*
X42073815Y6186883D01*
X41916200Y5966578D01*
X41792342Y5725672D01*
X41704882Y5469307D01*
X41655681Y5202935D01*
X41645787Y4932234D01*
X39975499Y4932234D01*
X39975499Y4995484D01*
X39975296Y4997371D01*
X39969412Y5052115D01*
X39921630Y5180223D01*
X39921628Y5180226D01*
X39866684Y5253623D01*
X39842053Y5317928D01*
X39854907Y5385580D01*
X39901408Y5436371D01*
X39957730Y5471111D01*
X40078888Y5592269D01*
X40168847Y5738115D01*
X40222743Y5900761D01*
X40233000Y6001161D01*
X40233000Y6021000D01*
X39122000Y6021000D01*
X39059000Y6037881D01*
X39012881Y6084000D01*
X38996000Y6147000D01*
X38996000Y7233000D01*
X39504000Y7233000D01*
X39504000Y6529000D01*
X40233000Y6529000D01*
X40233000Y6548839D01*
X40222743Y6649240D01*
X40168847Y6811886D01*
X40078888Y6957732D01*
X39957731Y7078889D01*
X39811885Y7168848D01*
X39649239Y7222744D01*
X39548839Y7233000D01*
X39504000Y7233000D01*
X38996000Y7233000D01*
X38996000Y7261026D01*
X38990000Y7291191D01*
X38990000Y7614000D01*
X39006881Y7677000D01*
X39053000Y7723119D01*
X39116000Y7740000D01*
X39484063Y7740000D01*
X39524975Y7733173D01*
X39561453Y7713432D01*
X39579696Y7699233D01*
X39777628Y7592118D01*
X39990485Y7519045D01*
X40071000Y7505609D01*
X40071000Y8586000D01*
X40579000Y8586000D01*
X40579000Y7505609D01*
X40659514Y7519045D01*
X40872368Y7592117D01*
X41070302Y7699234D01*
X41247903Y7837467D01*
X41400321Y8003038D01*
X41523419Y8191452D01*
X41613822Y8397549D01*
X41661544Y8586000D01*
X40579000Y8586000D01*
X40071000Y8586000D01*
X40071000Y8968000D01*
X40087881Y9031000D01*
X40134000Y9077119D01*
X40197000Y9094000D01*
X41661544Y9094000D01*
X41661544Y9094001D01*
X41613822Y9282452D01*
X41523417Y9488553D01*
X41512943Y9504585D01*
X41492534Y9568293D01*
X41507612Y9633469D01*
X41553928Y9681741D01*
X41618426Y9699500D01*
X49573500Y9699500D01*
X49636500Y9682619D01*
G37*
%TD.AperFunction*%
%TA.AperFunction,Conductor*%
G36*
X31890551Y8350419D02*
G01*
X31937026Y8298954D01*
X31949232Y8230693D01*
X31947000Y8208847D01*
X31947000Y8164000D01*
X33033000Y8164000D01*
X33096000Y8147119D01*
X33142119Y8101000D01*
X33159000Y8038000D01*
X33159000Y6927000D01*
X33178839Y6927000D01*
X33279237Y6937257D01*
X33403083Y6978296D01*
X33467971Y6982135D01*
X33526138Y6953121D01*
X33562104Y6898976D01*
X33566296Y6834110D01*
X33564034Y6822741D01*
X33564034Y6822740D01*
X33549500Y6749674D01*
X33549500Y6000326D01*
X33564034Y5927260D01*
X33600199Y5873134D01*
X33620007Y5843489D01*
X33659971Y5799396D01*
X33674849Y5740000D01*
X33659971Y5680604D01*
X33620007Y5636512D01*
X33593552Y5596918D01*
X33564034Y5552740D01*
X33549500Y5479674D01*
X33549500Y4730326D01*
X33564034Y4657260D01*
X33602511Y4599674D01*
X33620007Y4573489D01*
X33659971Y4529396D01*
X33674849Y4470000D01*
X33659971Y4410604D01*
X33620007Y4366512D01*
X33578239Y4304000D01*
X33564034Y4282740D01*
X33549500Y4209674D01*
X33549500Y3460326D01*
X33564034Y3387260D01*
X33611820Y3315742D01*
X33620007Y3303489D01*
X33659971Y3259396D01*
X33674849Y3200000D01*
X33659971Y3140604D01*
X33620007Y3096512D01*
X33589055Y3050187D01*
X33564034Y3012740D01*
X33549500Y2939674D01*
X33549500Y2190326D01*
X33564034Y2117260D01*
X33619399Y2034399D01*
X33702260Y1979034D01*
X33702261Y1979034D01*
X33709632Y1974109D01*
X33752361Y1953899D01*
X33788836Y1904717D01*
X33797820Y1844149D01*
X33777192Y1786498D01*
X33731823Y1745378D01*
X33672427Y1730500D01*
X30950523Y1730500D01*
X30902305Y1740091D01*
X30861428Y1767405D01*
X30848178Y1780655D01*
X30818165Y1828649D01*
X30812192Y1884939D01*
X30818250Y1934824D01*
X30799209Y2091642D01*
X30743192Y2239347D01*
X30653455Y2369354D01*
X30582343Y2432353D01*
X30535210Y2474109D01*
X30395340Y2547519D01*
X30395337Y2547520D01*
X30241957Y2585324D01*
X30083987Y2585324D01*
X30006651Y2566263D01*
X29950055Y2565408D01*
X29898793Y2589417D01*
X29863215Y2633443D01*
X29850500Y2688602D01*
X29850500Y2939673D01*
X29850500Y2939674D01*
X29835966Y3012740D01*
X29780601Y3095601D01*
X29780598Y3095603D01*
X29779991Y3096512D01*
X29740029Y3140603D01*
X29725150Y3200000D01*
X29740029Y3259397D01*
X29779991Y3303489D01*
X29780597Y3304397D01*
X29780601Y3304399D01*
X29835966Y3387260D01*
X29850500Y3460326D01*
X29850500Y4209674D01*
X29835966Y4282740D01*
X29780601Y4365601D01*
X29780598Y4365603D01*
X29779991Y4366512D01*
X29740029Y4410603D01*
X29725150Y4470000D01*
X29740029Y4529397D01*
X29779991Y4573489D01*
X29780597Y4574397D01*
X29780601Y4574399D01*
X29835966Y4657260D01*
X29850500Y4730326D01*
X29850500Y5479674D01*
X29835966Y5552740D01*
X29780601Y5635601D01*
X29780598Y5635603D01*
X29779991Y5636512D01*
X29740029Y5680603D01*
X29725150Y5740000D01*
X29740029Y5799397D01*
X29779991Y5843489D01*
X29780597Y5844397D01*
X29780601Y5844399D01*
X29835966Y5927260D01*
X29850500Y6000326D01*
X29850500Y6749674D01*
X29835966Y6822740D01*
X29835965Y6822741D01*
X29833351Y6835884D01*
X29837543Y6900750D01*
X29873509Y6954895D01*
X29931676Y6983909D01*
X29996564Y6980070D01*
X30125762Y6937257D01*
X30226161Y6927000D01*
X30246000Y6927000D01*
X30246000Y7656000D01*
X30754000Y7656000D01*
X30754000Y6927000D01*
X30773839Y6927000D01*
X30874239Y6937257D01*
X31036885Y6991153D01*
X31182731Y7081112D01*
X31303888Y7202269D01*
X31393847Y7348115D01*
X31447743Y7510761D01*
X31458000Y7611161D01*
X31458000Y7656000D01*
X31947000Y7656000D01*
X31947000Y7611161D01*
X31957256Y7510761D01*
X32011152Y7348115D01*
X32101111Y7202269D01*
X32222268Y7081112D01*
X32368114Y6991153D01*
X32530760Y6937257D01*
X32631161Y6927000D01*
X32651000Y6927000D01*
X32651000Y7656000D01*
X31947000Y7656000D01*
X31458000Y7656000D01*
X30754000Y7656000D01*
X30246000Y7656000D01*
X30246000Y8038000D01*
X30262881Y8101000D01*
X30309000Y8147119D01*
X30372000Y8164000D01*
X31458000Y8164000D01*
X31458000Y8208847D01*
X31455768Y8230693D01*
X31467974Y8298954D01*
X31514449Y8350419D01*
X31581115Y8369500D01*
X31823885Y8369500D01*
X31890551Y8350419D01*
G37*
%TD.AperFunction*%
%TA.AperFunction,Conductor*%
G36*
X20486000Y6522119D02*
G01*
X20532119Y6476000D01*
X20549000Y6413000D01*
X20549000Y6157000D01*
X20532119Y6094000D01*
X20486000Y6047881D01*
X20423000Y6031000D01*
X19850946Y6031000D01*
X19825809Y6026000D01*
X18732000Y6026000D01*
X18669000Y6042881D01*
X18622881Y6089000D01*
X18606000Y6152000D01*
X18606000Y6408000D01*
X18622881Y6471000D01*
X18669000Y6517119D01*
X18732000Y6534000D01*
X19329054Y6534000D01*
X19354191Y6539000D01*
X20423000Y6539000D01*
X20486000Y6522119D01*
G37*
%TD.AperFunction*%
%TD*%
%TA.AperFunction,Conductor*%
%TO.N,+3V3*%
G36*
X14709309Y5619189D02*
G01*
X14754447Y5575790D01*
X14772624Y5515868D01*
X14759205Y5454705D01*
X14725280Y5388125D01*
X14709500Y5288490D01*
X14709500Y4721510D01*
X14725280Y4621876D01*
X14786472Y4501779D01*
X14881778Y4406473D01*
X14881780Y4406472D01*
X15001874Y4345281D01*
X15035086Y4340021D01*
X15101510Y4329500D01*
X15101512Y4329500D01*
X15618488Y4329500D01*
X15625050Y4329500D01*
X15631403Y4330000D01*
X15981000Y4330000D01*
X16043000Y4313387D01*
X16088387Y4268000D01*
X16105000Y4206000D01*
X16105000Y3294500D01*
X16088387Y3232500D01*
X16043000Y3187113D01*
X15981000Y3170500D01*
X15090638Y3170500D01*
X14973237Y3155044D01*
X14827161Y3094538D01*
X14701717Y2998281D01*
X14662527Y2947209D01*
X14651840Y2935022D01*
X14643300Y2926482D01*
X14642922Y2925707D01*
X14629905Y2904696D01*
X14605465Y2872844D01*
X14544955Y2726761D01*
X14524317Y2570001D01*
X14544956Y2413238D01*
X14605463Y2267160D01*
X14629902Y2235310D01*
X14642925Y2214286D01*
X14643300Y2213519D01*
X14651833Y2204986D01*
X14662530Y2192789D01*
X14701717Y2141718D01*
X14809260Y2059198D01*
X14827159Y2045464D01*
X14973238Y1984956D01*
X15075182Y1971535D01*
X15090638Y1969500D01*
X15090639Y1969500D01*
X15981000Y1969500D01*
X16043000Y1952887D01*
X16088387Y1907500D01*
X16105000Y1845500D01*
X16105000Y1394000D01*
X16088387Y1332000D01*
X16043000Y1286613D01*
X15981000Y1270000D01*
X14152082Y1270000D01*
X14100517Y1281230D01*
X14058293Y1312886D01*
X14033056Y1359233D01*
X14029378Y1411878D01*
X14033000Y1436737D01*
X14033000Y1803263D01*
X14023073Y1871391D01*
X14023073Y1871393D01*
X13971698Y1976483D01*
X13971697Y1976484D01*
X13971697Y1976485D01*
X13888984Y2059198D01*
X13766485Y2119083D01*
X13766625Y2119371D01*
X13736948Y2131305D01*
X13698749Y2175472D01*
X13685000Y2232224D01*
X13685000Y2907776D01*
X13698749Y2964528D01*
X13736948Y3008695D01*
X13766625Y3020630D01*
X13766485Y3020917D01*
X13783893Y3029427D01*
X13888983Y3080802D01*
X13971698Y3163517D01*
X14023073Y3268607D01*
X14033000Y3336740D01*
X14033000Y3703260D01*
X14023073Y3771393D01*
X13971698Y3876483D01*
X13971697Y3876484D01*
X13971697Y3876485D01*
X13888984Y3959198D01*
X13835212Y3985485D01*
X13783893Y4010573D01*
X13783891Y4010574D01*
X13783890Y4010574D01*
X13715763Y4020500D01*
X13715760Y4020500D01*
X12624240Y4020500D01*
X12618722Y4020500D01*
X12611822Y4020000D01*
X11174500Y4020000D01*
X11112500Y4036613D01*
X11067113Y4082000D01*
X11050500Y4144000D01*
X11050500Y4604396D01*
X11050000Y4609473D01*
X11050000Y5511000D01*
X11066613Y5573000D01*
X11112000Y5618387D01*
X11174000Y5635000D01*
X14648720Y5635000D01*
X14709309Y5619189D01*
G37*
%TD.AperFunction*%
%TD*%
%TA.AperFunction,Conductor*%
%TO.N,+3V0*%
G36*
X12245000Y3758387D02*
G01*
X12290387Y3713000D01*
X12307000Y3651000D01*
X12307000Y3336737D01*
X12316926Y3268610D01*
X12368302Y3163516D01*
X12451015Y3080803D01*
X12451016Y3080803D01*
X12451017Y3080802D01*
X12556107Y3029427D01*
X12583360Y3025457D01*
X12624237Y3019500D01*
X12624240Y3019500D01*
X13355500Y3019500D01*
X13417500Y3002887D01*
X13462887Y2957500D01*
X13479500Y2895500D01*
X13479500Y2232220D01*
X13485276Y2183842D01*
X13499026Y2127088D01*
X13499027Y2127086D01*
X13516035Y2081420D01*
X13543317Y2041043D01*
X13569949Y2010250D01*
X13581515Y1996877D01*
X13617540Y1964056D01*
X13623688Y1960688D01*
X13660277Y1940643D01*
X13674796Y1934805D01*
X13682978Y1931165D01*
X13749335Y1898725D01*
X13782556Y1875006D01*
X13787504Y1870058D01*
X13811222Y1836840D01*
X13814899Y1829319D01*
X13827500Y1774856D01*
X13827500Y1460616D01*
X13826204Y1442733D01*
X13826024Y1441502D01*
X13825944Y1439354D01*
X13825494Y1437864D01*
X13825065Y1434918D01*
X13824624Y1434983D01*
X13807836Y1379337D01*
X13762685Y1335847D01*
X13702031Y1320000D01*
X12391932Y1320000D01*
X12348039Y1328029D01*
X12309829Y1351075D01*
X12241955Y1411044D01*
X12207358Y1462050D01*
X12203157Y1506753D01*
X12200500Y1506753D01*
X12200500Y2033490D01*
X12184719Y2133125D01*
X12184719Y2133126D01*
X12123528Y2253220D01*
X12123527Y2253222D01*
X12028221Y2348528D01*
X11908124Y2409720D01*
X11808490Y2425500D01*
X11808488Y2425500D01*
X11241512Y2425500D01*
X11231753Y2425500D01*
X11231753Y2426377D01*
X11189969Y2428825D01*
X11143165Y2453763D01*
X11111060Y2495976D01*
X11099528Y2547738D01*
X11095459Y3650543D01*
X11111919Y3712736D01*
X11157326Y3758311D01*
X11219458Y3775000D01*
X12183000Y3775000D01*
X12245000Y3758387D01*
G37*
%TD.AperFunction*%
%TD*%
M02*
