%TF.GenerationSoftware,KiCad,Pcbnew,7.0.1*%
%TF.CreationDate,2023-03-15T21:10:10-04:00*%
%TF.ProjectId,ctm_battery c,63746d5f-6261-4747-9465-727920632e6b,1.0.0*%
%TF.SameCoordinates,PX49e8e60PY47868c0*%
%TF.FileFunction,Paste,Top*%
%TF.FilePolarity,Positive*%
%FSLAX46Y46*%
G04 Gerber Fmt 4.6, Leading zero omitted, Abs format (unit mm)*
G04 Created by KiCad (PCBNEW 7.0.1) date 2023-03-15 21:10:10*
%MOMM*%
%LPD*%
G01*
G04 APERTURE LIST*
G04 Aperture macros list*
%AMRoundRect*
0 Rectangle with rounded corners*
0 $1 Rounding radius*
0 $2 $3 $4 $5 $6 $7 $8 $9 X,Y pos of 4 corners*
0 Add a 4 corners polygon primitive as box body*
4,1,4,$2,$3,$4,$5,$6,$7,$8,$9,$2,$3,0*
0 Add four circle primitives for the rounded corners*
1,1,$1+$1,$2,$3*
1,1,$1+$1,$4,$5*
1,1,$1+$1,$6,$7*
1,1,$1+$1,$8,$9*
0 Add four rect primitives between the rounded corners*
20,1,$1+$1,$2,$3,$4,$5,0*
20,1,$1+$1,$4,$5,$6,$7,0*
20,1,$1+$1,$6,$7,$8,$9,0*
20,1,$1+$1,$8,$9,$2,$3,0*%
G04 Aperture macros list end*
%ADD10RoundRect,0.225000X-0.250000X0.225000X-0.250000X-0.225000X0.250000X-0.225000X0.250000X0.225000X0*%
%ADD11RoundRect,0.150000X0.512500X0.150000X-0.512500X0.150000X-0.512500X-0.150000X0.512500X-0.150000X0*%
%ADD12RoundRect,0.184782X-0.240218X-0.715218X0.240218X-0.715218X0.240218X0.715218X-0.240218X0.715218X0*%
%ADD13RoundRect,0.135000X0.185000X-0.135000X0.185000X0.135000X-0.185000X0.135000X-0.185000X-0.135000X0*%
%ADD14RoundRect,0.225000X-0.225000X-0.250000X0.225000X-0.250000X0.225000X0.250000X-0.225000X0.250000X0*%
%ADD15RoundRect,0.135000X-0.135000X-0.185000X0.135000X-0.185000X0.135000X0.185000X-0.135000X0.185000X0*%
%ADD16RoundRect,0.225000X0.225000X0.250000X-0.225000X0.250000X-0.225000X-0.250000X0.225000X-0.250000X0*%
%ADD17RoundRect,0.100000X-0.150000X0.100000X-0.150000X-0.100000X0.150000X-0.100000X0.150000X0.100000X0*%
%ADD18R,1.300000X0.700000*%
%ADD19RoundRect,0.225000X0.250000X-0.225000X0.250000X0.225000X-0.250000X0.225000X-0.250000X-0.225000X0*%
%ADD20RoundRect,0.184782X-0.715218X0.240218X-0.715218X-0.240218X0.715218X-0.240218X0.715218X0.240218X0*%
%ADD21R,0.400000X1.350000*%
%ADD22R,1.800000X1.900000*%
%ADD23R,2.100000X1.600000*%
%ADD24R,1.900000X1.900000*%
%ADD25RoundRect,0.200000X-0.200000X-0.275000X0.200000X-0.275000X0.200000X0.275000X-0.200000X0.275000X0*%
%ADD26RoundRect,0.140000X0.170000X-0.140000X0.170000X0.140000X-0.170000X0.140000X-0.170000X-0.140000X0*%
G04 APERTURE END LIST*
%TO.C,U1*%
G36*
X30700000Y5970000D02*
G01*
X31600000Y5970000D01*
X31600000Y4570000D01*
X30700000Y4570000D01*
X30700000Y5970000D01*
G37*
G36*
X30700000Y4370000D02*
G01*
X31600000Y4370000D01*
X31600000Y2970000D01*
X30700000Y2970000D01*
X30700000Y4370000D01*
G37*
G36*
X31800000Y5970000D02*
G01*
X32700000Y5970000D01*
X32700000Y4570000D01*
X31800000Y4570000D01*
X31800000Y5970000D01*
G37*
G36*
X31800000Y4370000D02*
G01*
X32700000Y4370000D01*
X32700000Y2970000D01*
X31800000Y2970000D01*
X31800000Y4370000D01*
G37*
%TD*%
D10*
%TO.C,C6*%
X18860000Y7830000D03*
X18860000Y6280000D03*
%TD*%
D11*
%TO.C,U3*%
X15445000Y1620000D03*
X15445000Y2570000D03*
X15445000Y3520000D03*
X13170000Y3520000D03*
X13170000Y1620000D03*
%TD*%
D12*
%TO.C,L1*%
X36405000Y6610000D03*
X37755000Y6610000D03*
%TD*%
D13*
%TO.C,R2*%
X46830000Y7265000D03*
X46830000Y8285000D03*
%TD*%
D14*
%TO.C,C1*%
X36225000Y3250000D03*
X37775000Y3250000D03*
%TD*%
D15*
%TO.C,R3*%
X35940000Y2000000D03*
X36960000Y2000000D03*
%TD*%
D16*
%TO.C,C5*%
X34455000Y7910000D03*
X32905000Y7910000D03*
%TD*%
D17*
%TO.C,D1*%
X47750000Y1725000D03*
X47750000Y2725000D03*
%TD*%
%TO.C,D4*%
X47750000Y7275000D03*
X47750000Y8275000D03*
%TD*%
D18*
%TO.C,U1*%
X28950000Y6375000D03*
X28950000Y5105000D03*
X28950000Y3835000D03*
X28950000Y2565000D03*
X34450000Y2565000D03*
X34450000Y3835000D03*
X34450000Y5105000D03*
X34450000Y6375000D03*
%TD*%
D19*
%TO.C,C4*%
X39250000Y4725000D03*
X39250000Y6275000D03*
%TD*%
D20*
%TO.C,L2*%
X11950000Y6410000D03*
X11950000Y5060000D03*
%TD*%
D14*
%TO.C,C2*%
X28950000Y7910000D03*
X30500000Y7910000D03*
%TD*%
D11*
%TO.C,U2*%
X17217500Y6485000D03*
X17217500Y7435000D03*
X17217500Y8385000D03*
X14942500Y8385000D03*
X14942500Y7435000D03*
X14942500Y6485000D03*
%TD*%
D17*
%TO.C,D3*%
X47750000Y5425000D03*
X47750000Y6425000D03*
%TD*%
D21*
%TO.C,J1*%
X21200000Y4175000D03*
X21850000Y4175000D03*
X22500000Y4175000D03*
X23150000Y4175000D03*
X23800000Y4175000D03*
D22*
X18700000Y1500000D03*
D23*
X19400000Y4050000D03*
D24*
X21300000Y1500000D03*
X23700000Y1500000D03*
D23*
X25600000Y4050000D03*
D22*
X26300000Y1500000D03*
%TD*%
D14*
%TO.C,C7*%
X13810000Y5005000D03*
X15360000Y5005000D03*
%TD*%
D17*
%TO.C,D2*%
X47750000Y3575000D03*
X47750000Y4575000D03*
%TD*%
D13*
%TO.C,R1*%
X46830000Y1715000D03*
X46830000Y2735000D03*
%TD*%
D25*
%TO.C,R4*%
X36124000Y4725000D03*
X37774000Y4725000D03*
%TD*%
D10*
%TO.C,C8*%
X11525000Y3325000D03*
X11525000Y1775000D03*
%TD*%
D16*
%TO.C,C3*%
X21845000Y6285000D03*
X20295000Y6285000D03*
%TD*%
D26*
%TO.C,C9*%
X13565000Y6170000D03*
X13565000Y7130000D03*
%TD*%
M02*
